<?xml version="1.0" encoding="UTF-8"?>
<svg width="54px" height="54px" viewBox="0 0 54 54" version="1.1" xmlns="http://www.w3.org/2000/svg" xmlns:xlink="http://www.w3.org/1999/xlink">
    <!-- Generator: Sketch 52.4 (67378) - http://www.bohemiancoding.com/sketch -->
    <title>Facebook</title>
    <desc>Created with Sketch.</desc>
    <defs>
        <circle id="path-1" cx="27" cy="27" r="27"></circle>
    </defs>
    <g id="Page-1" stroke="none" stroke-width="1" fill="none" fill-rule="evenodd">
        <g id="Desktop" transform="translate(-653.000000, -6719.000000)">
            <g id="Footer" transform="translate(-109.000000, 6153.000000)">
                <g id="Social-Media" transform="translate(762.000000, 566.000000)">
                    <g id="Facebook">
                        <g id="Oval">
                            <use fill="#4C7EFF" xlink:href="#path-1"></use>
                            <use fill-opacity="0.6" fill="#6E6D6D" xlink:href="#path-1"></use>
                        </g>
                        <path d="M35.1423394,52.7505972 C32.6333465,53.5431969 29.9659721,53.9792416 27.1996706,53.9992771 L27.1996706,36.4542158 C27.1996706,35.901931 26.7519553,35.4542158 26.1996706,35.4542158 L24,35.4542158 C23.4477153,35.4542158 23,35.0065005 23,34.4542158 L23,29.4764067 C23,28.924122 23.4477153,28.4764067 24,28.4764067 L26.1996706,28.4764067 C26.7519553,28.4764067 27.1996706,28.0286915 27.1996706,27.4764067 C27.1996706,25.2610675 27.1996706,23.0457283 27.1996706,20.830389 C27.1996706,15.7330439 30.1639094,14 34.3053833,14 C35.3440485,14 37.2444327,14.0090853 40.0065357,14.027256 L40.006536,14.0272133 C40.556265,14.0308298 41,14.4774935 41,15.0272344 L41,21.2551678 C35.9767442,21.2551678 35.1425926,21.2551678 35.1425926,23.6936099 L35.1425926,27.4764067 C35.1425926,28.0286915 35.5903078,28.4764067 36.1425926,28.4764067 L39.8728462,28.4764067 C40.425131,28.4764067 40.8728462,28.924122 40.8728462,29.4764067 C40.8728462,29.5162222 40.8704683,29.5560021 40.8657252,29.595534 L40.2684793,34.5733431 C40.2081761,35.0759463 39.7818083,35.4542158 39.2756003,35.4542158 L36.1425926,35.4542299 C35.5903133,35.4542299 35.1426003,35.9019365 35.1425926,36.4542158 L35.1425785,36.4542158 L35.1423394,52.7505972 Z" id="Combined-Shape" fill="#E5E5E5"></path>
                    </g>
                </g>
            </g>
        </g>
    </g>
</svg>