<svg width="129" height="129" xmlns="http://www.w3.org/2000/svg"><g fill="none" fill-rule="evenodd"><path d="M19.68 19.662c25.154-25.153 65.772-25.316 90.725-.363 24.953 24.953 24.79 65.572-.362 90.725-25.154 25.153-65.772 25.315-90.725.363-24.953-24.953-24.79-65.572.363-90.725z" fill="#2D2C2C"/><path d="M88.108 124.465c-.294.18-.588.357-.882.533l-82.52-82.52.533-.881 82.869 82.868zM71.462 101.215c.844-.835 1.526-1.822 2.439-2.59.142-.12.215-.522.536-.25.267.224.484.411.211.862a7.056 7.056 0 0 0-.966 2.622c-.329 2.23.591 3.95 2.588 4.77 1.082.445 2.47-.338 3.096-1.352.805-1.305.482-2.512-.082-3.774-.59-1.315-1.279-2.591-1.442-4.083-.131-1.207.274-2.183.998-3.074 2.017-2.474 5.847-1.708 7.357.706.383.611.685 1.232.87 1.915.113.42.29.681.76.452.197-.096.319-.037.469.091.29.25.41.415.045.773-1.016.998-1.967 2.062-2.957 3.086-.116.12-.216.46-.499.178-.215-.214-.489-.391-.24-.77.475-.727.785-1.527 1.062-2.349.62-1.837-.475-4.035-2.48-4.296-.765-.1-1.889.44-2.314 1.2-.581 1.038-.531 2.077-.11 3.156.577 1.487 1.392 2.885 1.639 4.498.256 1.676-.462 3.108-1.872 4.105-1.824 1.29-3.664 1.022-5.43.041-1.275-.709-2.117-1.89-2.687-3.242-.074-.175-.208-.339-.23-.52-.078-.65-.307-.95-1.025-.654-.289.119-.469-.257-.617-.461-.131-.182.146-.28.252-.402.196-.225.418-.426.63-.638M59.317 89.043c.855-.852 1.558-1.847 2.478-2.636.131-.111.216-.46.5-.182.216.213.478.383.25.772-.489.83-.841 1.717-1.005 2.67-.39 2.282.658 4.071 2.59 4.805 1.057.402 2.47-.274 3.076-1.315.771-1.321.502-2.54-.089-3.829-.592-1.291-1.254-2.558-1.431-4.026-.142-1.166.213-2.138.89-2.997 2.087-2.642 5.909-1.828 7.439.557.434.674.742 1.375.952 2.127.096.342.248.39.551.309.19-.05.38-.183.593.022.285.274.444.438.058.818-1.018.997-1.968 2.062-2.958 3.086-.107.112-.198.425-.453.188-.215-.2-.54-.38-.295-.762.578-.895 1.01-1.857 1.206-2.9.316-1.697-.75-3.576-2.731-3.807-.687-.078-1.812.574-2.19 1.247-.585 1.042-.506 2.073-.096 3.156.56 1.473 1.353 2.852 1.618 4.448.276 1.66-.544 3.137-1.864 4.158-1.628 1.26-4.34.828-5.77-.228-1.429-1.056-2.2-2.476-2.738-4.08-.077-.231-.09-.28-.314-.2-.196.072-.415.139-.615.119-.27-.026-.43-.278-.56-.48-.1-.153.136-.253.235-.36.215-.235.448-.454.673-.68M19.924 49.613c.85-.857 1.559-1.845 2.478-2.636.12-.103.2-.424.455-.183.214.201.53.373.293.763-.512.843-.875 1.752-1.03 2.72-.354 2.22.581 4 2.573 4.762 1.11.424 2.468-.244 3.106-1.317.78-1.31.49-2.514-.077-3.778-.59-1.315-1.278-2.59-1.449-4.08-.137-1.186.245-2.159.949-3.033 2.06-2.562 5.88-1.75 7.4.638.441.694.723 1.423.963 2.186.075.24.163.346.43.233.155-.066.35-.114.507-.083.437.083.556.56.247.886-.982 1.032-1.955 2.074-2.946 3.099-.117.12-.216.456-.496.195-.219-.205-.504-.384-.261-.767.557-.882.967-1.824 1.18-2.85.338-1.634-.696-3.579-2.686-3.834-.71-.092-1.824.558-2.226 1.27-.59 1.047-.493 2.066-.079 3.15.562 1.473 1.366 2.853 1.612 4.45.267 1.726-.495 3.146-1.855 4.113-1.814 1.288-3.661 1.038-5.429.05-1.29-.72-2.157-1.9-2.705-3.292-.146-.37-.377-.713-.4-1.123-.015-.248-.162-.153-.276-.131-.206.039-.408.128-.612.132-.292.005-.433-.263-.573-.455-.148-.205.135-.286.236-.404.208-.241.446-.455.671-.68" fill="#FEFEFE"/><path d="M52.271 83.978c-.684-.685-1.361-1.376-2.058-2.048-.214-.208-.254-.34-.009-.558.208-.183.324-.345.607-.062.277.277.649.465.992.67.442.264.768.045.947-.348.46-1.029.888-2.072 1.43-3.065.096-.177.119-.36-.087-.56a177.914 177.914 0 0 1-3.519-3.518c-.193-.197-.366-.208-.56-.11-.938.476-1.883.942-2.796 1.464-.408.233-.547.607-.31 1.102.198.418.41.837.71 1.163.336.368-.006.454-.147.645-.223.299-.358.067-.505-.08-1.187-1.186-2.375-2.372-3.56-3.562-.11-.113-.343-.242-.088-.41.175-.116.235-.554.58-.279 1.465 1.164 2.848.424 4.244-.198 2.811-1.25 5.626-2.495 8.441-3.739 1.066-.47 2.156-.893 3.195-1.416.377-.19.44.062.603.204.17.148.335.273.189.589-.76 1.648-1.486 3.312-2.224 4.972l-2.98 6.707c-.171.385-.311.785-.51 1.152-.537.987-.486 1.952.165 2.82.309.412-.077.456-.199.638-.19.28-.325.051-.456-.08-.7-.696-1.396-1.394-2.095-2.093zm5.172-12.923c-.185.125-.237.171-.297.198-1.817.81-3.632 1.62-5.452 2.42-.204.09-.498.098-.196.4 1.05 1.058 2.106 2.11 3.202 3.206l2.743-6.224z" fill="#FEFEFE" fill-rule="nonzero"/><path d="M46.615 55.838c1.495 1.495 2.981 2.999 4.492 4.477.299.292.302.444-.003.732-.797.751-1.551 1.548-2.338 2.31-.122.118-.21.466-.495.216-.224-.195-.496-.37-.291-.763.284-.547.445-1.136.578-1.74.25-1.126.011-2.037-.87-2.829-.968-.87-.933-.91-1.864.02-2.576 2.577-5.14 5.169-7.738 7.724-1.026 1.01-.636 1.509-.13 2.314.112.176.225.378.363.513.362.357-.032.458-.17.642-.23.31-.363.035-.5-.1-1.54-1.535-3.075-3.073-4.613-4.61-.152-.152-.359-.285-.068-.507.196-.148.275-.427.652-.14.344.262.661.57 1.051.796.554.321.995.152 1.359-.208 2.93-2.9 5.835-5.825 8.76-8.732.24-.24.246-.38-.003-.6-.413-.367-.772-.795-1.198-1.143-.912-.745-1.923-.43-2.924-.194-.398.093-.748.292-1.126.428-.138.05-.292.133-.469-.046-.274-.274-.406-.435-.033-.776.824-.752 1.602-1.554 2.37-2.362.26-.273.394-.253.646.004 1.51 1.535 3.04 3.051 4.562 4.574M51.798 98.89c1.035 1.035 2.045 2.046 3.058 3.056.11.111.083.198-.017.297-.242.237-.48.478-.72.717-.074.075-.15.13-.246.03-.07-.073-.109-.13-.045-.248.187-.349.343-.802.154-1.103-.288-.458-.75-.806-1.143-1.195-.158-.155-.243.022-.332.108-.273.263-.57.51-.795.809-.166.22-.664.3-.442.704.353.641.778.76 1.398.523.13-.05.324-.227.46.008.124.21-.102.27-.194.367-.354.377-.724.74-1.097 1.1-.084.08-.145.262-.33.116-.165-.129-.053-.26-.004-.362.157-.327.29-.641.028-.968-.588-.736-.589-.735-1.262-.062-1.184 1.184-1.156 1.157-.018 2.356.52.549 1.024.28 1.532.127.21-.063.395-.173.496.043.105.228-.143.247-.295.312-.069.029-.12.1-.18.153-.737.662-.737.662-1.43-.03-.81-.81-1.624-1.617-2.426-2.434-.099-.1-.377-.19-.138-.408.197-.179.283.054.367.148.25.286.445.217.686-.029.892-.91 1.786-1.82 2.707-2.7.353-.335.477-.639.2-1.062-.042-.064-.125-.16.028-.373M26.302 77.96l1.775 1.774c.069.069.159.156.042.237-.1.07-.24.076-.327-.026-.287-.337-.489-.147-.724.084-.985.97-.993.972-2.202.253-.995-.592-1.505-1.48-1.465-2.64.05-1.398 1.451-2.718 2.717-2.939 1.484-.26 2.76.705 3.24 1.921.036.087.05.214.117.252.369.216.394.234.076.495-.312.258-.422.665-.734.911-.104.081-.173.322-.37.126-.13-.132-.098-.262-.01-.422.147-.265.3-.526.35-.842.22-1.368-1.153-2.29-2.333-1.752-1.19.542-2.086 1.373-2.344 2.735-.128.675.328 1.613.937 1.897.567.263 1.594-.383 1.628-1.016.009-.164-.08-.256-.18-.35-.163-.15-.223-.33-.193-.699" fill="#FEFEFE"/><path d="M32.156 87.53c-.223-.223-.448-.445-.67-.671-.079-.08-.186-.156-.053-.289.115-.114.2-.08.292.022.39.44.5.15.735-.206.515-.782.28-1.28-.374-1.828-.741-.62-1.103-.673-1.83.004-.314.293-.032.484.127.682.094.116.192.203.027.335-.142.115-.211-.009-.286-.084-.394-.389-.784-.78-1.174-1.172-.067-.067-.145-.137-.051-.245.09-.105.173-.145.288-.026.304.316.67.185.978.053 1.529-.654 3.047-1.33 4.562-2.014.16-.073.276-.127.425-.016.194.144.033.308-.014.417a231.555 231.555 0 0 1-2.063 4.6c-.147.317-.208.584.015.86.083.103.145.174.026.291-.168.165-.242-.002-.33-.086-.214-.204-.42-.417-.63-.627zm4.776-6.039c.32.226.176.543.01.702-.17.164-.46.235-.715-.039a.46.46 0 0 1 .004-.671c.165-.163.475-.311.701.008zm-1.99-.609c-.147-.266-.195-.503.039-.704.225-.194.47-.187.668.033.195.219.179.464-.037.667-.226.212-.455.137-.67.004zm-3.132 2.922c.374.374.698.688 1.01 1.015.14.145.276.182.363-.02.272-.63.525-1.27.822-1.996l-2.195 1z" fill="#FEFEFE" fill-rule="nonzero"/><path d="M41.798 88.967l1.58 1.58c-.055.033-.124.093-.145.08-.613-.388-1.18-.09-1.735.144-1.355.572-2.7 1.169-4.055 1.744-.115.05-.216.297-.39.08-.118-.146-.07-.264.006-.426.496-1.033.972-2.077 1.453-3.119.24-.52.502-1.031.709-1.563.095-.245.133-.532-.088-.776-.066-.073-.072-.226.046-.314.092-.068.144.02.193.07.51.505 1.016 1.013 1.532 1.53-.096.066-.143.114-.155.106-.501-.33-.772-.359-1.03.364-.41 1.144-1.02 2.219-1.583 3.402 1.292-.575 2.524-1.119 3.75-1.675.243-.11.246-.322.137-.54-.105-.207-.214-.413-.32-.62l.095-.067M45.925 93.082l1.732 1.731c-.056.044-.102.093-.113.086-.652-.415-1.086-.09-1.537.396-.732.787-1.514 1.526-2.274 2.288-.345.346-.355.626-.009 1.041.626.75 1.289.998 2.186.52.1-.051.285-.192.41.02.13.215-.087.294-.185.362-.323.226-.647.443-.9.749-.156.187-.262.075-.38-.045-.949-.95-1.9-1.899-2.846-2.851-.073-.072-.235-.147-.118-.276.106-.114.27-.096.365.028.337.44.576.19.85-.09.837-.854 1.67-1.712 2.54-2.53.384-.36.559-.685.243-1.156-.042-.062-.137-.164.036-.273" fill="#FEFEFE"/></g></svg>