<svg width="837" height="607" xmlns="http://www.w3.org/2000/svg" xmlns:xlink="http://www.w3.org/1999/xlink"><defs><path id="a" d="M.084.476h835.734v329.84H.084z"/></defs><g fill="none" fill-rule="evenodd"><path d="M145.65 192.252c2.674-5.906 5.17-10.074 7.486-12.512 4.175-4.321 9.342-6.927 15.505-7.819 5.298-.78 10.466-.03 15.49 2.247 4.526 2.049 8.194 5.049 11 8.994 3.637 5.232 5.322 10.767 5.046 16.598-.175 3.513-1.439 7.86-3.79 13.054l-3.042 6.721 18.091 8.202 3.33-7.355c3.056-6.743 4.866-12.791 5.423-18.144.956-9.914-1.48-19.475-7.305-28.68-5.103-8.014-11.994-13.985-20.664-17.914-8.922-4.042-18.204-5.17-27.849-3.379-10.262 1.917-18.647 6.271-25.154 13.065-4.005 4.148-7.602 9.761-10.81 16.84l-2.99 6.598 18.098 8.195 2.135-4.71M206.802 237.978l-86.021-38.97-8.402 18.537 86.02 38.969 8.403-18.536M241.986 81.484c6.595 1.087 12.18 4.095 16.745 9.015 3.102 3.333 5.3 7.224 6.601 11.663 1.27 4.343 1.498 8.81.676 13.4-.707 4.17-2.415 8.206-5.132 12.108l13.989 15.066c2.857-3.342 5.096-6.744 6.722-10.198 4.612-9.429 6.135-19.348 4.566-29.753-1.551-10.049-5.767-18.78-12.655-26.191-4.914-5.29-10.738-9.327-17.468-12.114-6.67-2.718-13.55-3.95-20.655-3.692-10.038.41-19.285 3.602-27.738 9.573l13.994 15.057c6.836-3.717 13.625-5.029 20.355-3.934M200.662 144.243c5.079 5.459 11.088 9.57 18.046 12.334 6.804 2.658 13.856 3.796 21.16 3.415 9.784-.547 18.673-3.718 26.657-9.513l-13.993-15.061c-6.582 3.86-13.444 5.184-20.593 3.976-6.433-1.116-11.872-4.063-16.321-8.851-3.283-3.54-5.575-7.655-6.861-12.36-1.116-4.236-1.301-8.49-.556-12.759.7-3.976 2.398-8.061 5.09-12.258l-13.994-15.061c-2.83 3.442-5.084 6.89-6.775 10.343-4.793 9.972-6.244 20.203-4.357 30.685 1.732 9.633 5.899 18.003 12.497 25.11M353.178 31.61l11.02-17.08c-5.65-3.91-11.897-6.494-18.74-7.762-6.378-1.038-12.887-.892-19.521.446l6.616 19.46c7.326-1.033 14.2.613 20.625 4.937M351.324 81.86l6.618 19.465c12.589-5.985 21.258-15.757 26.02-29.327l-19.216-6.576c-2.456 7.199-6.933 12.676-13.422 16.437" fill="#121B2C"/><g fill="#121B2C"><path d="M300.947 91.197c5.468 5.523 11.915 9.55 19.335 12.08 8.424 2.916 17.405 3.479 26.947 1.69l-6.592-19.399c-8.522.665-15.769-1.218-21.747-5.648-4.947-3.707-8.404-8.436-10.358-14.182-1.319-3.873-1.796-7.936-1.446-12.184.396-4.411 1.643-8.452 3.743-12.13 2.39-4.261 6.058-7.964 11.015-11.106l-6.619-19.464c-12.978 6.7-21.642 16.495-26 29.392-3.614 10.651-3.596 21.334.041 32.042 2.462 7.23 6.35 13.532 11.68 18.91M423.294 1.411L402.967.367l-4.834 94.314 20.32 1.041 4.841-94.31"/></g><path fill="#121B2C" d="M485.845 4.619L460.909 3.34l-15.725 19.64 11.81 17.596 28.85-35.957M481.905 98.976l-44.164-66.847-13.295 16.725 32.45 48.84 25.009 1.282M584.45 87.37l-32.441-18.174-9.676 17.274 32.442 18.17 9.674-17.27M560.235 30.947l-17.756-9.944-46.15 82.393 17.752 9.945 46.154-82.394M602.724 54.746l-32.441-18.168-9.673 17.272 32.438 18.169 9.676-17.273M566.245 119.868l-32.44-18.173-9.673 17.276 32.442 18.17 9.671-17.273M650.605 128.524c2.729 3.174 4.245 5.814 4.542 7.924.415 2.736-.548 5.112-2.88 7.12-2.827 2.434-5.824 2.858-8.997 1.283-1.7-.844-3.843-2.766-6.419-5.764l-4.321-5.019-15.055 12.963 5.038 5.852c4.263 4.949 8.134 8.286 11.627 10.02 5.34 2.682 11.048 3.5 17.13 2.455 5.348-.904 10.046-3.095 14.088-6.574 4.326-3.72 7.276-8.327 8.865-13.814 1.729-6.098 1.425-12.088-.907-17.972-1.378-3.363-4.164-7.487-8.368-12.363l-4.179-4.864-15.114 13.003 4.95 5.75M616.274 158.432l-15.254 26.69 14.04 16.314 17.698-30.614c-5.57-2.245-11.069-6.374-16.484-12.39M581.715 162.694l71.585-61.603-13.278-15.424-71.579 61.602 13.272 15.425M665.959 197.43c-1.318 3.988-1.512 8.881-.58 14.677l20.468.806c-.648-3.19-.967-5.268-.95-6.235.022-3.149 1.397-5.343 4.114-6.586 1.675-.764 3.362-.955 5.057-.567 2.384.479 4.115 1.885 5.188 4.227 1.764 3.85.332 7.207-4.272 10.069l8.74 19.139c8.891-4.67 14.211-11.3 15.954-19.881 1.148-5.882.408-11.711-2.236-17.484-3.455-7.575-8.948-12.622-16.47-15.15-6.817-2.296-13.609-1.896-20.389 1.2-7.36 3.365-12.233 8.623-14.624 15.786"/><path d="M646.19 254.926c7.774 2.516 15.441 2.047 23.017-1.415 11.837-5.409 17.73-15.03 17.678-28.86l-20.28-.896c.048 2.757-.29 4.887-1.027 6.384-1.043 2.248-2.78 3.926-5.205 5.033-2.636 1.207-5.317 1.417-8.047.644-3.079-.867-5.315-2.832-6.71-5.883-1.413-3.095-1.454-6.112-.118-9.05.921-2.087 2.786-4.027 5.61-5.822l-8.346-18.257c-9.457 4.977-15.21 12.184-17.27 21.616-1.516 6.762-.816 13.32 2.087 19.678 3.82 8.368 10.023 13.975 18.612 16.828M724.301 231.38h2.289c1.455 0 1.996.352 1.996 1.304 0 1.108-.761 1.323-2.076 1.323l-2.209-.008v-2.62zm0 4.118h1.588l2.578 4.185h2.078l-2.775-4.23c2.142-.277 2.61-1.626 2.61-2.752 0-1.856-1.112-2.722-3.509-2.722h-4.263v9.704h1.693v-4.185z" fill="#121B2C"/><path d="M726.15 227.781c4.038 0 6.98 3.162 6.98 7.21 0 4.011-2.942 7.163-6.98 7.163-4 0-6.987-3.152-6.987-7.163 0-4.048 2.986-7.21 6.987-7.21zm-8.869 7.21a8.858 8.858 0 0 0 8.87 8.872 8.85 8.85 0 0 0 8.866-8.872c0-4.907-3.961-8.88-8.867-8.88-4.895 0-8.869 3.973-8.869 8.88zM533.484 248.511c7.93 0 14.295-6.293 14.295-14.056 0-7.78-6.366-14.075-14.295-14.075-5.095 0-9.54 2.686-12.047 6.69-8.211-.445-27.576-.732-39.087-.911.637 5.073.9 10.35.616 15.687 14.475-.125 34.047-.228 38.345-.248 2.48 4.12 6.984 6.913 12.173 6.913M486.197 475.866c3.043 5.376 5.505 11.796 7.605 19.21 9.097-4.253 18.979-9.818 28.107-16.395 3.285-2.355 26.283-21.981 29.268-24.43 6.48-5.323 15.805-4.154 20.649-1.875 2.465.966 7.126 4.178 8.887 5.626l-3.54-61.976-56.163 17.528c2.52 2.296 6.221 5.983 7.271 8.476 3.381 5.552 4.234 15.418 2.148 20.08-4.971 9.83-21.575 24.89-44.232 33.756M305.453 442.11c-2.087-4.66-1.236-14.528 2.146-20.08 1.048-2.493 4.752-6.18 7.27-8.474l-56.16-17.531-3.541 61.977c1.761-1.447 6.42-4.66 8.886-5.624 4.845-2.28 14.168-3.448 20.647 1.874 2.985 2.449 25.985 22.076 29.273 24.429 49.422 35.613 103.966 33.503 103.966 33.503s18.839 1.462 47.03-6.703c-1.125-8.09-4.272-17.106-8.251-22.394-6.602.978-13.934 1.695-20.25 1.69-.78 0-2.284-.493-2.33-2.313 0-.242-.138-7.059-.366-18.223-7.242-3.809-17.892-8.922-31.363-14.772-.404 19.69-.668 32.659-.668 32.995-.046 1.82-1.554 2.313-2.332 2.313-9.313.012-20.874-1.542-28.967-3.204-5.899-1.212-11.989-2.514-20.298-5.516-22.895-8.845-39.69-24.053-44.692-33.947M433.587 242.487l.158-.008c2.1-.058 5.582-.164 9.297-.26 3.282-.037 7.114-.074 11.244-.113.494-5.42.043-10.944-.917-16.229-8.35-.04-15.74-.042-19.623-.042h-.708a4.232 4.232 0 0 1-4.23-4.232l-.004-.137-.417-20.472c0-2.324-5.093-3.359-10.448-3.255-5.35-.104-10.48.93-10.48 3.255l-.418 20.465.003.144a4.232 4.232 0 0 1-4.232 4.232l-.676.002h-1.458c-6.01 0-63.823-.073-86.301 1.236a14.273 14.273 0 0 0-12.134-6.693c-7.83 0-14.21 6.295-14.21 14.075 0 7.763 6.38 14.056 14.21 14.056 5.253 0 9.772-2.793 12.26-6.913 6.935.049 57.43.403 78.335.62 3.716.097 7.196.203 9.298.26l.162.009a4.233 4.233 0 0 1 4.231 4.232l-.004.234c-.018 1.26-.059 3.931-.12 7.715l-.724 36.074c-.745 36.141-1.81 87.495-2.64 127.962 9.813 4.089 20.417 8.748 30.074 13.322-.862-41.93-2.082-101.038-2.916-141.284l-.727-36.074c-.059-3.784-.098-6.455-.115-7.715l-.002-.234a4.232 4.232 0 0 1 4.232-4.232" fill="#121B2C"/><path d="M335.09 254.432a5.97 5.97 0 0 0-7.122 4.537 5.97 5.97 0 0 0 4.535 7.122c5.684 1.263 11.433 2.475 17.206 3.699 15.73 3.326 31.698 6.746 47.205 11.268l.249-12.404c-14.875-4.174-30.04-7.387-44.983-10.547-5.733-1.213-11.444-2.42-17.09-3.675M443.135 300.126l8.51-8.814c1.8-2.038 3.55-4.154 5.23-6.343 16.2-21.103 24.483-51.295 11.115-83.537a97.743 97.743 0 0 0-2.406-5.347l-.102-.197c-6.264-12.716-12.612-19.971-12.612-19.971l-.873-1.11c-4.409-5.532-9.533-11.067-15.446-16.572a5.977 5.977 0 0 0-8.44.301 5.969 5.969 0 0 0 .303 8.44 130.239 130.239 0 0 1 12.873 13.833l2.077 2.672c8.56 11.64 10.937 17.657 10.937 17.657l.81 1.681a86.563 86.563 0 0 1 1.688 3.862c9.065 22.127 8.904 47.177-9.396 71.013a113.573 113.573 0 0 1-6.416 7.62l-1.825 2.005c.084 4.042.172 11.745.263 16.135 1.236-1.111 2.499-2.178 3.71-3.328M462.133 298.603l-7.594 9.214c11.144 8.584 18.524 18.303 21.858 29.013 9.228 29.6-9.86 50.126-34.9 67.097l.291 14.074c30.962-19.708 58.379-45.045 46.017-84.72-4.053-13.009-12.722-24.617-25.672-34.678" fill="#121B2C"/><path d="M417.964 188.661a34.79 34.79 0 0 0 17.374-4.623l-9.19-9.339a22.385 22.385 0 0 1-8.184 1.537c-12.41 0-22.467-10.063-22.467-22.474 0-12.407 10.058-22.469 22.467-22.469 12.21 0 22.145 9.74 22.466 21.873.006.197.006.399.006.596l10.92 10.174a34.827 34.827 0 0 0 1.505-10.174c0-19.27-15.622-34.894-34.897-34.894-19.272 0-34.892 15.624-34.892 34.894 0 19.274 15.62 34.9 34.892 34.9" fill="#121B2C"/><g transform="translate(.375 275.8)"><mask id="b" fill="#fff"><use xlink:href="#a"/></mask><path d="M395.482 170.996l-12.175-5.557c-11.516 8.78-19.489 19.173-24.802 28.835 2.824.774 8.968 2.528 12.093 3.244 6.204-11.044 21.273-24.663 24.884-26.522" fill="#121B2C" mask="url(#b)"/><path d="M626.527 255.89c-15.74 14.366-47.507 41.138-85.253 60.874l-.003.006c-.333.168-.783.03-.99-.325a1342.6 1342.6 0 0 0-6.824-11.428 275.217 275.217 0 0 0 36.575-20.706 12.54 12.54 0 0 0 5.36-8.202c.616-3.365-.166-6.9-2.145-9.692l-18.455-26.043a823.355 823.355 0 0 0 27.15-18.85l1.12 34.25 43.465.117zm-99.336 38.858a257.872 257.872 0 0 1-11.063 4.813c-30.468 12.42-62.933 18.897-95.959 18.897-33.772 0-67.634-6.768-99.947-19.753-3.727-1.499-7.44-3.052-11.122-4.716a296.396 296.396 0 0 1-34.958-18.722.679.679 0 0 1-.302-.441.852.852 0 0 1 .115-.643l31.847-48.625a.784.784 0 0 1 .654-.34c.168 0 .346.049.51.154 72.036 44.472 154.936 44.614 221.747.378.35-.237.889-.267 1.179.139l33.612 47.432c.175.249.167.51.14.638a.656.656 0 0 1-.277.444 263.287 263.287 0 0 1-36.176 20.345zm-231.655 21.698c-.206.354-.66.487-.987.324l-.004-.006c-37.747-19.736-69.515-46.508-85.252-60.873l43.463-.117 1.119-34.25a824.026 824.026 0 0 0 27.713 19.216l-17.622 26.902a12.695 12.695 0 0 0-1.788 9.748 12.544 12.544 0 0 0 5.638 8.007 309.052 309.052 0 0 0 35.02 18.841 1387.283 1387.283 0 0 0-7.3 12.208zM832.073 3.608C830.29 1.82 828.64.64 826.32.524L539.692.479 534.8.476c-18.693 0-33.85 15.155-33.85 33.852l.076 3.573c0 38.259-.092 121.443-.072 143.818 3.008-1.676 9.429-5.676 12.376-8.237 1.937-1.717 4.78-4.895 5.843-6.123 5.715-6.395 2.824-13.936-.364-18.41-2.086-3.488-4.3-6.006-7.652-9.825l-5.278-5.88s50.037-15.654 68.806-21.628l.16-.05a603.19 603.19 0 0 0 6.121-1.974l.005-.001 4.648-1.498.64 11.426-.002.003 4.46 79.482-.126-.126s-11.435-8.752-16.517-11.865c-1.55-.947-3.105-1.75-4.667-2.37-2.44-1.102-4.535-1.531-6.684-1.188-.25.025-.493.086-.736.13-.019.005-.038.005-.058.011-.992.17-1.975.448-2.93.94-.935.482-2.442 1.598-4.267 3.082-.56.444-1.144.923-1.753 1.434-.409.347-.847.732-1.285 1.117-5.821 5.004-13.267 11.922-17.698 15.747-1.085.902-2.205 1.81-3.368 2.726-6.628 5.15-14.792 10.71-21.129 14.45-1.323.77-2.667 1.532-4.057 2.283h.022l-4.515 2.44v.116c-5.072 2.529-10.187 4.888-15.37 6.92-.002-.274.017-.548.012-.824-.233-13.019-4.296-26.298-12.345-37.628-13.941-19.634-36.963-29.935-58.062-38.67l-13.898-5.77a307.575 307.575 0 0 1-5.064-2.212c-4.064-1.819-7.574-3.55-10.738-5.29-1.08-.593-2.153-1.2-3.217-1.828-11.905-7.014-18.908-14.378-21.413-22.509-5.111-16.617 5.383-31.979 15.092-41.941 5.96-6.118 12.602-11.682 19.44-16.961.108-5.155.215-10.224.317-15.19-9.807 7.228-19.594 14.872-28.31 23.817-17.155 17.603-23.364 36.2-17.953 53.789 3.422 11.11 12.176 20.685 26.762 29.282 1.164.685 2.337 1.35 3.526 2.004a154.342 154.342 0 0 0 9.156 4.604l13.322 5.771c1.497.619 2.99 1.238 4.466 1.844 21.638 8.903 44.016 18.116 56.836 36.177 6.793 9.561 10.158 20.768 10.18 31.645.005 1.369-.145 2.756-.23 4.137-49.362 15.457-102.634 8.894-152.603-19.504-5.218-3.354-10.769-7.147-15.666-10.952a160.094 160.094 0 0 1-3.367-2.729c-4.431-3.822-11.875-10.74-17.698-15.744-.438-.384-.873-.769-1.285-1.117-.609-.513-1.19-.99-1.753-1.434-1.822-1.482-3.332-2.598-4.267-3.081-.955-.493-1.939-.769-2.929-.94-.023-.007-.039-.007-.056-.012-.243-.042-.492-.105-.739-.13-2.147-.345-4.245.088-6.683 1.188-1.56.622-3.121 1.423-4.668 2.369-5.082 3.115-16.52 11.865-16.52 11.865l-.125.127 4.462-79.482-.001-.003.638-11.426 4.651 1.498.003.001c1.057.353 3.22 1.049 6.123 1.974l.159.052-.002-.003c18.77 5.975 68.805 21.626 68.805 21.626l-5.277 5.883c-3.353 3.819-5.57 6.337-7.648 9.825-3.19 4.471-6.083 12.015-.37 18.411 1.067 1.228 3.909 4.405 5.847 6.122 2.947 2.561 9.367 6.56 12.376 8.237.018-22.374-.073-105.56-.073-143.82l.074-3.571c0-18.697-15.154-33.852-33.85-33.852l-4.888.003L9.498.525C7.179.641 5.528 1.82 3.744 3.608-2.71 9.863.864 22.17 2.157 25.41 6.072 36.092 17.598 45.347 28.52 46.907h151.244c.514.045 3.155.462 4.728 2.727 1.164 1.578 2.478 3.874 2.273 7.622l-.173 3.332-113.603-.002c-3.324.181-5.66 2.088-7.499 4.816-5.113 7.231-1.015 18.242.398 21.511 3.889 9.555 14.04 17.993 23.538 20.047h110.961c.52.046 3.166.462 4.742 2.727 1.158 1.586 2.47 3.871 2.272 7.62l-.182 3.331h-71.114c-3.324.183-5.663 2.089-7.499 4.819-5.114 7.23-1.015 18.24.397 21.51 3.89 9.554 14.039 18.003 23.54 20.057l68.588.028c.512.04 3.165.465 4.733 2.722 1.162 1.573 2.478 3.87 2.273 7.621l-.173 3.328-23.82-.011c-7.736 0-10.086 4.425-11.783 7.643-2.292 4.338-2.513 10.242.468 19.195 4.005 9.582 13.969 17.797 22.803 19.564h26.113l-.546 16.75-60.905.166 9.838 10.1c1.745 1.789 43.339 44.174 98.88 73.218a12.58 12.58 0 0 0 5.85 1.442c4.364 0 8.596-2.261 10.963-6.28 2.597-4.4 5.322-8.955 8.057-13.468 34.29 14.053 70.327 21.358 106.288 21.358 35.237 0 69.862-7.036 102.272-20.528 2.565 4.242 5.118 8.51 7.553 12.64a12.728 12.728 0 0 0 10.967 6.277c1.974 0 3.982-.462 5.848-1.441 55.54-29.044 97.135-71.43 98.88-73.219l9.836-10.1-60.906-.164-.546-16.75h26.113c8.834-1.767 18.8-9.985 22.806-19.565 2.978-8.953 2.758-14.854.465-19.193-1.696-3.218-4.045-7.645-11.783-7.645l-23.818.013-.176-3.331c-.203-3.75 1.114-6.047 2.273-7.62 1.567-2.258 4.223-2.683 4.735-2.722l68.589-.028c9.498-2.054 19.65-10.503 23.541-20.058 1.411-3.269 5.509-14.281.395-21.51-1.837-2.73-4.176-4.636-7.499-4.82H628.6l-.182-3.33c-.199-3.746 1.116-6.031 2.272-7.619 1.577-2.265 4.224-2.68 4.743-2.728h110.959c9.499-2.051 19.652-10.49 23.54-20.046 1.41-3.269 5.511-14.281.396-21.51-1.836-2.728-4.174-4.636-7.499-4.818l-113.601.003-.175-3.334c-.206-3.745 1.107-6.043 2.273-7.621 1.575-2.265 4.217-2.681 4.73-2.727h151.241c10.922-1.559 22.448-10.814 26.361-21.496 1.296-3.241 4.872-15.547-1.585-21.802z" fill="#121B2C" mask="url(#b)"/></g><path fill="#121B2C" d="M303.12 553.168l16.113 7.35 2.737-5.998-9.51-4.338 2.681-5.87 6.958 3.179 2.736-5.999-6.958-3.175 2.26-4.958 9.132 4.164 2.735-5.996-15.736-7.18-13.147 28.821M350.134 537.152c-5.869-1.802-10.39.406-12.079 5.905-1.49 4.858 1.799 8.22 4.703 11.185 2.177 2.226 4.058 4.15 3.437 6.175-.504 1.654-1.883 2.412-3.517 1.899-1.36-.419-2.68-2.012-2.309-5.23l.093-.76-7.33-.644-.036.78c-.329 7.717 3.878 10.647 7.466 11.746 1.386.426 2.722.636 3.98.636 1.462 0 2.817-.286 4.019-.854 2.221-1.056 3.831-3.024 4.65-5.687 1.763-5.755-2.023-9.576-5.068-12.642-1.852-1.866-3.452-3.479-3.036-4.834.346-1.115 1.169-2.32 3.074-1.732 1.148.354 2.226 1.137 2.319 4.421l.018.713 6.816.106.048-.71c.34-5.06-2.37-8.975-7.248-10.473M366.184 548.915l6.615 1.225-4.566 24.652 7.139 1.32 4.564-24.652 6.616 1.226 1.197-6.479-20.367-3.773-1.198 6.48M389.94 578.21l7.397.75.75-7.393-7.393-.75-.754 7.393M435.037 547.184l-.547.836c-1.054 1.654-1.815 2.85-5.492 3.877l-.588.165.355 4.654 4.629-.364 1.789 23.009 6.735-.52-2.482-32.001-4.399.344M464.8 558.454c-2.33.455-3.811-.707-4.34-3.368-.3-1.533-.226-2.827.22-3.74.43-.886 1.233-1.453 2.382-1.68.451-.089.857-.132 1.221-.132.752 0 1.325.193 1.795.595.808.69 1.41 2.08 1.837 4.253l.262 1.312c-.993 1.323-2.015 2.487-3.377 2.76zm9.87-6.048c-.655-3.326-2.155-5.902-4.342-7.449-2.238-1.589-5.171-2.089-8.48-1.427-3.449.68-5.905 2.268-7.292 4.71-1.278 2.24-1.592 5.068-.928 8.413.51 2.59 1.736 4.799 3.454 6.207 1.913 1.577 4.327 2.128 6.988 1.605 1.904-.377 3.712-1.325 5.294-2.761l.273 1.369c.906 4.585-.252 5.72-2.7 6.203-1.642.327-3.173-.614-3.55-2.188l-.166-.697-6.905 1.364.215.778c1.281 4.596 4.573 7.144 9.03 7.144.824 0 1.69-.087 2.59-.264 3.31-.654 5.836-2.225 7.3-4.545 1.428-2.26 1.841-5.218 1.182-8.541l-1.963-9.92zM498.092 561.036c-2.527.843-4.007.15-4.8-2.236-.373-1.116-.345-2.161.078-3.024.425-.865 1.232-1.512 2.342-1.886 2.244-.746 4.12.198 4.879 2.477.795 2.388.028 3.832-2.5 4.669zm-6.722-13.222a3.023 3.023 0 0 1-1.537-1.776c-.273-.812-.232-1.658.114-2.383.354-.738 1.005-1.3 1.83-1.575 1.675-.553 3.362.301 3.928 2a3.002 3.002 0 0 1-.17 2.341 3.105 3.105 0 0 1-1.803 1.539 3.109 3.109 0 0 1-2.362-.146zm10.153.65c1.228-1.94 1.508-4.56.683-7.036-.907-2.716-2.632-4.61-4.99-5.48-2.126-.777-4.688-.713-7.42.199-2.732.911-4.826 2.394-6.057 4.294-1.364 2.107-1.61 4.663-.703 7.379.826 2.475 2.621 4.402 4.77 5.218-1.835 2.11-2.21 4.84-1.112 8.135.966 2.904 2.81 4.952 5.326 5.926a9.992 9.992 0 0 0 3.6.644c1.41 0 2.906-.26 4.449-.772 2.947-.982 5.202-2.618 6.52-4.727 1.426-2.289 1.672-5.031.706-7.936-1.1-3.299-3.038-5.26-5.772-5.844zM527.975 548.923c-2.247 1.09-3.853.867-5.877-3.349l-.581-1.206c.63-1.53 1.33-2.912 2.583-3.517 2.125-1.014 3.868-.269 5.038 2.177.68 1.41.93 2.68.724 3.676-.2.97-.83 1.717-1.887 2.22zm2.496-14.266c-2.253-1.053-4.728-.98-7.165.19-1.753.848-3.27 2.211-4.438 3.996l-.604-1.257c-.96-1.995-1.309-3.466-1.078-4.5.2-.894.861-1.565 2.142-2.18 1.505-.726 3.222-.194 3.98 1.235l.337.63 6.346-3.046-.4-.696c-2.834-4.901-7.69-6.303-12.972-3.763-3.039 1.462-5.093 3.61-5.931 6.22-.824 2.551-.48 5.513.984 8.568l4.376 9.118c2.118 4.403 5.418 6.72 9.3 6.72 1.686 0 3.48-.436 5.336-1.33 6.079-2.917 7.785-8.296 4.684-14.756-1.145-2.381-2.884-4.21-4.897-5.149z"/></g></svg>