<svg width="1035" height="567" xmlns="http://www.w3.org/2000/svg"><g fill="none" fill-rule="evenodd"><path d="M0 502.115v-64.384h88.05v24.055H27.516v29.716h52.28v22.641h-52.28V566.5H0v-64.385zM99.056 502V437.5l38.866.5c42.817.55 43.956.757 53.986 9.814 7.382 6.667 10.725 15.136 10.654 26.981-.076 12.46-3.983 21.09-12.264 27.094l-6.024 4.367 4.526 2.388c7.264 3.834 10.748 11.93 12.295 28.576.738 7.931 2.144 17.766 3.123 21.851L206 566.5h-13.426c-11.172 0-13.572-.39-14.292-2.32-.476-1.274-1.477-8.399-2.227-15.83-1.78-17.64-3.29-23.042-7.612-27.224-3.364-3.254-4.622-3.47-22.716-3.906l-19.155-.46v49.74H99.056V502zm71.602-9.553c5.319-2.695 7.216-6.438 7.34-14.482.11-7.242-3.019-12.786-8.889-15.742-2.145-1.081-9.894-1.687-21.722-1.7L129 460.5v34h18.803c14.056 0 19.824-.518 22.855-2.054zM218 502.16v-64.34h95.363v24.039h-67.315v28.28h61.705v21.211h-61.705v31.11h68.717v24.039H218v-64.34zm106.582-.16v-64.5l34.008.673c37.906.748 42.74 1.645 55.064 10.204 8.625 5.988 15.257 14.867 19.356 25.908 2.543 6.847 2.998 11.095 2.99 27.875-.009 17.304-.414 20.818-3.219 27.91-4.846 12.26-11.295 20.976-19.848 26.836-12.15 8.321-19.632 9.594-56.39 9.594h-31.96V502zm74.9 36.117c3.745-2.646 7.635-7.208 9.869-11.575 3.339-6.521 3.685-8.798 3.646-23.927-.037-14.622-.475-17.607-3.484-23.776-6.458-13.24-17.943-18.339-41.31-18.339H356v83l18.652-.508c18.026-.492 18.856-.654 24.83-4.875z" fill="#1C1C24" fill-rule="nonzero"/><path d="M476 502.001V437.5l34.829.63c28.018.509 36.083 1.097 41.241 3.012 18.32 6.804 28.281 26.787 23.906 47.961-2.568 12.44-8.795 20.607-20.036 26.282-9.134 4.612-10.056 4.778-30.607 5.51l-21.188.754V566.5H476v-64.499zm66.171-8.222c5.384-3.159 7.934-8.375 7.826-16.01-.196-13.82-7.747-18.269-31.018-18.269H504v38l16.794-.517c13.382-.409 17.724-1.06 21.377-3.204z" fill="#1C1C24"/><path d="M582 502.116v-64.383h94.936v24.055h-67.114l.399 13.797.4 13.796 30.365.382 30.365.382v21.169h-61.429v31.13h68.41v24.055H582v-64.383zm107.5-.117V437.5l38.846.47 38.844.471 8.093 4.245c9.928 5.207 15.535 12.664 17.82 23.708 3.135 15.145-2.458 29.981-13.874 36.809l-4.82 2.882 3.967 1.714c9.076 3.92 12.635 12.245 14.35 33.572.706 8.762 1.955 17.723 2.779 19.913.822 2.192 1.495 4.26 1.495 4.6 0 .337-6.232.616-13.85.616H769.3l-.813-3.891c-.447-2.141-1.438-10.127-2.201-17.75-1.503-14.999-3.482-20.344-9.236-24.93-3.338-2.661-5.556-2.954-22.366-2.954h-18.657V566.5H689.5v-64.501zm74.025-12.092c7.25-8.338 5.407-22.65-3.48-27.038-3.835-1.892-8.4-2.364-22.917-2.366L719 460.5v34l20.644-.435c20.6-.434 20.652-.443 23.881-4.158z" fill="#1C1C24" fill-rule="nonzero"/><path d="M812 501.999V437.5l39.503.5c43.51.55 44.678.758 54.855 9.801 7.625 6.776 10.448 13.944 10.486 26.627.038 13.36-3.46 21.29-12.107 27.46l-6.123 4.367 4.6 2.389c7.768 4.034 10.867 11.698 12.987 32.102 1.026 9.883 2.527 19.723 3.334 21.863L921 566.5h-27.79l-1.312-5.306c-.723-2.918-1.709-10.068-2.19-15.89-1.131-13.62-3.178-20.365-7.407-24.39-3.146-2.993-4.84-3.268-22.867-3.694l-19.467-.461v49.74H812v-64.5zm69.476-9.475c7.424-3.766 10.063-17.89 4.673-25.012-4.628-6.114-8.032-6.971-27.775-6.993L840 460.5v34h18.79c13.718 0 19.84-.533 22.686-1.976zM959.821 542.194v-24.306l-23.612-39.13c-12.985-21.522-23.875-39.61-24.198-40.195-.324-.585 6.64-1.063 15.471-1.063h16.06l14.658 24.808c8.061 13.644 15.074 24.795 15.585 24.779.51-.014 7.352-11.017 15.203-24.453l14.276-24.425 15.867-.401c8.727-.22 15.869-.172 15.869.107 0 .28-10.851 18.537-24.114 40.57l-24.115 40.061V566.5h-26.95v-24.306z" fill="#1C1C24"/><path d="M247.473 394.19c-1.972-1.771-7.15-8.578-11.51-15.129-4.36-6.549-9.553-12.833-11.542-13.961-3.4-1.93-3.942-1.79-9.042 2.33-2.985 2.41-9.102 9.165-13.596 15.016-7.932 10.327-10.314 11.9-14.207 9.384-2.89-1.867.876-6.694 15.032-19.269 14.957-13.288 14.615-16.054-1.064-8.586-15.108 7.195-24.907 9.559-43.113 10.392-15.25.699-23.431-.547-23.431-3.564 0-.697 4.256-3.546 9.458-6.336 20.147-10.794 49.38-13.926 68.384-7.326l9.615 3.34 6.235-3.176c11.782-6.001 25.868-7.973 43.922-6.153 18.694 1.885 43.583 10.75 45.321 16.146 1.36 4.223-18.97 6.746-37.523 4.656-12.43-1.4-22.01-4.095-41.756-11.745-4.43-1.72-6.61-1.919-8.657-.801-2.53 1.38-1.843 2.514 9.167 15.122 6.547 7.497 12.769 14.138 13.826 14.755 2.463 1.44 2.459 4.402-.007 6.489-1.51 1.28-2.701.937-5.512-1.584zM99.74 357.49c-3.824-1.032-8.48-2.78-10.346-3.886L86 351.588l3.76-3.541c12.268-11.556 57.297-15.586 75.518-6.76l6.722 3.258-4.153 2.849c-14.735 10.112-49.115 15.208-68.108 10.095z" fill="#96825C"/><path d="M197.942 354.607C175.075 346.745 143 316.342 143 302.532c0-3.297.36-3.481 4.996-2.537 5.774 1.174 20.645 9.09 27.562 14.67 13.215 10.661 25.842 26.785 29.728 37.96 1.624 4.672.985 4.845-7.344 1.982zM298.937 352.121c-7.618-1.429-18.36-5.303-23.441-8.459L272 341.491l7.691-3.919c13.933-7.1 35.652-9.032 56.022-4.986 10.461 2.078 22.287 7.457 22.287 10.137 0 2.222-11.33 7.706-19.467 9.425-8.587 1.815-29.855 1.8-39.596-.027zM230.364 348.301c5.456-14.714 25.526-33.211 47.353-43.645 10.28-4.915 21.283-6.76 21.283-3.573 0 6.553-14.537 23.089-28.835 32.8-10.902 7.405-27.192 14.978-34.728 16.143-5.523.857-5.973.701-5.073-1.725zM88.38 329.593c-17.6-2.591-40.072-12.543-42.296-18.732-.83-2.31 4.546-4.51 14.753-6.038 8.94-1.339 30.115 1.64 43.193 6.073 10.608 3.596 24.97 12.195 24.97 14.95-.001 3.716-25.11 6.03-40.62 3.747zM321.32 325.148c-7.146-1.155-7.106-2.803.2-8.057 15.533-11.17 41.49-18.395 62.947-17.52 14.267.586 17.195 2.315 12.394 7.32-8.944 9.326-34.623 17.653-56.884 18.443-7.894.28-16.29.197-18.658-.186zM133.54 320.76c-10.27-6.986-21.37-20.536-29.916-36.513-6.084-11.378-7.708-15.935-8.352-23.436-.438-5.12-.336-9.311.228-9.311 6.133 0 23.219 16.247 32.186 30.608 7.869 12.602 13.856 29.416 13.275 37.285l-.452 6.107-6.97-4.74zM304 318.055c0-12.304 7.897-32.074 19.009-47.589 6.715-9.376 21.593-22.966 25.143-22.966 3.576 0 1.677 15.619-3.25 26.766-7.841 17.73-26.486 40.68-37.651 46.345-3.006 1.528-3.251 1.335-3.251-2.556zM94.469 307.183c-16.361-5.695-33.75-17.188-45.135-29.835-6.644-7.38-10.778-15.479-8.865-17.365 2.097-2.068 17.587 2.795 28.646 8.993 12.977 7.274 30.216 22.898 35.736 32.386 2.274 3.913 4.142 7.585 4.149 8.162.024 1.843-4.69 1.083-14.531-2.34zM341.495 295.494c6.077-19.828 41.702-50.11 62.897-53.467 6.022-.954 6.165-.884 5.1 2.528-3.64 11.639-14.298 24.69-29.26 35.832-10.964 8.163-26.459 16.118-34.198 17.555-5.399 1.003-5.569.91-4.54-2.448zM80.441 262.09c-11.623-16.514-18.147-39.454-17.38-61.105.56-15.854 2.164-19.094 7.269-14.682 4.753 4.11 13.809 24.114 16.65 36.78 2.81 12.53 2.651 41.173-.243 44.002-1.219 1.193-2.851-.101-6.296-4.996zM353.826 257.208c-2.73-7.742-2.316-36.826.689-48.344 3.47-13.298 11.84-29.919 14.783-29.35 8.544 1.652 7.203 42.813-2.13 65.343-2.89 6.976-9.255 17.639-10.53 17.643-.52 0-1.786-2.381-2.812-5.292zM54.139 253.952c-22.77-7.939-50.144-30.83-53.65-44.866-.99-3.963-.98-3.969 4.969-3.166 8.748 1.179 27.534 10.787 38.825 19.855 9.844 7.908 18.004 17.427 22.396 26.125L69 256.5l-3.909-.045c-2.15-.026-7.079-1.152-10.952-2.503zM370 248.834c.023-3.31 7.763-16.434 14.285-24.222 11.71-13.986 32.103-28.283 43.663-30.611 4.75-.956 5.052-.793 5.052 2.728 0 5.882-10.84 21.432-22.005 31.566-15.522 14.089-41.039 26.874-40.995 20.539zM48.058 221.067c-18.317-13.993-35.216-41.237-36.849-59.4-.433-4.827-.178-8.167.624-8.167 3.717 0 15.758 10.175 23.156 19.571 13.134 16.681 23.005 39.17 21.931 49.976l-.442 4.453-8.42-6.433zM381.32 206.52c1.64-18.394 15.124-45.595 29.142-58.792 9.045-8.515 10.573-8.381 10.537.91-.06 15.861-11.935 40.38-27.464 56.71-5.31 5.584-10.41 10.152-11.336 10.152-1.258.001-1.48-2.254-.88-8.98z" fill="#96825C"/><path d="M57.37 182.174c1.633-20.529 13.176-47.013 26.096-59.868 9.437-9.39 11.534-9.157 11.534 1.28 0 18.32-13.077 48.237-27.223 62.28-4.229 4.199-8.503 7.634-9.498 7.634-1.361 0-1.587-2.815-.91-11.326zM378.93 174.48c-13.807-9.892-27.827-29.326-34.458-47.762-3.604-10.025-4.62-20.218-2.013-20.218 9.447 0 29.164 23.448 38.781 46.12 4.641 10.94 7.37 25.88 4.725 25.88-.783 0-3.95-1.808-7.035-4.02zM43.116 171.565C30.03 160.39 15.019 133.498 11.972 115.77c-2.753-16.02.222-18.312 10.48-8.077 8.712 8.692 18.636 25.077 23.26 38.399 4.245 12.235 6.573 27.182 4.546 29.204-.776.776-3.583-.69-7.142-3.73zM390.913 160.454c-1.77-4.814-.844-22.613 1.733-33.28 3.386-14.013 11.904-32.048 18.612-39.405 6.56-7.195 7.713-5.913 7.742 8.609.037 18.872-9.587 45.636-21.48 59.738-4.792 5.68-5.856 6.38-6.607 4.338zM50.596 132.032c-11.682-20.172-16.348-57.61-9.218-73.963l2.429-5.569 3.92 5.2c4.936 6.55 10.106 21.457 12.23 35.265 2.65 17.235-.088 45.535-4.406 45.535-.666 0-2.895-2.91-4.955-6.468zM382.062 122.06c-1.888-3.36-4.487-9.647-5.775-13.971-3.14-10.542-4.404-41.907-2.124-52.676 1.906-8.992 5.032-15.046 7.095-13.735 2.307 1.467 7.775 13.845 9.762 22.1 2.924 12.141 2.536 42.939-.68 53.998-1.436 4.936-3.112 9.292-3.728 9.683-.613.391-2.661-2.039-4.55-5.4zM68.463 117.479C72.306 98.161 110.006 60.5 125.501 60.5c4.78 0 4.706 1.867-.49 12.317-10.175 20.463-34.887 42.73-53.327 48.044-4.047 1.17-4.112 1.1-3.22-3.382z" fill="#96825C"/><path d="M354.599 109.685c-16.959-6.143-37.708-22.112-47.521-36.576-3.343-4.926-6.078-9.552-6.078-10.283 0-.73 2.694-1.327 5.985-1.326 11.224.001 35.322 14.367 48.79 29.084C361.602 96.95 370 109.25 370 111.42c0 1.981-7.46 1.14-15.401-1.735zM65.858 93.059c-8.446-18.83-5.467-58.213 5.744-75.928 1.611-2.547 3.837-4.631 4.944-4.631 1.107 0 3.246 3.359 4.754 7.463 3.201 8.72 3.673 38.5.785 49.66-2.51 9.694-7.45 21.24-10.837 25.323L68.299 98.5l-2.44-5.441zM353.095 79.39c-11.41-16.548-15.517-49.384-8.978-71.776 2.337-7.999 3.322-8.687 6.976-4.863 10.48 10.962 16.277 49.011 10.813 70.991-2.807 11.294-4.271 12.232-8.811 5.649zM83 76.833c.08-12.217 14.471-40.458 27.603-54.168C120.899 11.918 132 6.155 132 11.56c0 11.019-12.144 36.393-24.274 50.719C100.336 71.007 87.52 81.5 84.255 81.5c-.707 0-1.272-2.1-1.255-4.667zM341.16 71.334c-4.832-2.057-16.903-12.191-22.472-18.864-11.355-13.608-21.29-32.232-23.236-43.564-.87-5.064-.711-5.406 2.53-5.406 8.208 0 28.023 20.64 38.75 40.364C340.417 50.636 346 66.679 346 70.488c0 2.445-.769 2.58-4.84.846z" fill="#96825C"/></g></svg>