<?xml version="1.0" encoding="UTF-8"?>
<svg width="124px" height="122px" viewBox="0 0 124 122" version="1.1" xmlns="http://www.w3.org/2000/svg" xmlns:xlink="http://www.w3.org/1999/xlink">
    <!-- Generator: Sketch 52.4 (67378) - http://www.bohemiancoding.com/sketch -->
    <title>Combined Shape</title>
    <desc>Created with Sketch.</desc>
    <g id="Page-1" stroke="none" stroke-width="1" fill="none" fill-rule="evenodd">
        <g id="Desktop" transform="translate(-224.000000, -3981.000000)" fill="#323232">
            <g id="Location" transform="translate(-476.000000, 3532.000000)">
                <g id="Group" transform="translate(691.000000, 439.000000)">
                    <path d="M116.258323,28.7755733 C123.111125,35.9745155 132.537242,49.8905638 132.537242,70.7835814 C132.537242,101.873814 108.448108,132.605036 70.3602757,132.605036 C74.6264753,131.36047 77.6583426,129.326082 79.4558775,126.501873 C82.1521799,122.265559 84.4300348,120.470511 83.7556226,74.3736775 L93.951993,74.3736775 L93.951993,68.1987122 L83.7556226,68.1987122 L83.7194409,32.9439685 C84.9985099,23.004894 93.4549526,19.2501329 101.152568,19.9478206 C104.187067,20.2697649 106.861875,21.2231019 109.176993,22.8078314 C108.418124,22.6278789 107.626935,22.5326898 106.813743,22.5326898 C101.123215,22.5326898 96.510131,27.193978 96.510131,32.9439685 C96.510131,38.6939589 101.123215,43.3552472 106.813743,43.3552472 C112.50427,43.3552472 117.117354,38.6939589 117.117354,32.9439685 C117.117354,31.4617634 116.810823,30.0519005 116.258323,28.7755733 Z M26.1249705,113.02891 C19.2947571,105.832505 9.96699152,91.9795138 9.96699152,71.1698421 C9.96699152,40.0934522 33.7931476,9.73476184 72.1439574,9.73476184 C66.896956,10.9787744 63.2956051,13.7538792 61.3399046,18.0600765 C58.4063539,24.5193723 57.3746464,25.2568116 58.0121722,68.5143538 L47.7454012,68.5143538 L47.7454012,74.6865699 L58.0121722,74.6865699 L57.9770538,109.351457 C56.6891534,119.286107 48.8210458,123.001078 41.0675096,122.413589 C38.5309717,122.221394 36.5634283,121.748935 35.1648795,120.99621 C35.5137164,121.031753 35.8676625,121.04996 36.2258482,121.04996 C41.9556659,121.04996 46.6006009,116.390747 46.6006009,110.643317 C46.6006009,104.895886 41.9556659,100.236673 36.2258482,100.236673 C30.4960305,100.236673 25.8510956,104.895886 25.8510956,110.643317 C25.8510956,111.46418 25.9458444,112.262846 26.1249705,113.02891 Z" id="Combined-Shape" transform="translate(71.252117, 71.169899) rotate(-10.000000) translate(-71.252117, -71.169899) "></path>
                </g>
            </g>
        </g>
    </g>
</svg>