<?xml version="1.0" encoding="UTF-8"?>
<svg width="180px" height="187px" viewBox="0 0 180 187" version="1.1" xmlns="http://www.w3.org/2000/svg" xmlns:xlink="http://www.w3.org/1999/xlink">
    <!-- Generator: Sketch 52.4 (67378) - http://www.bohemiancoding.com/sketch -->
    <title>logo-ordesign</title>
    <desc>Created with Sketch.</desc>
    <g id="Page-1" stroke="none" stroke-width="1" fill="none" fill-rule="evenodd">
        <g id="Desktop" transform="translate(-357.000000, -4125.000000)" fill="#323232">
            <g id="Location" transform="translate(-476.000000, 3532.000000)">
                <g id="Group" transform="translate(691.000000, 439.000000)">
                    <g id="logo-ordesign" transform="translate(233.797171, 247.041809) rotate(-10.000000) translate(-233.797171, -247.041809) translate(144.797171, 154.041809)">
                        <path d="M153.188542,152.711557 C154.772628,154.635307 157.051132,156.697226 158.633452,158.938057 C158.519482,159.494279 157.963771,159.607649 157.678406,159.992045 C156.088135,158.9664 155.072129,157.368589 153.857339,155.968291 C152.727364,154.514851 151.059347,153.600804 150.227105,151.848881 C150.86233,151.433486 151.287286,150.809065 152.041781,150.508811 C154.132986,151.891395 156.603206,152.900212 159.016,153.956857 C157.658969,152.12345 155.472347,150.294471 154.048172,148.209523 C154.248723,147.516903 154.558825,146.933224 155.481182,146.963338 C157.574155,149.846304 160.340342,152.057022 162.646234,154.722991 C162.529614,155.56441 161.836963,155.827464 161.497705,156.447457 C158.621966,155.310213 155.771848,154.144626 153.188542,152.711557 Z" id="Path"></path>
                        <path d="M133.703126,166.954118 C133.367047,167.192756 132.966758,167.325486 132.554062,167.335129 C132.044938,167.144183 131.922077,166.568706 131.404998,166.38392 C130.044683,166.805409 128.602166,167.145063 128.34672,168.667349 C128.997267,171.002695 130.198481,172.788081 131.309537,174.663221 C132.758242,174.503953 133.838362,174.474035 134.655082,173.616979 C134.774407,172.481864 134.236115,172.00406 134.081433,171.141724 C133.480385,171.099487 133.272669,171.456741 132.743216,171.237637 C132.406452,170.849586 132.554062,170.430737 132.361373,169.809504 C132.825418,169.32026 133.445913,168.985885 134.272355,168.858295 C135.531022,169.952053 136.150633,171.682884 136.566063,173.616979 C136.046333,175.573072 133.760579,175.771938 132.074107,176.567398 C131.75944,176.436288 131.310421,176.439808 130.925043,176.376452 C129.739739,175.46748 129.114825,174.088624 128.248608,172.569857 C127.463708,171.189241 126.821116,170.046206 126.719468,168.001239 C127.365596,165.85244 129.450705,165.137933 132.071455,164.955787 C132.656594,165.58582 133.354871,166.096182 133.703126,166.954118 Z" id="Path"></path>
                        <path d="M105.214207,173.552615 C105.529316,177.111521 106.213528,181.038286 106.93757,184.498626 C106.479069,184.887606 105.899304,184.689596 105.310687,184.498626 C104.183907,181.163252 104.36182,177.118561 103.30054,173.743585 C103.611223,173.180356 104.771638,172.955064 105.214207,173.552615 Z" id="Path"></path>
                        <path d="M81.0546994,175.533434 C81.1343859,176.268909 81.2379783,177.332246 80.7669425,177.925943 C80.2356992,177.978223 79.9382029,177.797456 79.6159153,177.638841 C79.7761737,177.155023 79.5441975,176.758044 79.6159153,176.105864 C78.8323314,175.677871 76.694077,175.241902 76.1690315,176.297264 L76.1690315,178.214816 C77.5077647,179.333978 80.0426808,179.256886 80.9564193,180.80227 C81.0635534,181.865607 80.8997534,183.715813 80.5730387,185.114988 C79.9833586,185.22841 79.665498,185.612984 79.1369109,185.785776 C77.5006815,185.744129 76.1008553,185.503106 74.7329037,185.402975 C73.8085403,184.500911 73.5411478,181.238238 75.4987795,182.240433 C75.5696119,182.85451 75.3872184,183.215159 75.4031557,183.773411 C76.2805926,184.491163 78.0354664,184.209379 79.1369109,184.252799 C79.5158645,183.64138 79.6433629,182.77919 79.7115391,181.86029 C78.5011897,180.643655 76.6480359,180.071225 75.0188897,179.272836 C74.3893663,178.128863 74.7727469,176.298151 75.2110227,175.151519 C76.4063202,173.986278 78.1213507,174.553392 80.1887727,174.767831 C80.5013209,174.999993 80.6438712,175.400517 81.0546994,175.533434 Z" id="Path"></path>
                        <path d="M54.0675646,168.812181 C53.8418767,169.286774 53.6002578,169.746343 53.3984663,170.245683 C51.6283649,170.321689 51.1176906,169.145368 49.6653224,168.90763 C49.0803039,169.660616 48.6917666,170.614222 48.3253556,171.583737 C49.1219013,172.474594 52.0372583,172.644281 50.7149925,174.451625 C49.467071,174.264263 48.6430888,173.656217 47.7483026,173.112688 C47.2341664,174.122572 46.8174923,175.179046 46.5039213,176.267808 C47.6314759,176.786591 48.9820633,177.525437 50.1405946,177.70131 C50.5123159,178.005333 50.2565363,178.749482 50.0450092,179.039364 C48.2032186,179.186072 47.2225825,177.655353 45.25954,177.605861 C44.9241058,177.463572 44.665671,177.242625 44.3983857,177.032284 C45.6595829,173.673893 47.0668135,170.457792 48.5138714,167.282345 C50.4211557,166.718489 52.1354989,168.477225 54.0675646,168.812181 Z" id="Path"></path>
                        <path d="M29.406723,156.302788 C29.2304459,156.636282 29.1713931,157.083286 29.0259644,157.446698 C27.227938,159.584928 25.5242197,161.817311 23.3075351,163.537575 C20.8308418,163.155685 19.4391341,161.689721 17.8746748,160.397104 C19.3994717,157.446698 22.0171867,155.587405 23.5931041,152.688035 C24.0716964,152.594762 24.1333934,152.085282 24.5458818,151.926015 C25.4272673,151.918095 26.2496,152.836743 27.0243379,153.544207 C28.044101,154.475173 28.9554536,155.01897 29.406723,156.302788 Z M25.117901,154.113522 C24.5009311,154.989052 23.5314071,155.509091 23.2123455,156.683798 C22.0189495,157.521492 21.2380419,158.772752 20.2579412,159.824269 C20.8352487,160.719158 21.9792872,161.513735 23.1162745,161.537493 C24.8182299,160.1912 26.1403082,158.464777 27.4050965,156.683798 C26.98115,155.487973 26.0160329,154.835064 25.117901,154.113522 Z" id="Shape" fill-rule="nonzero"></path>
                        <path d="M175.319569,103.266044 C175.703144,104.060882 175.761476,105.186159 175.606809,106.066733 C168.910147,106.372165 160.528051,106.025652 154.38996,105.873829 C154.425312,105.709502 154.315719,105.695213 154.199056,105.680924 C154.077089,104.953066 154.143376,104.038555 154.199056,103.358924 C160.399014,103.633099 168.78818,103.228535 175.319569,103.266044 Z" id="Path"></path>
                        <path d="M156.081867,92.7354421 C156.43192,93.3711995 156.171166,94.1913616 156.081867,94.9201994 C155.604117,96.1917141 153.378783,95.7447521 153.280554,97.3894668 C154.286062,97.6853926 155.214773,97.1839873 155.984531,97.5800184 L155.984531,98.2438755 C155.034389,98.284269 153.154643,98.4388177 152.412567,97.9593653 C151.84909,94.9035152 155.695202,96.1855672 155.406766,93.4010555 C155.110293,93.0902017 154.335177,93.2500192 153.764555,93.2105039 C153.396643,93.3861275 153.546666,94.0719375 153.089454,94.1606274 C151.81337,92.3376547 154.979023,91.9741139 156.081867,92.7354421 Z" id="Path"></path>
                        <path d="M163.613758,93.0784693 C163.634837,94.7414817 163.669968,96.9526329 162.948907,98.1542878 C161.905521,98.2658637 160.555619,98.5262075 160.004943,97.8673783 C159.704575,96.2451 159.708088,94.0321777 160.289503,92.5994013 C161.640284,92.4550611 162.787305,92.1973738 163.613758,93.0784693 Z M160.954354,93.2697423 C160.439687,94.3164306 160.626759,96.129982 160.859501,97.4839468 C161.397003,97.3280947 161.756215,97.2687647 162.378909,97.3883103 C162.770618,96.1043018 162.878646,94.6254782 162.759201,93.2697423 C162.273517,93.1563954 161.661362,93.3335 160.954354,93.2697423 Z" id="Shape" fill-rule="nonzero"></path>
                        <path d="M171.0735,93.4689986 C170.338512,94.925609 171.264931,97.4573574 169.839738,98.2106556 C168.938785,98.1062988 168.244191,98.5263568 167.275622,98.1159453 C166.726795,96.6952897 166.732942,93.9293962 167.655849,92.7095617 C168.519921,92.6297595 169.520102,92.5727579 170.12425,92.7095617 C170.569458,92.8384731 170.612486,93.3637648 171.0735,93.4689986 Z M169.269837,93.3734113 C166.981451,93.0463097 167.888551,96.2427846 167.94036,97.3573854 C168.53924,97.3573854 169.180269,97.3950941 169.649186,97.262675 C169.940723,96.2252457 169.930185,94.8879002 170.029413,93.6584193 C169.705386,93.8267933 169.270715,93.7908384 169.27335,93.3734113 L169.269837,93.3734113 Z" id="Shape" fill-rule="nonzero"></path>
                        <path d="M174.637893,98.1548799 C174.400663,97.7261049 174.211412,96.9271453 174.732962,96.7149771 C175.177212,96.7194158 175.354913,96.9875111 175.309599,97.4828661 C175.589477,97.3257374 176.603256,97.722554 176.846705,97.2911158 C176.973761,97.1268852 176.763186,96.4823911 176.846705,96.0429633 C174.814704,96.409597 173.897771,95.3443174 174.253172,93.0663947 C174.786272,91.9895746 177.17545,92.5213267 177.904021,93.1622699 C177.754753,94.2879152 177.883585,96.4965948 177.808063,97.4828661 C177.558394,98.513524 175.438432,98.5516966 174.637893,98.1548799 Z M175.021725,93.3540202 C175.019977,93.9355614 175.084362,94.5154184 175.213641,95.0824362 C175.696985,95.4259889 176.202542,94.9554904 176.846705,95.1783114 C177.013743,94.6456716 176.966653,93.9266079 176.943552,93.4507831 C176.276288,93.4871801 175.625017,93.0672824 175.021725,93.3540202 Z" id="Shape" fill-rule="nonzero"></path>
                        <path d="M143.853053,122.946323 C142.998865,123.557002 141.702123,123.724674 140.605016,124.093553 C137.336663,123.663783 134.061242,124.275345 131.153291,123.806745 C130.799956,122.37359 131.163891,119.712016 130.96249,118.080301 C133.351921,117.612584 135.527585,117.952341 137.934683,117.602877 C138.333952,113.841726 137.629931,110.247365 138.126368,106.531222 C138.139618,98.865958 138.357803,90.2996773 137.934683,81.4289395 C136.776626,81.016819 135.045282,80.8844463 133.636356,80.8562068 C127.987405,80.7432487 122.052251,80.7767831 116.539334,80.9515151 C109.940793,80.4220242 103.152334,81.3106865 96.8629612,80.6647076 C96.6562599,79.5907235 97.3399642,78.6032229 97.7224499,77.8019267 C97.8107838,76.6202794 98.2074029,75.7413245 98.7727397,75.0335716 C100.804419,74.4670163 103.155867,75.008862 105.554132,74.9382633 C111.459252,74.7617663 118.354595,75.2391906 124.275615,74.7476465 C126.72452,74.9175586 129.182273,74.9175586 131.631177,74.7476465 C131.784878,74.7741211 131.795478,74.659398 131.917379,74.6514557 C135.959538,74.5826219 138.703188,74.717642 142.23301,74.9382633 C143.111049,75.4924638 143.896337,76.1402076 144.239072,77.2327239 C144.207272,77.8231063 144.138372,78.4937948 144.143672,78.8556136 C144.466974,81.6072014 144.398073,84.5229314 144.239072,87.3495304 C143.78062,95.4975132 144.680742,103.44076 143.952871,111.88261 C144.109222,115.541392 144.276173,119.232826 143.853053,122.946323 Z" id="Path"></path>
                        <path d="M129.078407,83.1086585 C128.302079,87.3346345 130.70622,94.3431826 128.027093,97.154022 C127.63716,97.3695609 127.176492,97.5144313 126.877632,97.8227226 C121.613988,97.9658263 118.008218,98.1407308 112.631396,97.8227226 C112.828573,99.1221396 113.191979,100.089415 113.300736,101.261628 C117.750032,101.270462 121.828848,101.377348 126.973126,101.261628 C127.566424,101.597304 127.924526,101.58052 128.598286,101.834926 C128.838789,110.34518 128.755674,119.263544 128.790158,128.204876 C130.711525,128.055588 132.100604,128.558218 133.665639,128.586485 C134.037003,129.27462 133.930899,131.08815 133.85751,131.930872 C134.069718,132.678191 134.005172,133.565081 133.85751,134.41487 C132.364096,134.981101 130.569169,134.823864 128.885651,134.796479 C126.492121,134.758495 124.320525,134.827397 121.619293,134.892765 C120.299182,134.924566 118.627159,134.972267 117.603255,134.224065 C117.348605,132.577489 117.231006,130.454784 117.412267,128.681888 C118.857935,128.328545 121.012731,128.372713 122.575113,128.109473 C122.803237,125.100762 121.951752,121.138026 122.47962,118.364288 C122.182528,115.053469 122.225854,110.441466 121.905774,106.802922 C117.056819,106.221673 112.150391,106.782604 107.277563,106.421312 C107.30232,105.9655 106.964556,105.482304 106.79921,104.892222 C106.34031,103.248296 105.8372,101.159159 105.460531,99.3509288 C105.325248,98.8633162 104.44989,98.9975863 104.791191,98.299735 C92.9570535,98.6663278 82.686182,97.59305 71.4232377,97.9181251 C65.8174073,97.2167403 59.4511647,98.3447861 53.7392303,97.8227226 C53.6216316,108.145623 53.6508102,118.18585 53.6437366,128.681888 C55.1636771,129.018447 56.4378098,128.809975 57.850762,128.778174 C58.5581223,130.089958 57.9232664,132.268314 57.9462556,134.127779 C55.7472493,135.034986 52.8638719,134.54914 50.0105573,134.510272 C47.2023369,134.472288 44.2544129,135.157772 42.074859,134.41487 C41.3560041,132.648157 41.0076291,130.491001 41.9784812,128.778174 C43.4533274,128.403631 45.5860187,128.689838 47.0467177,128.300278 C47.3190514,119.063906 47.2881044,109.445923 47.237705,100.209551 C47.2182525,96.6151747 46.7505106,93.1541851 47.3331986,89.6039766 C47.1873055,88.9087753 47.3650298,88.4812309 47.0467177,87.9803679 C47.5171123,86.7021515 47.3632614,85.2640476 47.237705,84.1580856 C49.0768417,83.7164075 51.4102465,83.6483891 53.4527494,84.0626832 C53.3501821,86.0520013 53.5898004,88.987394 53.7392303,91.3238711 C55.1406879,91.7938166 57.1089179,91.3848227 58.8065826,91.4192736 C60.0197055,91.4440075 61.2169128,91.6303957 62.4397619,91.7063643 C65.7643553,91.9121863 69.1464217,91.41044 72.4789729,91.514676 C74.1536484,91.5676774 75.7929559,91.3724557 77.4508316,91.4192736 C80.731215,91.512026 84.089408,91.2717531 87.4891584,91.8017668 C88.7270389,91.5208595 89.8764994,91.7019475 90.8358568,91.2284686 C96.5628226,92.1789599 102.395008,90.9228274 108.23692,91.8017668 C112.97478,91.3936937 117.736049,91.3299243 122.483156,91.6109618 C123.226769,88.8416402 122.05874,85.7604938 122.961509,83.2031776 C124.209116,82.7756332 126.416964,83.1598931 127.933368,82.9160868 C128.259637,82.8639688 128.729148,82.8153842 129.078407,83.1086585 Z" id="Path"></path>
                        <path d="M120.072873,117.777782 C120.324832,119.444552 120.275325,121.951368 120.072873,123.349075 C117.581569,124.213984 114.916988,123.704274 112.32932,123.73269 C104.954424,123.821489 96.6627496,123.816161 89.099547,123.925385 C86.3828057,123.963569 83.1462323,124.083448 80.5912755,123.925385 C80.6947115,121.605937 81.6238671,119.798863 82.5989942,117.970478 C86.3447907,117.37996 90.0393113,118.43046 93.7833398,117.681878 C94.4928931,117.699419 95.1982998,117.796215 95.8865378,117.970478 C102.939633,117.746702 110.185455,118.212901 117.682353,117.874574 C118.454144,117.839942 119.365618,117.394167 120.072873,117.777782 Z" id="Path"></path>
                        <path d="M99.486093,65.8146601 C96.4596526,73.8206434 93.331297,81.7240991 90.3828439,89.8087457 C88.463292,89.5780589 85.6779033,90.049155 83.9621819,89.8087457 C86.6695832,81.1336822 90.6611169,73.7402123 93.4447331,65.1491153 C95.3793508,65.3029065 96.9470735,65.3691958 98.9065053,65.2445719 C98.9428403,65.5954634 99.3185975,65.6007666 99.486093,65.8146601 Z" id="Path"></path>
                        <path d="M70.4393235,117.741206 C71.0629781,120.051488 69.225582,121.486892 68.8157014,123.392499 C65.1700604,124.252324 59.7674094,123.769724 55.729555,123.871557 C55.5343317,122.159876 55.1474185,119.294381 55.6332684,117.837726 C59.6622892,117.972322 64.5234383,117.926276 68.3378018,117.645571 C68.8563361,117.900597 69.8474699,117.412683 70.4393235,117.741206 Z" id="Path"></path>
                        <path d="M87.2443803,74.8592252 C86.7761438,76.7336856 85.6718125,78.6664743 84.76096,80.4030677 C84.6313042,80.3872296 84.5094441,80.468247 84.4738339,80.5939604 C79.6085919,80.6955931 74.0904693,80.8440652 68.9981768,80.7857368 C62.1504392,80.7061982 55.4599585,80.6717315 48.7456242,80.498514 C45.3001105,80.4101378 41.837811,80.6567075 37.9505648,80.4030677 C37.8569176,84.7989026 37.9903208,89.2680898 38.0459791,93.6895538 C38.0892689,97.1291576 37.8551506,100.528108 37.8551506,103.917338 C37.8551506,108.089581 38.2774469,112.215868 37.8551506,115.769477 C37.9788357,116.368668 38.1475776,117.140193 37.9505648,117.776502 C40.1344904,117.901996 42.3246003,117.522862 44.3512691,117.681056 C44.3327163,119.397322 44.845126,121.686267 44.3512691,123.703014 C42.6938887,124.310158 40.1636448,124.372906 38.6193479,123.703014 C36.6147657,123.947816 34.2408951,123.757807 32.8874267,123.034005 C32.5287399,122.532912 32.158568,122.043308 31.932401,121.408766 C31.691215,114.585235 31.8440545,106.845243 31.7406891,99.5206191 C31.6585268,93.8132805 31.8122497,87.8858851 31.5498606,82.3146461 C31.4871346,80.9890022 31.6479252,79.631543 31.7406891,78.3005966 C31.8290356,77.0430025 31.6461583,75.760663 32.0278152,74.6683325 C36.9222115,74.4032037 41.8024724,74.5799562 46.7392751,74.190217 C54.8724542,74.6241444 62.1999133,74.7301959 69.762374,74.8592252 C71.4727624,74.8883894 73.3448248,74.4818586 75.2080525,74.5720024 C77.3893277,74.6780539 80.0556252,74.7354985 82.4683683,74.7637789 C84.1177975,74.7832216 85.8052157,74.1946358 87.2443803,74.8592252 Z" id="Path"></path>
                        <path d="M86.0911754,100.419548 C85.5611041,102.401812 84.5831226,103.944849 83.9894427,105.867901 C83.6033741,107.998636 82.1492119,111.953442 81.9831229,112.272478 C78.9952876,119.764957 76.6011322,127.851321 73.4807792,135.212121 C73.1706875,137.221781 72.0955262,138.44048 71.6661684,140.086916 C70.3286218,140.661358 69.3170691,141.560137 67.8443543,141.99848 C67.2992644,140.664893 66.5297775,139.554012 66.2205693,137.984462 C67.3876096,134.88248 68.8037834,132.029717 69.8506742,128.808428 C71.0875073,125.77803 72.0593046,122.479854 73.4807792,119.632394 C73.9419412,117.257743 74.5789102,115.059843 75.4870991,113.132372 C75.7521347,112.05419 76.1178839,110.915029 76.4421109,109.786473 C76.7495522,108.717129 78.8415669,102.11901 80.1676287,100.324102 C82.1960348,100.235727 84.5398334,99.7531961 86.0911754,100.419548 Z" id="Path"></path>
                        <path d="M128.726172,57.9277689 C129.529088,60.0324219 129.284146,62.9226828 129.203677,65.3659143 C129.125862,67.7544795 129.808517,70.2514956 128.917174,71.9461513 C127.011575,72.0845805 125.510087,72.2988372 123.466542,72.1366017 C122.790961,71.3430584 123.060663,70.2127002 122.989037,69.084987 C122.871429,67.2483752 122.740557,65.2662805 122.702534,63.5539905 C121.236416,63.2462721 119.855189,63.3538413 118.303297,63.3635402 C113.695373,63.3908733 108.576341,63.0884452 104.154997,63.7453226 C95.17967,63.9578159 85.435913,63.3450241 75.2783182,63.3635402 C74.7592525,63.5592808 74.4824764,63.4984425 73.9395354,63.7453226 C67.699251,63.5689797 61.2944927,64.2637709 54.4334517,64.2214486 C54.4405259,66.7572601 54.0240353,69.5999084 54.1460644,72.0413765 C53.5836695,72.9230912 51.8036366,72.7511568 50.6089895,72.5183842 C49.8299488,72.679738 49.0040418,72.9442524 48.221464,72.6136093 C47.7634128,72.4989864 47.8138161,71.8756141 47.3610705,71.7557009 C47.5768321,67.2377947 46.8649958,61.8910766 47.9349609,57.9277689 C48.8192297,57.4922018 50.6036839,57.6032979 51.4720358,57.4507612 C54.3971967,57.7840494 57.4647249,57.9215969 60.5552441,57.9277689 C67.6683016,57.9418763 74.8742074,57.7232111 81.9740009,58.0229941 C84.2872479,58.1208644 86.6234859,58.199337 88.8589172,58.1182193 C93.4571145,57.9533386 97.9916445,58.3024976 102.244977,57.5459864 C102.90641,57.6791253 103.941889,57.5124812 104.730656,57.7373185 C107.88219,57.3334931 111.185818,57.9877255 114.103905,57.2603108 C118.725093,57.7390819 124.616091,56.9561192 128.726172,57.9277689 Z" id="Path"></path>
                        <path d="M111.639098,47.2595913 C111.483832,48.408949 111.198003,49.4354139 110.780728,50.3204193 C109.192787,50.8597333 107.305784,50.0693289 105.915454,49.5547702 C104.773901,51.4388328 103.961405,53.6526725 102.958356,55.674658 C101.565379,55.8700488 98.7688393,55.9575768 97.2347122,55.5791729 C97.7860805,53.0152211 99.5434014,51.0701542 100.096534,48.2162106 C99.2055229,47.6751283 98.0807317,47.3674541 97.0441594,46.973136 C97.0265156,46.5443372 96.8086149,46.3162339 96.566895,46.112886 C96.4522104,44.2129093 97.5761195,43.5542389 97.9978059,42.191808 C102.137038,42.9468476 105.896046,44.8379831 110.017634,45.9210317 C110.444613,46.4815646 111.069203,46.8405178 111.639098,47.2595913 Z" id="Path"></path>
                        <path d="M22.1850346,103.542283 C22.4576032,103.855564 22.1850346,104.906289 22.2806106,105.636693 C19.6805897,105.988694 16.7991506,105.770453 13.9557648,105.731733 C9.45041881,105.670133 4.70436289,105.709733 0.749463792,105.826774 C0.483974929,105.00573 0.921146591,104.105485 1.03707673,103.352202 C2.69372724,103.861724 17.4478283,103.672523 18.5487222,103.637323 C19.8602371,103.595083 21.1814867,103.409402 22.1850346,103.542283 Z" id="Path"></path>
                        <path d="M23.5519908,93.2473985 C23.3996683,94.9669546 23.7729905,96.6900416 23.1716247,98.0211969 C22.278821,98.4237214 20.7177352,98.0512097 19.8390191,98.1165317 C19.4304777,96.6803316 20.0591383,94.2537096 19.648836,92.6745074 C21.24338,92.5262089 22.7357886,92.2975821 23.5519908,93.2473985 Z M22.7903782,94.0109591 C22.6653504,93.0311299 21.4062682,93.4239443 20.6006317,93.3427332 C20.5486836,94.6968395 20.5231497,95.7534661 20.5055402,97.1623016 C20.9959659,97.4553677 21.7522957,97.2585191 22.5051036,97.4483058 C22.4461116,96.633547 22.7102547,95.2308906 22.7903782,94.0109591 Z" id="Shape" fill-rule="nonzero"></path>
                        <path d="M16.8988861,92.5683725 C16.8510489,93.3215656 16.1334917,93.1075095 15.462,93.0488884 C14.8348018,94.5472808 15.2130696,96.5510587 14.8870683,98.235973 C14.5840998,98.3683147 14.5672682,98.2572898 14.2164624,98.235973 C14.0711793,96.329897 13.9507005,95.0384551 14.1207882,93.336665 C13.7132865,93.051553 13.1153222,93.5285161 12.6839021,93.2407394 C12.5067274,92.8197329 12.9186584,92.4662295 13.1631594,92.1837821 C14.3670609,92.5737017 15.9864368,91.8711359 16.8988861,92.5683725 Z" id="Path"></path>
                        <path d="M9.6655571,93.9045592 C9.24155493,93.9177338 9.30112548,93.4460808 9.19162079,93.1448202 C8.50217924,93.1492118 7.71900167,93.0569891 7.39223966,93.4302713 C7.35895024,94.0011734 7.37997514,94.5184985 7.67607583,94.760034 C9.89507894,94.2962858 10.2516262,95.881637 10.1386174,97.7041322 C9.24505908,99.0154504 5.42816348,98.7133115 6.82369129,96.3743695 C7.40275211,96.3155226 7.49648813,96.9821606 7.29762761,97.4195595 C7.84077089,97.6681215 8.55298941,97.7489261 9.09700873,97.5144171 C9.08649628,96.7924455 9.28448077,96.2663372 9.09700873,95.6146305 C7.43866965,95.7209061 6.28142405,95.1350728 6.63446718,92.955105 C7.13030444,92.1251012 8.17366516,92.4184571 9.47545695,92.3850812 C9.91347573,92.7768079 10.3523705,93.5892455 9.6655571,93.9045592 Z" id="Path"></path>
                        <path d="M3.41526044,92.4973554 C3.31193915,93.3765169 1.64365662,92.71275 1.10389195,93.1628807 C1.10389195,93.736094 1.13417578,94.3330447 1.00769627,94.7796587 C1.53410042,95.0987944 2.38293825,94.5897598 2.74099996,94.9695576 C2.77930009,96.0597179 1.98924851,95.8689399 1.10389195,95.9208104 C0.919516895,96.1502716 1.0433243,96.6848018 1.00769627,97.0637204 C1.63118681,97.6044048 3.1400339,96.6742518 3.12667339,97.8250743 C2.85946316,98.7402815 1.31855084,97.9209029 0.429631475,98.2998215 C-0.397829536,97.1454824 0.406473255,94.2899658 0.141044427,92.4094392 C1.07449883,92.0577746 2.72674875,91.8951297 3.41526044,92.4973554 Z" id="Path"></path>
                        <path d="M173.358457,61.2398043 C173.561393,63.3678366 174.906062,66.0934914 173.645214,67.9528596 C170.679705,68.4848677 166.88569,70.5765462 163.913123,69.008009 C163.159614,67.4323784 162.954913,65.3043461 162.291402,63.6373874 C164.476931,62.8269618 166.898043,62.3348543 169.350035,61.8152597 C170.613531,61.548369 171.877908,60.9445398 173.358457,61.2398043 Z M164.484872,64.6012087 C164.69222,65.7680798 164.875744,66.9580045 165.152795,68.0539412 C167.555378,67.9058656 170.409713,67.3951378 172.403777,66.5190979 C172.231722,65.2857258 172.384365,63.7260554 171.735853,62.9723773 C169.168276,63.3598565 166.928042,64.0798408 164.484872,64.6012087 Z" id="Shape" fill-rule="nonzero"></path>
                        <path d="M166.590791,45.7559447 C166.305199,45.7559447 166.265287,46.0049405 166.015172,46.0439291 C164.810717,45.490113 164.831117,43.7125846 163.905159,42.8805312 C162.558795,43.0674995 161.776521,43.816259 160.644795,44.2229816 C161.058992,45.1852925 163.070555,46.8564882 161.316203,47.6725917 C160.299778,47.1551059 160.070062,45.8498719 159.301979,45.0851626 C158.154288,45.5034045 157.429664,46.344319 156.328981,46.8104107 C156.913469,48.1395695 157.576895,49.3969537 158.438993,50.4523058 C158.369813,51.1496711 157.729447,51.274612 157.096177,51.4101862 C156.165785,49.6246829 155.066876,48.0075397 154.218968,46.1396285 C157.297511,44.3922278 160.349446,42.6173578 163.713581,41.1561692 C163.6852,40.903629 163.846621,40.8407155 164.097623,40.8681848 C164.662599,41.4884589 165.146865,42.1831659 165.440439,43.0728162 C166.127812,43.8632226 166.828489,44.5091938 166.590791,45.7559447 Z" id="Path"></path>
                        <path d="M153.952844,27.3674429 C153.808334,28.0504425 153.387142,28.4574113 152.71482,28.6113516 C152.163217,28.3034709 151.833665,27.7717574 151.380751,27.3674429 C149.291531,29.5429561 146.991714,31.5070225 144.901613,33.6825358 C144.43372,33.4171214 143.9156,33.2056746 143.662709,32.7252746 C144.423146,31.2566483 145.927278,30.5338365 146.807553,29.1864161 C148.099327,28.2512728 148.858883,26.7808771 150.141846,25.8368866 C149.679239,25.1857366 149.004274,24.7469182 148.617447,24.018798 C148.715255,23.4472724 149.13116,23.194244 149.474811,22.868669 C151.223905,24.1116931 152.588815,25.7360291 153.952844,27.3674429 Z" id="Path"></path>
                        <path d="M136.8307,13.1292197 C136.859936,13.9208937 136.454175,14.2780267 135.968679,14.5559922 C134.651283,14.056358 133.777744,13.1169048 132.42491,12.6533356 C131.662114,13.2286188 131.445058,14.3448792 130.987912,15.2227577 C131.85082,15.792763 132.854592,16.2229059 133.573977,16.9354125 C133.558916,17.5854649 133.202767,17.8977363 132.904205,18.2671842 C131.688692,18.0780621 131.058788,17.308379 130.030209,16.9354125 C128.797864,17.7728277 128.770399,19.8065504 127.638165,20.7407257 C126.847905,20.764476 126.746908,20.103868 126.009804,20.0748399 C127.676261,16.8140225 129.849477,14.0572376 131.374183,10.6556781 C131.523021,10.5184546 131.821584,10.5290103 131.949159,10.3706755 C133.646624,11.2160074 135.05793,12.3507402 136.8307,13.1292197 Z" id="Path"></path>
                        <path d="M113.528278,3.59014797 C114.818739,6.50563806 113.51685,11.5883091 114.098788,14.9614428 C112.679104,15.4455909 111.803559,14.2131337 112.292318,12.76334 C111.042293,12.5309843 110.235314,11.7570542 108.96595,11.8082961 C108.378737,12.0786416 108.192376,12.7509712 107.919867,13.3376032 C107.257934,13.2651577 106.716432,13.4789603 106.49403,12.8596395 C107.869761,10.3858903 109.318454,7.99077105 110.485847,5.31028713 C111.326229,5.10443585 111.189096,3.91880322 111.912563,3.59014797 C112.454944,3.42935427 112.788108,3.7686113 113.528278,3.59014797 Z M109.821277,9.99274091 C110.412006,10.3532015 110.813737,10.9053777 111.912563,10.7569527 C111.926628,9.0200274 112.489227,7.32462574 112.292318,5.69283476 C111.599617,7.2583646 110.564083,8.47845303 109.821277,9.99274091 Z" id="Shape" fill-rule="nonzero"></path>
                        <path d="M92.0181031,7.12197087 C92.5098364,8.57583125 93.0244821,10.0066567 93.5426528,11.4339382 C93.2033744,11.772375 92.4701805,11.5429113 92.0181031,11.4339382 C91.4391267,10.2600412 91.0716485,8.87174189 90.4935534,7.69695892 C89.6405106,7.83871252 88.7310682,7.5002758 87.6348025,7.60127524 C87.600434,8.59620833 87.8181009,10.0633581 87.4435728,11.1451153 C86.9536019,11.4738064 86.5209118,11.1973869 86.1102528,10.952862 C85.84588,7.51622308 86.1569586,4.34891604 86.1102528,0.221228345 C88.6323691,-0.155304659 92.1405958,-0.260733901 92.9707263,1.65825548 C93.2350991,3.37790387 92.8773146,4.86631668 93.0659005,6.06590654 C92.8455899,6.54964071 92.530105,6.93414735 92.0181031,7.12197087 Z M87.7299767,1.75571108 C87.7158768,3.21134338 87.5731155,4.53762552 87.6348025,6.06767846 C88.755743,6.29979998 90.1419376,6.44864126 91.2558282,6.06767846 C91.6876371,4.79809776 91.7502053,2.97567802 91.0654799,1.94796441 C90.1666124,1.58737868 88.7037497,1.51295804 87.7299767,1.75571108 Z" id="Shape" fill-rule="nonzero"></path>
                        <path d="M70.7087881,5.1634645 C70.2878971,5.41231779 69.5513377,5.34501227 69.0835827,5.54692882 C68.613175,5.21748603 68.8908216,4.61085079 68.4142244,4.2052465 C67.182499,4.25926803 66.6289742,4.39919266 65.5457986,4.58871082 C65.055938,7.28270265 65.7031907,11.0677523 67.1718883,12.7300214 C68.385045,12.6042664 69.5875909,12.4643418 70.4222992,11.9639784 C70.3710142,11.4405894 70.2825917,10.9552813 70.2313067,10.4318923 C70.562891,10.1369879 71.4046732,9.91116016 71.9520084,10.1440727 C71.9245974,10.9411117 72.135043,12.0481103 71.7610158,12.9221964 C70.4859634,13.9716311 67.7033075,14.9112515 65.6412949,13.9751735 C64.1381125,11.194393 63.1442437,7.61923023 63.7296006,3.91831246 C64.7102061,2.72895315 67.3204381,3.17440939 68.7970938,2.48187106 C69.8307528,2.96806485 70.6937563,3.95462201 70.7087881,5.1634645 Z" id="Path"></path>
                        <path d="M47.4912944,22.6913925 C47.1795308,22.5877988 46.9935355,22.3593614 46.6295161,22.3080072 C45.2194946,19.0576436 43.3258853,16.2871756 41.6492704,13.306864 C41.6368708,13.1297807 41.7670675,13.1041036 41.7449252,12.9234787 C42.4853636,12.3718642 43.4188829,11.5625936 44.4268003,11.1039479 C45.4347177,10.6453022 46.4798342,10.3070732 47.969568,10.5293127 C50.1713982,12.3497288 51.0818895,15.4619675 52.4706544,18.0943105 C52.4768542,18.5795187 52.3059157,18.8911853 52.3749997,19.4357164 C51.1970294,20.9692576 49.4079317,21.8936323 47.4912944,22.6913925 Z M43.6606768,13.6893638 C44.8120763,16.3075402 46.3478661,18.5352479 47.7791443,20.8718618 C48.6834357,20.0847266 50.2883095,19.9970704 50.7479836,18.7645707 C50.1855692,16.9937379 49.5700133,15.2813426 48.4451846,14.0718637 C48.2131333,13.2171418 47.798039,12.5468815 47.1999017,12.0610831 C45.5179728,12.0982706 44.7722202,13.0775411 43.6606768,13.6893638 Z" id="Shape" fill-rule="nonzero"></path>
                        <path d="M28.3785043,22.6073086 C30.276281,25.3917343 32.7476198,27.5997971 35.1423073,29.8848854 C35.0876824,30.0531018 35.2577246,30.4470826 35.0471542,30.4594775 C35.1863597,30.6365475 35.5696155,30.5719169 35.523801,30.9384518 C35.5079421,31.5927254 34.9801946,31.7352668 34.6665416,32.0894068 C31.9819893,31.2748848 28.9141813,30.0194585 26.1873388,28.9295927 C26.6490078,29.9008217 27.9802708,30.8286684 28.7635222,31.8025534 C29.6736444,32.7711262 30.5758372,33.7503233 31.5264877,34.675514 C31.3872821,35.2377112 30.9714276,35.5219086 30.3811257,35.6325773 C27.6401864,33.2492152 24.9124628,30.8516875 22.6649102,27.9725294 C23.1591779,27.2881539 23.5732703,26.5240969 24.3794289,26.1531353 C26.6701529,27.4572558 29.4569067,28.2638096 31.9062192,29.4085671 C30.8022665,27.7086951 28.7124214,26.1708423 27.4278539,24.3337411 C27.2040678,24.1752634 26.6957033,24.3036392 26.6657477,23.9503845 C27.060457,23.3253275 27.2912915,22.5355953 28.3785043,22.6073086 Z" id="Path"></path>
                        <path d="M22.2212767,45.9421558 C22.2283707,46.5873131 21.8284496,46.8271452 21.6457806,47.2820298 C21.0906011,47.0771242 20.5100833,46.9485076 19.9201791,46.8997144 C18.9217067,47.7847039 18.3125144,49.0599737 17.5259735,50.1538207 C17.8611623,50.7449937 18.579424,50.9503112 18.8676154,51.5892736 C18.8090904,52.1370821 18.5129183,52.4494834 18.1963511,52.73976 C15.0732429,50.6255201 12.90427,47.5581466 10.3344894,44.8916732 L10.3344894,44.3173151 C10.4648406,43.650033 11.0332427,43.4190508 11.5812498,43.1668287 C14.7327337,44.2146563 19.0635856,44.6146715 22.2212767,45.9421558 Z M16.2800999,48.6227889 C16.7234713,47.9723216 17.4807497,47.1519364 17.5268603,46.4209351 C16.1408813,45.8262221 14.4081858,45.5775401 12.9237784,45.081061 C13.9674747,46.2749118 15.0085107,47.9776316 16.2765529,48.6263289 L16.2800999,48.6227889 Z" id="Shape" fill-rule="nonzero"></path>
                        <path d="M12.8703282,65.0501893 C13.1899514,65.6683628 13.1465676,66.0763573 12.7747069,66.4825856 C11.3570261,66.172761 9.9159705,65.9810554 8.46643528,65.9094505 C7.84666747,66.9356185 7.95025723,67.9255792 7.60495803,68.9658769 C8.68512478,69.7341783 10.7126509,69.5593235 11.8176084,70.3028979 C11.858336,70.7894888 11.77511,71.152445 11.5307444,71.3537929 C8.53372436,71.2257427 4.57606421,70.0830048 1.19036122,69.4436367 C1.05489768,68.9040596 0.938912562,68.3741966 1.0947399,67.7242313 C3.06471614,67.4151445 4.17675667,68.7018285 6.16886748,68.6797509 C6.50177133,68.0456815 6.54249893,66.5797272 6.74348077,65.5279491 C5.47915445,65.006034 3.88989271,64.8091016 2.53083045,64.3799126 C2.38828385,63.8738934 2.16870897,62.9899053 2.53083045,62.7558825 C5.72263466,63.3943674 9.04193396,64.7305053 12.8703282,65.0501893 Z" id="Path"></path>
                    </g>
                </g>
            </g>
        </g>
    </g>
</svg>