<svg width="1318" height="137" xmlns="http://www.w3.org/2000/svg" xmlns:xlink="http://www.w3.org/1999/xlink"><defs><path id="a" d="M.09.998h1316.963V126.18H.09z"/></defs><g fill="none" fill-rule="evenodd"><path d="M156.252 78.186c-1.309-19.599-6.4-28.354-18.108-28.354-11.749 0-20.992 12.174-22.15 29.895l40.258-1.54zm-40.45 5.966c0 25.037 7.707 40.527 29.661 40.527 9.438 0 17.335-1.929 28.503-6.934l1.16 2.306C163.376 130.841 151.436 137 138.911 137c-25.42 0-42.762-18.099-42.762-44.876 0-27.346 19.652-46.916 43.341-46.916 24.654 0 36.795 16.798 36.596 38.944h-60.285zM231.27 116.91c-6.544 3.66-14.01 7.568-18.819 7.568-8.094 0-13.486-5.854-13.486-14.136 0-10.403 9.387-19.341 32.305-19.534v26.102zm108.405 10.463l-33.514-45.068 27.16-27.541 12.516-4.82v-2.697h-36.983v2.12l10.213 6.742-24.26 29.845h-8.288V.575l-.773-.378-31.395 8.274v1.928l13.678 8.48v108.578l-.008.006c-1.512.546-4.723 1.619-6.863 1.688-7.736.251-12.008-5.419-12.008-10.99v-46.91c0-17.338-6.96-27.244-25.04-27.244-18.302 0-41.132 7.703-41.132 20.992 0 5.394 3.661 10.21 10.012 10.21 5.975 0 9.825-4.817 9.825-10.02 0-3.852-1.501-7.623-5.923-11.283 4.155-2.069 8.63-3.159 12.474-3.159 12.712 0 21.904 5.654 21.904 21.384v13.707c-29.275 2.888-51.567 10.491-51.567 30.09 0 11.936 8.284 20.297 21.38 20.297 10.4 0 21.717-7.946 30.188-16.42l.769.383c.58 10.013 6.378 13.777 20.295 13.777l44.388-.044v-2.502l-10.204-3.85V91.31h6.298l25.096 36.064-7.513 4.045v2.502h39.678v-2.501l-10.402-4.046zM1278.319 78.186c-1.31-19.599-6.402-28.354-18.109-28.354-11.75 0-20.994 12.174-22.151 29.895l40.26-1.54zm-40.454 5.966c0 25.037 7.708 40.527 29.664 40.527 9.437 0 17.334-1.929 28.503-6.934l1.16 2.306c-11.748 10.79-23.69 16.949-36.215 16.949-25.42 0-42.76-18.099-42.76-44.876 0-27.346 19.648-46.916 43.34-46.916 24.654 0 36.794 16.798 36.596 38.944h-60.288zM508.401 78.186c-1.309-19.599-6.4-28.354-18.108-28.354-11.75 0-20.993 12.174-22.15 29.895l40.259-1.54zm-40.452 5.966c0 25.037 7.707 40.527 29.661 40.527 9.438 0 17.337-1.929 28.505-6.934l1.161 2.306c-11.75 10.79-23.69 16.949-36.214 16.949-25.423 0-42.764-18.099-42.764-44.876 0-27.346 19.651-46.916 43.342-46.916 24.653 0 36.796 16.798 36.595 38.944h-60.286zM588.098 67.662c-5.78 0-10.212-4.236-11.361-10.978-6.942.58-13.298 5.396-16.19 11.174v59.712l13.29 3.849v2.501h-44.3v-2.501l12.521-3.85V61.312l-12.325-8.287v-1.733l28.887-7.312.78.575-.381 18.683.762.381c6.741-12.132 16.956-19.449 25.81-19.449 8.476 0 13.101 5.585 13.101 12.133 0 6.545-4.239 11.36-10.594 11.36M655.244.611c5.551 0 9.822 2.287 12.286 5.33 3.48 4.3 3.673 10.503-1.39 14.602-4.764 3.857-10.942 2.499-14.301-1.645-2.487-3.07-3.767-7.335-2.327-13.101 0 0-.884-.068-3.467.885-9.635 3.551-13.655 12.609-13.655 31.483v10.049h23.889v8.666H632.39v70.691l15.225 3.849v2.502h-46.23v-2.502l12.522-3.849v-70.69h-12.651v-3.276l12.651-5.541v-2.005c0-17.732 4.555-28.846 15.173-37.013C636.737 3.156 646.382.61 655.244.61" fill="#1A1919"/><path d="M695.568 49.781c-13.481 0-22.915 13.596-22.915 41.142 0 27.154 10.203 40.363 23.874 40.363 14.063 0 22.731-13.404 22.731-41.134 0-27.157-9.437-40.371-23.69-40.371zm-.77 86.745c-28.12 0-42.763-19.988-42.763-45.995 0-24.265 16.568-45.799 45.274-45.799 28.497 0 42.75 19.416 42.75 45.42 0 24.263-16.375 46.374-45.261 46.374zM798.787 67.662c-5.78 0-10.207-4.236-11.37-10.978-6.929.58-13.289 5.396-16.172 11.174v59.712l13.284 3.849v2.501h-44.298v-2.501l12.516-3.85V61.312l-12.325-8.287v-1.733l28.892-7.312.774.575-.386 18.683.769.381c6.74-12.132 16.946-19.449 25.809-19.449 8.481 0 13.095 5.585 13.095 12.133 0 6.545-4.233 11.36-10.588 11.36M915.16 58.226c-7.716 0-12.14 2.699-19.455 6.552v62.791l11.935 3.85v2.501h-41.796v-2.501l11.368-3.85V78.26c0-13.875-4.04-20.034-16.567-20.034-7.702 0-11.748 1.545-19.063 5.392v63.952l11.36 3.849v2.501h-42.369v-2.501l12.52-3.85V61.312l-12.335-8.287v-1.733l28.899-7.312.76.575-.375 15.401.769.39c11.366-10.789 20.993-16.175 31.394-16.175 12.712 0 19.257 7.7 21.76 16.755l.966.387c11.36-10.793 21.571-17.333 31.972-17.333 17.337 0 23.305 13.285 23.305 26.96v56.63l12.521 3.85v2.501H920.36v-2.501l11.548-3.85V79.032c0-13.481-4.236-20.806-16.749-20.806M1015.277 116.91c-6.546 3.66-14.01 7.568-18.819 7.568-8.094 0-13.488-5.854-13.488-14.136 0-10.403 9.387-19.341 32.307-19.534v26.102zm112.872 10.66V70.939c0-13.674-6.35-26.582-23.683-26.582-10.404 0-21.378 5.199-32.936 15.989l-.768-.39.381-15.403-.774-.574-28.887 7.313v1.732l12.322 8.288v65.824l-.079.033v-.024s-5.678 1.911-8.56 2.005c-7.737.252-12.008-5.418-12.008-10.989v-46.91c0-17.338-6.96-27.244-25.041-27.244-18.303 0-41.133 7.703-41.133 20.992 0 5.394 3.663 10.21 10.014 10.21 5.973 0 9.825-4.817 9.825-10.02 0-3.852-1.501-7.623-5.925-11.283 4.156-2.069 8.631-3.159 12.474-3.159 12.712 0 21.906 5.654 21.906 21.384v13.707C986 88.726 963.71 96.329 963.71 115.928c0 11.936 8.281 20.297 21.38 20.297 10.399 0 21.715-7.946 30.187-16.42l.77.383c.58 10.013 6.376 13.753 20.294 13.753l47.32-.02v-2.502l-11.361-3.85V63.62c7.315-3.848 12.715-5.198 20.607-5.198 12.325 0 16.957 7.13 16.957 20.798v48.35l-11.56 3.85v2.501h42.178v-2.501l-12.333-3.85zM1204.042 74.792c-7.323 0-11.561-5.973-11.561-12.135 0-4.629 1.738-9.054 4.237-12.138-2.499-.384-4.237-.575-7.503-.575-15.995 0-30.63 11.18-30.63 38.138 0 20.996 11.368 36.597 30.05 36.597 9.43 0 17.718-2.7 26.97-6.747l.956 2.504c-9.63 10.02-21.962 16.564-34.673 16.564-24.844 0-42.756-17.907-42.756-44.68 0-26.77 19.845-47.963 47.766-47.963 17.144 0 28.316 8.091 28.316 18.11 0 6.925-4.623 12.325-11.172 12.325" fill="#1A1919"/><g transform="translate(.125 8)"><mask id="b" fill="#fff"><use xlink:href="#a"/></mask><path d="M1302.222 29.742h2.327c1.957 0 3.764-.1 3.764-2.363 0-1.902-1.635-2.194-3.144-2.194h-2.947v4.557zm-2.223-6.352h5.526c3.406 0 5.02 1.336 5.02 4.082 0 2.59-1.645 3.671-3.766 3.894l4.092 6.326h-2.394l-3.89-6.157h-2.365v6.157h-2.223V23.39zm4.784 17.605c5.655 0 10.05-4.51 10.05-10.504 0-5.864-4.396-10.38-10.05-10.38-5.74 0-10.116 4.516-10.116 10.38 0 5.993 4.377 10.504 10.116 10.504zm0-22.684c6.672 0 12.27 5.272 12.27 12.18 0 7.04-5.599 12.307-12.27 12.307-6.717 0-12.348-5.267-12.348-12.308 0-6.907 5.63-12.18 12.348-12.18zM57.387.998H.037v3.676l19.136 3.891v110.049L0 122.504v3.676h58.964v-3.677l-18.923-3.889V7.635c3.546-.918 8.289-1.476 13.197-1.476 17.662 0 27.366 11.88 27.366 33.321 0 22.485-9.525 32.778-27.785 32.778-.994 0-3.354-.013-5.303-.037l-.005 3.712 20.368 3.2c.996.15 1.887.093 2.27.023 22.343-4.163 32.682-23.302 32.682-40.324 0-21.188-15.082-37.834-45.444-37.834" fill="#1A1919" mask="url(#b)"/></g><path d="M410.012 8.998h-57.35v3.676l19.136 3.891v110.049l-19.173 3.89v3.676h58.964v-3.677l-18.923-3.889V15.635c3.546-.918 8.289-1.476 13.197-1.476 17.663 0 27.366 11.88 27.366 33.321 0 22.485-9.525 32.778-27.784 32.778-.995 0-3.354-.013-5.305-.037l-.004 3.712 20.368 3.2c.996.15 1.887.093 2.27.023 22.342-4.163 32.682-23.302 32.682-40.324 0-21.188-15.083-37.834-45.444-37.834" fill="#1A1919"/></g></svg>