<svg width="1128" height="535" xmlns="http://www.w3.org/2000/svg"><g fill="none" fill-rule="evenodd"><path d="M565.824 267.787c-.144 1.007-.583 1.902-1.668 1.853-1.017-.047-1.69-.768-1.385-1.895.29-1.056.467-2.45 2.045-2.177 1.183.204 1.137 1.27 1.008 2.219" fill="#F2F2F0"/><path d="M1125.382 12.188c-.048 16.515-.048 33.03 0 49.546.008 3.211.176 6.451 2.297 9.166v.7c-2.675.056-5.361.022-8.027.203-2.036.147-3.401-.553-4.788-2.1-13.827-15.423-27.745-30.77-41.642-46.143-.581-.643-1.156-1.294-2.087-1.834.876 16.599-2.022 33.233 1.638 49.838h-15.451c2.338-4.8 2.281-9.81 2.295-14.8.028-13.75.057-27.501-.02-41.252-.023-3.933-.036-7.921-1.715-11.63-.658-1.463-.35-2.107 1.371-2.057 3.03.077 6.068.105 9.09-.015 1.722-.063 2.45 1.127 3.366 2.142 13.325 14.78 26.648 29.573 39.972 44.36.462.517.972.992 1.491 1.518 1.014-.833.476-1.953.482-2.891.05-10.952-.014-21.91.057-32.862.021-3.414-.28-6.774-1.575-9.909-.825-1.994-.378-2.372 1.589-2.358 4.653.028 9.3-.119 13.954-.189v1.4c-2.121 2.715-2.289 5.955-2.297 9.168M506.535 509.882c-4.913-.07-8.019-2.54-8.628-6.865-.588-4.214 1.778-7.942 5.802-9.14 4.023-1.197 7.788.722 9.873 5.025 3.856 7.971.742 10.448-7.047 10.98zm15.488-11.567c-3.24-9.7-13.115-14.15-22.47-10.364-6.81 2.757-10.673 10.203-9.182 17.704 1.358 6.817 6.85 11.015 14.394 11.21 3.45.091 6.62-.734 9.67-2.4.386 5.529-3.371 10.987-8.48 12.757-3.884 1.345-7.551.462-11.231-.79-.721-.245-2.079-1.414-2.092.147-.019 2.237-.782 4.646.116 6.813.373.897 1.277 1.465 2.249 1.465h6.777c3.723 0 7.428-.866 10.649-2.734 3.894-2.258 6.909-5.576 8.745-10.268 3.03-7.726 3.491-15.648.855-23.54zM663.021 534.857c-4.39-2.167-1.239-5.987-2.602-9.229 2.763.781 4.843 1.483 6.975 1.945 2.884.625 5.798.641 8.586-.504 3.048-1.252 5.078-3.547 5.117-6.848.041-3.418-2.18-5.498-5.344-6.521-1.208-.392-2.49-.965-3.695-.873-3.89.295-3.788-2.097-3.648-4.798.068-1.316.475-1.877 1.816-1.882.668-.001 1.351-.292 2.002-.522 3.855-1.363 5.999-4.182 5.43-7.1-.636-3.26-3.999-5.264-8.18-4.849-.691.068-1.369.245-2.054.371-4.955.912-4.982.81-4.63-4.256.106-1.514.824-2.003 2.024-2.33 4.76-1.292 9.48-1.063 14.049.695 7.582 2.918 9.471 11.625 3.913 17.627-.538.58-1.09 1.15-1.84 1.942 6.538 2.807 9.112 7.721 8.044 14.309-1.12 6.913-5.872 10.473-12.306 12.163-2.881.66-9.098.935-13.657.66M410.61 301.724c-.309-.188-.477-1.344-.252-1.54 1.245-1.098 2.448-.483 4.015.456-1.489.762-2.441 1.889-3.763 1.084zm13.33-5.29c-1.84-.588-3.646-.455-5.471.195-1.303.462-3.017 1.022-3.87-.266-1.618-2.434-2.925-1.05-4.207.035-3.457 2.946-6.766 6.067-10.273 8.958-1.896 1.56-1.505 3.219-.728 4.989.203.462.777.945 1.26 1.05.678.155.966-.588 1.099-1.113.503-1.868 1.393-3.38 3.639-4.521.301 3.513.595 6.579 4.345 7.545.98.252 1.932.315 2.576-.483.805-.994-.119-1.596-.707-2.337-2.31-2.906-1.974-4.108 1.35-5.81 2.03-1.042 4.634-1.573 5.361-4.078.462-1.589 1.231-1.651 2.512-1.505.917.111 1.854.048 2.784-.014.701-.048 1.457-.21 1.512-1.113.056-.805-.488-1.308-1.182-1.532zM426.18 324.053c-1.646.462-1.603-1.252-2.045-2.203-1.126-2.436-2.308-4.857-4.939-5.984-1.344-.574-2.757-.832-1.778-2.791.952-1.897 2.505-2.044 4.052-1.078 3.415 2.134 5.367 5.276 5.766 9.315.021 1.097.035 2.426-1.056 2.741M439.203 299.995c-1.449 3.52-.798 7.173-.987 10.777-.07 1.301-.938 2.582-1.54 3.821-.35.714-.86 1.518-1.834 1.287-1.189-.286-.63-1.308-.643-2.03-.091-4.086-.959-7.606-5.655-8.767-.98-.245-2.148-1.064-1.944-2.177.286-1.601 1.672-.524 2.007-.601 3.639.126 5.802-1.518 7.795-3.569.526-.546 1.058-1.399 2.024-.875.819.448 1.056 1.462.777 2.134M453.219 309.946c-.05 1.084-.357 2.421-1.812 1.105-2.253-2.035-4.948-3.323-7.866-4.576 1.974-2.469 4.185-2.406 6.425-1.413 2.022.903 3.358 2.505 3.253 4.884M487.824 338.539c-2.129 7.627-3.555 15.32-3.276 23.276.05 1.344.12 3.281-1.469 3.457-1.588.182-1.834-1.813-2.31-3.058-1.168-3.067-1.483-6.291-1.575-9.539-.195-8.223 3.815-15.15 6.858-22.373.294-.706.861-1.657 1.751-1.413.832.231.846 1.24.916 2.072.216 2.589-.217 5.157-.895 7.578M514.534 364.999c-1.441 4.373-2 8.781-1.511 13.386.265 2.47.679 6.438-1.673 6.732-2.56.315-2.666-3.632-3.08-6.01-1.294-7.418-1.244-14.879.386-22.205 1.35-6.018 3.002-11.938 2.582-18.201-.062-.924-.272-2.373 1.113-2.52 1.21-.126 1.147 1.316 1.441 2.085 1.827 4.725 2.407 9.678 2.421 14.829.252 4.003-.397 8.013-1.678 11.904" fill="#1A1919"/><path d="M795.918 382.234c-.063.882-.456 1.854-.995 2.562-5.303 6.969-13.057 9.418-21.07 11.435 2.156-4.466 3.479-9.365 10.07-9.224 4.394.09 5.704-1.798 5.508-6.06-.119-2.526 1.861-1.813 2.854-1.861 1.946-.084 3.801.635 3.633 3.148zM766.1 393.598c-2.267 2.554-5.417 2.94-8.544 3.219-2.534.26-3.59-.35-2.324-3.093.616-1.322 1.77-3.177-.154-4.401-1.833-1.176-3.527-.35-5.066.959-4.786 4.072-13.632 4.584-18.909 1.21-1.581-1.014-.699-2.513-.93-3.771-.21-1.147-.084-2.526-1.268-3.024-1.084-.454-1.938.588-2.673 1.281-1.426 1.344-3.022 2.043-5.017 2.016-2.644-.042-4.401-.407-3.779-3.927.575-3.24-.699-4.199-2.946-2.526-3.799 2.82-7.102 1.966-10.489-.504-.651-.483-1.315-.98-2.037-1.329-3.002-1.455-3.618-3.009-.714-5.382 1.107-.901 3.177-2.259 1.987-3.918-1.084-1.526-3.197-.224-4.484.37-4.199 1.933-7.936 2.1-11.617-1.119-1.309-1.141-1.91-1.596-.238-3.016 1.56-1.323 4.577-3.03 3.24-5.017-1.476-2.184-3.918.349-5.787 1.189-3.226 1.442-9.321-.959-10.784-4.514-1.365-3.323-2.54-6.718-3.898-10.042-1.05-2.568.252-3.141 2.421-3.107 2.016.035 3.563 1.177 4.828 2.506 2.528 2.666 5.501 5.024 6.488 8.873.483 1.875 1.743 2.548 3.303 1.05 1.079-1.036 1.896-.868 3.023-.175 6.172 3.771 11.89 8.152 17.438 12.784 2.408 2.017.652 3.976.1 5.976-.168.63-.806 1.232-.246 1.933.721.909 1.498.125 2.226-.008 1.077-.189 2.168-.749 2.575-1.651 1.49-3.282 3.324-1.875 5.422-.749 5.417 2.904 10.931 5.619 16.655 7.895 1.044.412 2.317.496 1.785 2.28-.951 3.219 1.693 3.365 3.149 2.548 8.719-4.935 17.222.476 25.814.293 2.654-.056 3.353 2.737 1.45 4.891zm-88.922 6.6c.42-.63.812-1.554 1.848-1.183.77.273.804 1.07.93 1.756.952 5.2-.504 10.14-1.638 15.115-.16.686-.531 1.31-1.476.798-3.645-1.98-7.866-1.995-11.672-3.421-4.184-1.575-4.633-2.617-2.981-6.74.643-1.617 1.197-3.26 1.806-4.891.216-.594.223-1.197-.266-1.61-.617-.517-1.323-.315-1.918.119-1.498 1.113-2.855 2.331-3.793 4.024-2.743 4.969-13.135 5.514-16.32.888-1.42-2.07.163-3.61 1.197-4.996 2.023-2.694 4.487-5.087 5.025-8.613.266-1.722.463-3.45.553-5.185.042-.862.336-2.059-.867-2.374-1.345-.356-1.813.827-2.206 1.764-1.601 3.8-3.778 7.137-7.025 9.797-2.939 2.415-5.459 2.331-7.957-.392-.798-.874-.322-1.532-.042-2.176 2.479-5.823 1.96-12.372 4.459-18.188.349-.803.572-1.916-.379-2.554-1.021-.678-1.721.189-2.42.784-3.416 2.925-5.159 6.76-6.173 11.063-.462 1.945-.449 5.012-2.576 5.18-1.966.16-2.861-2.73-3.77-4.571-2.962-6.003-3.424-12.498-3.605-19.041-.05-1.623-.224-3.246-.294-4.87-.05-1.161-.357-2.148-1.686-2.232-1.484-.098-1.798 1.301-1.764 2.147.223 5.935-1.652 11.771-.58 17.755.95 5.346-2.219 8.53-7.678 8.16-1.546-.1-2.063-.54-2.071-2.297-.035-5.709-1.043-11.336-1.904-16.97-.104-.706-.37-1.329-1.154-1.861-2.196 2.331-1.868 5.466-2.022 8.153-.266 4.647-2.288 8.411-4.493 12.232-.699 1.21-1.791 1.602-2.953 1.392-1.393-.252-1.127-1.665-1.12-2.603.029-4.185.337-8.375.281-12.568-.099-7.425.42-14.905-1.449-22.204-.49-1.91-.693-5.2-2.814-4.906-1.923.273-1.462 3.647-1.364 5.571.615 11.504-1.183 22.723-3.596 33.89-.224 1.016-.588 2.009-.77 3.03-.246 1.386-.764 2.443-2.331 2.632-1.72.203-2.988-.588-3.716-2.044-.671-1.337-.994-2.77-.748-4.367.636-4.269-.497-8.313-1.862-12.295-.251-.741-.469-1.707-1.54-1.602-1.09.105-1.014 1.077-1.119 1.869-.735 5.297-1.063 10.65-2.75 15.78-.707 2.14-1.729 3.729-4.205 4.038-3.787.468-4.823-.309-5.123-4.143-1.021-13.212-1.505-26.5-5.466-39.3-.426-1.386-.399-3.017-2.085-4.017-2.092 3.269-1.203 6.788-1.021 10.154.643 12.204 1.659 24.388-1.631 36.438-.672 2.449-1.428 3.709-4.277 3.87-8.082.468-8.074.622-7.963-7.685.07-5.01.189-10.02.183-15.03-.008-1.252-.252-2.562-.651-3.752-.693-2.036-1.932-1.832-2.898-.265-1.56 2.54-1.938 5.423-2.028 8.376-.168 5.193-1.281 10.154-4.213 14.541-2.548 3.807-3.8 4.053-7.657 1.68-.79-.483-1.51-1.077-2.224-1.673-4.122-3.4-4.297-3.337-5.613 1.791-.853 3.311-3.022.701-4.498.798-.974.071-2.864.05-1.919-2.434 2.337-6.159 1.52-12.387-.72-18.398-1.351-3.61-1.589-7.453-2.505-11.337-1.798.589-2.093 1.834-2.129 3.059-.055 2.204-.315 4.506.176 6.606 2.232 9.481-.874 18.445-2.421 27.55-.357 2.141-1.357 3.493-4.03 2.358-2.57-1.084-5.214-.532-7.811.463-2.155.825-4.443 1.322-6.654 2.022-.882.28-2.428-.161-2.26 1.477.132 1.266 1.405 1.476 2.4 1.61 2.302.3 4.625.538 6.941.628 2.639.113 5.284.029 8.272.029-1.87 4.234-4.619 7.48-7.068 10.964-4.716 6.705-11.063 9.531-19.07 9.329-1.245-.034-3.464-.216-3.477 1.337-.013 1.616 2.281 1.595 3.632 2.002 1.721.51 3.547.657 5.319.965-3.954 7.543-10.994 7.361-17.873 7.592-1.75.064-2.065-1-1.554-2.252a844.534 844.534 0 0 1 7.557-17.978c.735-1.707 2.255-.706 3.373-.538 5.354.803 10.406-.281 15.355-2.171.958-.363 2.342-.749 2.168-1.923-.252-1.646-1.882-1.044-2.898-.987-4.372.231-8.697 1.014-13.015-.784-1.68-.7-1.82-1.099-1.063-2.59 2.315-4.59 3.835-9.467 4.652-14.54.414-2.563 1.66-3.695 4.361-3.702 6.158-.008 11.56-2.332 16.374-6.055 1.149-.887 2.827-1.972 1.918-3.616-.91-1.646-2.814-1.044-4.08-.288-4.177 2.491-8.677 2.814-13.4 2.89-2.576.043-2.736-.847-2.248-2.714 1.596-6.06 1.618-12.471 4.06-18.349.35-.834.847-1.876-.175-2.52-.986-.609-1.792.273-2.449.84-1.407 1.197-2.694 2.526-4.311 4.06-3.668-9.665-1.77-19.966-4.514-30.483-3.085 4.82-2.478 9.615-3.562 14.017-1.665-.091-1.483-1.562-1.757-2.527-1.034-3.625-1.342-7.466-4.702-10.133-1.623-1.287-.378-2.848.995-3.652 2.19-1.289 3.26-2.815 2.134-5.368-.504-1.147-.134-2.197.447-3.303 1.869-3.534 1.155-7.089-1.82-9.72-2.959-2.625-5.395-2.743-9.405-.238 2.072 1.035 4.046 1.882 5.879 2.98 1.455.882 3.317 1.877 1.182 3.954-.867.848.112 1.478.343 2.177.476 1.47.938 2.911-.524 4.374-1.618-3.106-3.577-5.766-7.914-4.996 1.084 2.281 3.19 3.736 3.644 6.06.33 1.672 2.437 4.017-1.357 4.59-.286.042-.475.966-.643 1.498-.176.567-.274 1.19-1.064 1.056-.832-.14-.601-.846-.616-1.379-.022-1.392.147-2.812-.041-4.185-.21-1.517-.945-2.812-2.78-3.197-1.027 2.323.036 4.948-1.252 7.146-.735 1.252-1.4 2.56-2.387.181-.084-.217-.125-.567-.271-.623-5.858-2.26-.735-5.66-.813-8.488-.021-.924 1.008-1.834 1.204-2.82.245-1.218.483-2.877-1.05-3.31-1.413-.407-1.147 1.399-1.764 2.079-2.49 2.741-3.702 5.933-4.54 9.536-.792 3.445-4.668 5.564-9.77 6.278 2.534-3.513 3.968-7.103 2.548-11.448-1.723-5.29-5.536-8.622-11.078-9.237-2.56-.28-4.779.231-6.662 2.211-1.84 1.925-4.003 3.45-7.432 3.8 1.953-1.995 4.353-2.59 5.564-4.548.559-.911 1.35-1.974.517-2.841-.916-.945-1.63.37-2.281.859-1.392 1.036-2.652 2.255-4.422 2.638a32.408 32.408 0 0 1-.749-.685c1.617-1.434 3.561-2.722 2.568-5.577-2.135.812-3.212 3.212-5.808 3.414-.385-1.7.909-3.051.861-4.59-.091-2.875-2.407-1.295-3.723-1.882.538-1.673 2.022-2.372 3.337-3.24 4.942-3.269 9.545-6.746 13.478-11.393 3.303-3.897 8.755-4.947 13.8-5.612 2.526-.335 3.526 2.743 5.85 3.856.735-1.813.938-3.561.827-5.381-.042-.624-.644-1.4.328-1.806.743-.308 1.378.084 1.875.58.735.736 1.386 1.554 2.087 2.324.649.714.825 2.19 2.224 1.749 1.1-.35.987-1.651.966-2.421-.21-7.362 6.803-7.851 10.629-11.448-1.028 3.582-2.246 6.955-5.129 9.433-.664.566-1.832 1.001-1.477 2.12.407 1.252 1.688 1 2.696 1.063 4.03.266 5.534-.923 7.123-5.548 1.05-.637.329-2.037 1.203-2.751 3.332 6.684-1.883 9.35-6.507 12.813 2.232.399 3.862 1.022 5.38 1.96 2.232 1.379 4.214.077 6.207-.889 1.163-.56 2.19-2.295 3.66-1.119 1.421 1.14 1.75 2.925 1.555 4.758-.31 2.82-1.631 5.319-2.436 7.971-.337 1.106-1.498 2.568.272 3.337 1.547.673 2.114-.966 2.94-1.853.077-.084.127-.197.195-.288 1.639-2.175 2.226-6.213 4.991-6.192 3.17.02 5.913 2.882 8.838 4.534 1.531.861.77 1.91.405 2.988-2.358 7.053-4.548 14.157-6.06 21.441-.35 1.68-1.323 4.067.609 4.653 1.904.575 2.694-1.952 3.122-3.54 2.029-7.501 7.927-12.82 10.951-19.741.504-1.156 1.155-.728 1.959-.42 2.596 1 5.214 1.89 7.95 2.533 3.288.77 5.255 3.863 5.262 7.753.014 6.131-2.442 11.82-3.316 17.797-.435 2.988-1.289 5.92-1.079 8.984.063.89-.252 2.038 1.008 2.296 1.176.252 1.568-.812 1.988-1.602 4.31-8.174 7.564-16.726 8.824-25.913.72-5.2 1.98-6.369 7.019-5.243 2.932.651 5.752 1.806 8.656 2.618 2.05.575 1.932 2.436 2.484 3.87 3.408 8.825 3.5 18.18 4.332 27.417.134 1.54-.336 4.017 1.329 4.199 1.61.175 1.798-2.364 2.281-3.827 2.807-8.399 2.702-16.929.89-25.494-.952-4.493-.238-5.472 4.303-5.283 4.415.189 8.831.483 13.255.651 2.77.105 4.779 1.321 6.465 3.513 5.542 7.221 6.585 15.717 7.18 24.38.134 1.966.42 3.933.749 5.886.112.643.469 1.399 1.302 1.433.832.036 1.134-.671 1.413-1.315 1.428-3.372 1.945-6.9 2.126-10.539.316-6.081-.712-12.091-.761-18.146-.035-3.14.664-4.82 4.38-4.078 2.477.497 5.143.46 7.669.174 3.878-.434 6.04 1.498 7.832 4.542 4.45 7.586 6.319 15.92 7.494 24.492.301 2.19.727 4.36 1.154 6.53.197 1 .791 1.819 1.925 1.554.93-.218.917-1.163 1.064-1.988 1.945-10.945 1.301-21.771-1.707-32.442-.602-2.135-.1-2.534 1.958-2.596 8.14-.239 11.827 1.916 15.187 9.851 3.33 7.882 5.227 16.117 4.925 24.773-.055 1.708-.937 4.473 1.484 4.696 1.812.168 1.89-2.603 2.184-4.234 1.51-8.348 1.259-16.675-.504-24.968a23.64 23.64 0 0 1-.483-3.443c-.141-2.38.35-4.772 3.072-5.08 2.694-.301 5.695.371 6.675 3.317 3.702 11.127 7.837 22.21 6.48 34.317-.237 2.072-.42 4.156-.538 6.243-.063 1.022-.132 2.301 1.07 2.637 1.085.309 1.484-.909 2.022-1.623 1.072-1.42 1.875-3.08 1.938-4.8.295-8.818 2.135-17.628.268-26.46-.428-2.036-1.1-4.023-1.709-6.024-.245-.784-.623-1.546.042-2.281.659-.722 1.394-.581 2.226-.267 4.212 1.546 7.543 3.73 8.768 8.566 2.107 8.271 2.457 16.528 1.091 24.92-.412 2.526-.678 5.072-.916 7.62-.147 1.554.07 3.408 1.714 3.751 1.413.286 1.736-1.512 2.19-2.68 3.402-8.72 4.395-17.789 3.996-27.068-.748-.728-.853-1.526-.16-2.631.35.98.644 1.805.93 2.623 1.54 3.766 3.192 7.488 4.591 11.302 3.856 10.47 3.044 20.497-3.03 29.993a21.589 21.589 0 0 0-2.029 4.031c-.294.777-1.016 1.84-.042 2.554.916.671 1.791-.196 2.497-.666 1.744-1.153 3.514-2.329 5.025-3.764 1.778-1.694 2.639-.623 3.346.868.958 2.016.777 4.002-.35 5.984-1.205 2.119-2.268 4.316-3.332 6.514-.412.853-.567 1.791.26 2.568.825.777 1.714.47 2.602.097 2.149-.901 3.464-2.651 4.703-4.519zm5.199 32.757c-.504-3.135 1.856-4.318 3.822-5.62 1.959-1.301 3.422-.07 4.674 1.477.672.832 1.441 1.197 2.694 1.098 2.135-.16 3.59 1.357 4.353 3.142.783 1.833-.063 3.576-1.785 4.422-3.841 1.883-6.774 4.235-6.627 9.056.029.79-.693 1.75-1.316 2.387-3.386 3.505-6.837 6.949-10.308 10.37-1 .988-2.218 1.66-3.554 2.135-1.301.462-2.107.832-2.485-1.239-.433-2.35-2.798-2.954-4.891-3.248-2.862-.404-5.584-1.189-8.74-2.343 3.275-1.351 6.305-1.364 9.278-1.406 10.862-.161 15.362-4.781 15.116-15.704-.034-1.512.008-3.044-.231-4.527zm2.625-22.596c5.822 5.808 7.425 8.208 8.019 12.596-1.924-3.128-3.492-2.855-5.968-1.155-2.673 1.834-4.319.582-4.585-2.666-.265-3.24.518-6.173 2.534-8.775zm-18.523 51.447c-.365.945-.197 2.401-1.834 2.423-.923-.373-1.651-.876-1.393-2.003.288-1.266 1.148-1.993 2.421-1.959.903.029 1.044.896.806 1.539zm-8.405 1.415c-1.161.063-.777-1.47-.616-2.261.406-2.037 1.882-1.974 3.94-1.42-1.266 1.538-1.518 3.589-3.324 3.68zm-2.47-4.172c-.455 1.085-.196 2.778-1.763 2.946-1.134.126-.735-1.119-.855-1.82.183-1.077-.042-2.442 1.715-2.35.791.042 1.309.266.903 1.224zm-30.007-32.161c-2.693 3.918-6.823 5.787-10.882 7.865-2.183 1.127-6.36 1.267-4.227 5.759.036.07-.042.231-.119.315-4.143 4.632-7.173 10.442-13.456 12.813-.476.175-1.428.848-1.707-.286-1.065-4.277-4.702-4.842-8.685-5.69 3.303-2.247 6.585-2.778 9.896-2.849 2.378-.048 3.827-.945 5.065-2.945 1.904-3.065 4.941-5.228 6.915-8.293 6.48-10.069 6.438-11.93-.932-21.435 1.61-1.077 3.254-2.106 4.815-3.253.693-.504 1.778-1.064 1.14-2.177-.572-1.013-1.7-.594-2.546-.427-1.925.399-3.815.96-5.717 1.464-.819.216-1.701.397-2.255-.378-2.615-3.647-5.353-7.222-7.473-11.534 4.297-.467 7.894-1.321 11.212-3.526 1.959-1.308 4.254.37 6.892.68-2.421 2.442-4.844 4.246-7.677 5.569-.882.413-2.358.916-1.966 2.072.364 1.084 1.882 1.336 3.016 1.084 3.393-.741 6.816-1.449 10.112-2.54 2.21-.728 3.253-.28 3.583 1.967.021.111.105.209.132.321.533 1.777 1.589 3.604 1.449 5.325-.154 1.946-2.799 1.526-4.08 2.632-1.323 1.133-2.778 2.113-4.143 3.199-.244.195-.321.586-.58 1.09 3.442 1.449 6.388-.279 9.399-1.09 1.231 3.45 2.42 6.961 3.736 10.418.609 1.575-.112 2.688-.917 3.85zm-41.533 29.131c-.16.099-.853-.329-1.027-.651-.77-1.483.068-2.288 1.93-3.212-.525 1.666.477 2.996-.903 3.863zm-3.317-3.771c-.391.993.113 2.555-1.476 2.805-.986.162-.944-.77-.986-1.442-.098-1.811.595-2.846 2.491-2.673.573.567.119.938-.029 1.31zm-54.45 2.344c-1 2.939-5.172 2.673-8.076-.287-1.09-1.112-2.148-2.078-4.576-2.317 3.891-.866 5.29-3.337 6.543-5.815.932-1.84 1.462-3.786 3.072-5.353 1.288-1.253 1.037-2.863-1.252-3.135-.917-.111-1.918.07-2.393-1.014-2.386-5.493-4.765-10.988-7.229-16.67 2.036-.258 3.737-.454 5.43-.699.602-.084 1.135-.441 1.224-1.058.106-.67-.44-1.035-.971-1.287-.525-.244-1.072-.601-1.617-.608-7.782-.126-8.538-6.774-10.707-11.84-1.238-2.877.406-4.557 3.457-3.975 5.99 1.127 10.707 3.918 12.19 10.363.363 1.576 1.064 2.744 2.372 3.682 1.575 1.133 2.442 2.791 2.793 4.666.294 1.562.097 2.772-1.693 3.639-1.736.84-3.157 2.323-4.69 3.563-.532.427-1.343.931-1.084 1.637.308.833 1.252.986 2.098.846.798-.132 1.639-.265 2.36-.601 1.644-.77 2.379-.294 2.308 1.476-.097 2.387.77 4.57 1.45 6.774.866 2.793 1.448 5.409-1.219 7.635-.608.512-1.112 1.554-.181 2.106 4.283 2.555 1.239 5.766.392 8.272zm-78.852-1.777c-3.791 2.009-7.249-1.84-11.342-1.147.37-1.919 1.315-2.234 2.19-2.366 2.478-.378 5.101-.252 5.346-3.912.07-1.113 1.729-.868 2.736-.994 3.233-.379 6.41.902 10.175-.196-2.239 4.416-5.62 6.767-9.105 8.615zm-12.091 7.654c-.58.785-1.155 2.269-2.255 1.478-.88-.644-.559-2.121.113-3.156.861-1.323 2.169-1.428 4.192-1.47-.945 1.462-1.456 2.337-2.05 3.148zm-7.488.204c-1.707-.623-.861-1.966-.588-2.911.448-1.526 1.777-2.016 3.296-1.995.602.007 1.154.105 1.288.848.034.42-3.61 4.198-3.996 4.058zm81.189-.372c-.182.12-.938-.215-1.058-.502-.622-1.477.071-2.491 1.877-3.898-.189 2.036.643 3.442-.819 4.4zm-3.71-2.071c-.09.196-.775.378-.832.309-1.014-1.351-.538-2.743.105-4.899 1.315 1.911 1.344 3.226.728 4.59zm-80.866-2.967c-.42 1.667-1.35 3.156-2.827 4.067-.77.475-1.295-.378-1.281-1.071.049-1.883.826-3.304 3.121-3.716.35-.05 1.155.034.987.72zm-9.46-115.282c-1.967.49-3.97.707-5.236 2.17-.93-.183-1.454-.406-1.665-1.029-.322-.945.455-.833.944-.945 1.73-.399 2.583-1.862 3.717-2.988.728-.714 1.602-1.197 2.267-.035.511.91.755 2.632-.027 2.827zm390.1 33.541c-.58-5.241-4.065-6.808-8.264-3.695-3.274 2.421-6.332 5.137-9.63 7.536-5.787 4.207-12.175 6.649-19.474 6.586-20.083-.182-38.467-5.872-55.409-16.544-11.756-7.41-22.322-16.416-33.4-24.744-9.882-7.431-20.105-14.534-31.904-18.334-12.211-3.926-25.01-5.724-37.865-5.389-15.388.407-30.749.533-46.122-.084-12.107-.488-24.192-1.105-36.187-2.974-8.874-1.385-17.235-4.745-25.954-6.738-4.193-.959-8.58-.252-12.624-2.1-9.37-4.29-18.014-9.523-25.649-16.626-4.492-4.185-9.284-7.495-10.411-14.325-.729-4.443-4.794-5.361-8.72-2.862-3.625 2.309-7.039 5.17-11.281 6.13-7.334 1.658-13.974 5.024-20.825 7.865-3.142 1.31-5.983 3.219-8.215 5.802-3.71 4.29-8.041 7.725-13.086 10.287-1.701.86-3.108 2.064-4.003 3.779-2.267 4.338 2.281 16.738 6.837 18.487 1.533.588 2.966 1.226 4.339 2.15 1.988 1.342 3.771 1.678 4.793-1.379 1.084-3.219 3.925-4.074 6.983-4.206 2.863-.126 4.947 1.323 6.166 3.779.86 1.735 2.373 4.03-1.603 4.163-.63.022-1.504.854-1.79 1.518-1.486 3.422-3.508 2.983-5.9 1.043-.68-.538-1.478-1.49-2.379-.832-.903.658-.931 1.896-.645 2.925.68 2.457 1.183 4.933 1.617 7.459.672 3.967 6.9 6.033 9.376 3.24 3.088-3.477 7.223-4.772 11.437-5.249 3.791-.433 7.858-5.199 11.608.163.105.152.517.293.63.215 2.289-1.538 4.765.113 6.865-.286 3.325-.636 4.388.98 5.478 3.275 1.303 2.722 2.57 5.458 3.878 8.173 1.812 3.765 3.366 7.635 5.487 11.267 3.91 6.697 6.864 13.73 5.212 21.763-3.639 17.656-11.295 33.841-18.6 50.133-1.651 3.695-4.849 6.081-8.705 7.677-3.415 1.42-6.62 3.358-9.894 5.115-1.841.987-3.654 2.016-5.69 2.589-3.925 1.1-6.913 7.034-5.466 10.784.315.826.924 1.351 1.73 1.596 2.357.714 4.786 1.26 7.2.567.966-.281 1.567-.288 2.533.104 7.18 2.912 14.205 3.12 20.734-1.792 5.43-4.094 10.308-8.802 14.262-14.317 7.173-10.007 15.949-18.523 24.555-27.215 1.205-1.216 2.274-2.77 4.101-3.141 2.996-.603 4.15-2.702 4.661-5.382.51-2.715.972-5.43 1.455-8.153 1.659 5.536 5.634 9.51 8.202 14.22 3.513 6.452 6.921 12.918 8.705 20.084 1.939 7.767.75 9.544-6.914 10.951-.342.064-.693.098-1.035.161-3.954.756-6.745 5.193-6.278 9.951.176 1.757 4.787 4.85 7.355 4.36 3.975-.763 7.908-.147 11.854-.252 8.3-.223 14.997-6.348 15.313-14.583.147-3.94-.407-7.957-2.192-11.554-1.623-3.274-1.938-6.669-1.77-10.188.21-4.55.245-9.069-.433-13.598-.462-3.106-.512-6.262-.82-9.391-.21-2.099.26-3.03 2.744-3.149 7.446-.364 14.808-1.476 22.134-2.932 10.826-2.155 21.966-2.406 32.687-5.275 1.036-.274 1.735.069 2.149 1.182 3.448 9.272 10.188 16.318 16.235 23.821 3.862 4.787 4.177 5.969.643 11.07-5.55 8.013-12.344 14.444-22.407 16.565-6.488 1.37-10.098 5.667-10.174 11.119-.029 1.594.328 2.715 2.043 3.135 6.382 1.546 12.883 1.833 19.39 1.42 4.227-.272 7.712-2.247 10.56-5.473 3.555-4.01 7.32-7.83 10.925-11.798a14.493 14.493 0 0 1 5.674-3.898c8.544-3.267 11.813-11.12 8.307-19.74a38.005 38.005 0 0 1-2.709-11.855c-.097-1.483.105-3.106 1.525-4.066 1.184-.804 2.31-.14 3.178.63 7.936 7.075 17.656 10.294 27.768 12.183 7.879 1.47 12.526 6.663 16.717 12.61 1.547 2.198 2.583 4.99.896 7.551-3.808 5.774-7.76 11.428-15.55 12.31-2.281.259-4.555.874-6.69 1.882-2.764 1.302-6.759 8.649-6.276 11.623.266 1.666 1.498 2.009 2.869 2.582 6.13 2.548 12.547 2.296 18.977 2.57 6.475.265 11.198-2.192 14.858-7.356 4.233-5.976 8.229-12.176 14.296-16.6 1.154-.838 1.75-2.126 2.043-3.553 1.19-5.794.462-11.085-3.743-15.606-1.162-1.252-2.485-2.54-2.555-4.443-.126-3.373-1.447-6.354-3.204-9.105-3.639-5.674-7.44-11.251-11.162-16.878-1.498-2.255-2.842-4.613-2.554-7.438.546-5.348-.601-10.4-2.289-15.41-.392-1.162-1.266-2.47-.342-3.912 4.876 3.45 9.489 6.976 14.352 10.111 23.274 15.04 48.544 23.996 76.494 23.654 13.485-.162 25.164-5.353 33.988-15.921 2.736-3.282 4.472-7.131 3.974-11.574zM739.867 2.341c-.448.078-.22.003.008.004 3.609.029 7.924-1.138 10.628.444 2.708 1.587 2.7 6.333 3.851 9.698 3.911 11.412 7.671 22.873 11.538 34.3.431 1.27.537 2.75 1.824 3.743 3.569-13.293 7.118-26.504 10.663-39.714.798-2.976.751-5.936-.449-8.915h16.073c-8.02 21.944-13.526 44.669-20.366 66.981-.72 2.348-1.722 3.005-4.09 2.954-6.589-.142-6.577-.03-8.738-6.231-4.738-13.59-9.493-27.173-14.233-40.761-.342-.98-.503-2.037-1.476-2.955-5.252 15.324-10.445 30.563-15.734 45.767-.496 1.426-.378 3.742-2.217 3.968-2.857.353-5.838.267-8.688-.157-1.19-.177-1.056-2.192-1.405-3.367a9842.031 9842.031 0 0 1-16.795-57.137c-.902-3.108-1.996-6.085-4.31-9.117 5.762 0 10.962.016 16.16-.01 1.674-.01 1.678.75 1.038 1.936-1.014 1.88-.825 3.913-.322 5.806 3.54 13.352 7.176 26.678 10.79 40.009.118.44.328.857.69 1.783 4.988-16.542 11.198-32.214 15.56-49.029M460.526 62.503c-14.047.048-24.311-10.861-24.305-25.822.007-14.976 9.888-25.325 24.185-25.332 13.981 0 24.241 10.804 24.241 25.534 0 14.884-10.063 25.57-24.121 25.62zM459.433.243c-21.287.427-37.459 16.801-36.913 37.383.567 21.49 16.767 36.514 38.823 36.003 21.154-.49 37.207-16.676 36.787-37.096-.447-21.931-16.226-36.732-38.697-36.29zM944.992 40.831c-1.511 11.7-10.189 19.719-22.141 20.23-5.234.217-10.49-.07-15.73.098-2.043.063-2.226-.825-2.219-2.463.063-7.341.029-14.688.029-22.029 0-7.229.063-14.459-.043-21.68-.028-2.057.594-2.73 2.694-3.002 7.376-.959 14.647-.896 21.749 1.456 11.652 3.849 17.404 13.981 15.661 27.39zm-5.01-35.724c-8.419-3.94-17.368-4.823-26.515-4.521-6.507.216-12.945 1.707-19.482 1.21-3.03-.23-3.317.694-2.03 3.143 1.064 2.022.806 4.317.806 6.522.021 14.905.006 29.817.014 44.723 0 5.206.37 10.462-2.456 15.59 11.036 0 21.623.029 32.211-.005 19.013-.064 32.687-11.456 35.402-30.253 2.1-14.527-3.262-29.545-17.95-36.409zM329.077 31.755c-3.995 1.699-8.187 1.497-12.387 1.329-1.693-.071-1.693-1.204-1.685-2.435.02-2.673.007-5.354.007-8.034 0-2.68-.007-5.361.006-8.04.008-.903-.21-2.016 1.26-1.96 3.94.162 7.936-.546 11.813.582 4.408 1.273 6.571 3.91 6.844 8.145.329 5.172-1.603 8.607-5.858 10.413zm20.483 24.331c-4.71-5.459-9.224-11.064-13.262-17.075.337-.23.61-.448.911-.623 8.558-4.877 11.455-10.742 10.14-20.567-1.015-7.635-6.404-13.029-15.396-14.975-8.51-1.84-17.18-.756-25.773-1-1.673-.042-3.338-.008-5.606-.008 2.366 3.359 2.29 6.488 2.29 9.629-.022 15.15 0 30.302-.014 45.452-.008 4.962.51 10-2.345 14.737h16.731c-1.336-3.653-2.35-7.18-2.252-10.946.105-3.721.028-7.459.028-11.188 0-5.858.006-5.655 5.858-5.997 3.064-.189 4.792.727 6.401 3.366 4.01 6.549 8.651 12.687 13.583 18.593 5.873 7.039 14.934 9.336 24.01 5.955-5.843-4.478-10.594-9.902-15.304-15.353zM193.245 17.344c-10.21-6.353-20.816-7.386-31.68-4.979-12.184 2.7-19.173 12.612-18.684 25.48.492 12.919 8.166 21.754 20.619 23.968 6.078 1.08 12.03.712 17.988-.721 2.207-.532 3.408-1.447 3.16-4.022-.265-2.77-.133-5.59-.04-8.383.117-3.53-.027-6.963-2.806-10.188h17.389c-4.415 8.615-1.736 18.022-2.151 27.146-.157 3.466-1.105 4.661-4.392 5.216-10.683 1.806-21.304 3.558-32.232 2.19-16.845-2.108-28.976-14.742-30.759-31.54-2.304-21.69 13.155-40.309 37.19-41.248 8.18-.319 16.261.93 24.398 1.155 1.505.042 2.047.527 2.024 2.038-.069 4.414-.024 8.83-.024 13.888M1020.654 27.457v16.827c-5.697-5.797-12.723-3.526-19.261-4.011-2.057-.153-1.853 1.185-1.85 2.488.009 5.364.09 10.731-.042 16.092-.048 2.005.582 2.535 2.544 2.513 9.506-.111 19.058.279 28.668-4.246-1.502 4.939-2.783 9.1-4.026 13.273-.384 1.284-1.297 1.398-2.434 1.397-12.938-.025-25.877-.016-39.381-.016 3.118-4.906 2.341-10.057 2.356-15.093.039-14.227.024-28.454.008-42.682-.005-4.016.55-8.112-2.015-12.155 12.969 0 25.412.021 37.852-.027 1.622-.005 1.949.726 1.93 2.129-.054 3.838-.02 7.678-.02 12.063-7.435-5.2-15.543-2.851-23.293-3.428-1.673-.124-2.218.449-2.179 2.143.104 4.546.026 9.096.044 13.643.003.986-.322 2.204 1.394 2.166 4.66-.103 9.327-.06 13.98-.292 2.082-.105 3.71-1.674 5.725-2.784M227.976 1.843c13.22 0 25.665.015 38.112-.02 1.497-.004 2.077.538 2.053 2.045-.061 3.834-.019 7.67-.019 12.162-7.397-5.138-15.453-2.909-23.18-3.46-1.975-.142-2.607.475-2.537 2.485.148 4.306.125 8.623.007 12.933-.053 1.872.348 2.704 2.442 2.59 3.253-.175 6.525-.09 9.787-.034 3.273.055 6.173-.899 9.004-3.355v16.966c-5.558-5.547-12.543-3.455-19.088-3.892-1.749-.117-2.161.592-2.137 2.214.08 5.476.127 10.957-.02 16.43-.055 2.075.669 2.486 2.582 2.458 9.516-.143 19.102.356 28.749-4.325-1.536 5.075-2.847 9.452-4.192 13.818-.313 1.021-1.238.91-2.041.91-13.035.007-26.07.005-39.623.005 3.052-4.882 2.496-9.931 2.501-14.896.01-15.268-.013-30.533.018-45.8.007-3.05-.121-6.032-2.418-9.234M858.04 16.047c-7.801-5.284-16.042-2.879-23.915-3.436-1.211-.085-1.596.584-1.589 1.723.029 4.78.024 9.562.002 14.344-.005 1.053.159 1.869 1.466 1.842 4.776-.096 9.56-.052 14.324-.342 1.905-.116 3.494-1.527 5.349-2.958v16.896c-5.667-5.416-12.536-3.455-19-3.847-1.735-.105-2.178.654-2.159 2.26.069 5.598.066 11.196.003 16.794-.018 1.529.553 2.035 2.038 2.016 9.757-.127 19.613.517 29.26-4.404-1.508 4.91-2.885 9.291-4.183 13.697-.313 1.058-1.033 1.135-1.868 1.135-12.596.006-25.19-.009-37.786.021-1.957.005-1.717-.73-1.04-2.091 1.265-2.544 1.555-5.312 1.549-8.147-.034-16.093-.038-32.186-.001-48.28.009-3.828.186-7.651-2.374-11.427 12.989 0 25.42.026 37.85-.027 1.802-.008 2.122.834 2.096 2.364-.065 3.719-.022 7.438-.022 11.867M635.802 55.273c4.6 2.925 8.68 5.535 13.473 6.78 2.657.69 5.298.869 7.955.486 6.53-.939 9.464-7.794 5.719-13.238-1.479-2.149-3.528-3.694-5.673-5.111-3.882-2.566-7.876-4.974-11.65-7.69-7.824-5.626-10.737-14.065-8.038-22.657C640.125 5.768 647.38.703 656.777.262c4.694-.219 9.293.577 13.93.974 1.15.097 2.212.196 2.153 1.956-.139 4.04-.044 8.089-.044 12.658-3.86-2.544-7.557-4.373-11.769-4.863-1.748-.204-3.455-.276-5.202.132-6.75 1.575-8.957 8.102-4.44 13.362 2.16 2.515 5.038 4.122 7.827 5.802 3.093 1.861 6.198 3.691 9.012 5.97 7.305 5.914 10.34 13.494 7.896 22.621-2.334 8.715-8.75 12.982-17.428 14.428-7.632 1.27-14.732-1.459-22.048-2.558-1.357-.203-.829-1.493-.838-2.317-.053-4.187-.024-8.375-.024-13.154M521.559 71.629c2.783-3.836 2.43-7.95 2.427-12.014-.006-16.323-.016-32.646.014-48.97.004-2.354-.035-4.671-1.24-6.775-.823-1.438-.604-2.054 1.197-2.048 12.126.039 24.253.043 36.377-.008 1.589-.007 1.967.622 1.94 2.063-.07 3.834-.023 7.668-.023 11.93-7.756-5.153-16.21-2.558-24.29-3.213-1.489-.122-1.695.673-1.687 1.9.038 5.48.033 10.96.005 16.44-.006 1.105.22 1.741 1.53 1.71 4.776-.117 9.558-.066 14.329-.273 2.101-.092 3.831-1.406 5.727-3.074v17.081c-5.913-5.937-13.307-3.498-20.18-3.987-1.091-.078-1.4.556-1.393 1.518.051 7.111-.057 14.227.228 21.328.086 2.095 1.277 4.144 2.02 6.392H521.56M.906 16.186c.84-4.745 1.61-8.806 2.254-12.888.24-1.52 1.245-1.454 2.303-1.454 17.24-.003 34.477.02 51.717-.034 1.812-.005 2.181.702 1.935 2.296-.585 3.773-1.093 7.558-1.707 11.862-5.864-4.696-12.538-3.07-18.928-3.38-1.53-.075-2.351.276-2.318 2.082.313 17.107-.544 34.227.498 51.325.113 1.834.686 3.642 1.076 5.617h-14.87c2.51-18.7.67-37.504 1.305-56.25.081-2.405-.745-2.954-2.934-2.805-2.55.175-5.125.122-7.683.023-4.377-.168-8.589.206-12.648 3.606M103.712 71.663H86.754c3.625-6.968 2.32-14.257 2.406-21.385.145-12.242.017-24.486.056-36.73.01-3.299-.221-6.548-1.707-9.533-.863-1.734-.487-2.229 1.384-2.196 4.197.075 8.395.048 12.594.012 1.565-.014 2.18.29 1.31 1.989-1.577 3.08-1.743 6.435-1.73 9.85.062 14.226.018 28.453.03 42.678.005 5.093-.558 10.265 2.615 15.316M594.414 513.864c-5.438-.043-9.132-4.136-9.138-10.127-.007-6.039 3.624-10.104 9.075-10.167 5.55-.063 9.468 4.227 9.399 10.28-.07 5.912-3.933 10.055-9.336 10.014zm.042-27.223c-9.888.015-17.298 7.349-17.284 17.09.014 9.726 7.48 17.075 17.341 17.061 9.93-.015 17.221-7.264 17.207-17.11-.022-9.853-7.313-17.054-17.264-17.04zM426.387 519.637c-4.299 0-4.146.01-3.873-4.164.544-8.361.64-16.741-.125-25.09-.21-2.297.218-3.281 2.613-2.903.455.072.93.01 1.397.01 4.458 0 4.147-.01 4.005 4.445a365.66 365.66 0 0 0-.01 23.37c.137 4.344.462 4.334-4.007 4.332" fill="#1A1919"/><path d="M410.61 301.724c-.309-.188-.477-1.344-.252-1.54 1.245-1.098 2.448-.483 4.015.456-1.489.762-2.441 1.889-3.763 1.084zm13.33-5.29c-1.84-.588-3.646-.455-5.471.195-1.303.462-3.017 1.022-3.87-.266-1.618-2.434-2.925-1.05-4.207.035-3.457 2.946-6.766 6.067-10.273 8.958-1.896 1.56-1.505 3.219-.728 4.989.203.462.777.945 1.26 1.05.678.155.966-.588 1.099-1.113.503-1.868 1.393-3.38 3.639-4.521.301 3.513.595 6.579 4.345 7.545.98.252 1.932.315 2.576-.483.805-.994-.119-1.596-.707-2.337-2.31-2.906-1.974-4.108 1.35-5.81 2.03-1.042 4.634-1.573 5.361-4.078.462-1.589 1.231-1.651 2.512-1.505.917.111 1.854.048 2.784-.014.701-.048 1.457-.21 1.512-1.113.056-.805-.488-1.308-1.182-1.532zM426.18 324.053c-1.646.462-1.603-1.252-2.045-2.203-1.126-2.436-2.308-4.857-4.939-5.984-1.344-.574-2.757-.832-1.778-2.791.952-1.897 2.505-2.044 4.052-1.078 3.415 2.134 5.367 5.276 5.766 9.315.021 1.097.035 2.426-1.056 2.741M439.203 299.995c-1.449 3.52-.798 7.173-.987 10.777-.07 1.301-.938 2.582-1.54 3.821-.35.714-.86 1.518-1.834 1.287-1.189-.286-.63-1.308-.643-2.03-.091-4.086-.959-7.606-5.655-8.767-.98-.245-2.148-1.064-1.944-2.177.286-1.601 1.672-.524 2.007-.601 3.639.126 5.802-1.518 7.795-3.569.526-.546 1.058-1.399 2.024-.875.819.448 1.056 1.462.777 2.134M453.219 309.946c-.05 1.084-.357 2.421-1.812 1.105-2.253-2.035-4.948-3.323-7.866-4.576 1.974-2.469 4.185-2.406 6.425-1.413 2.022.903 3.358 2.505 3.253 4.884M487.824 338.539c-2.129 7.627-3.555 15.32-3.276 23.276.05 1.344.12 3.281-1.469 3.457-1.588.182-1.834-1.813-2.31-3.058-1.168-3.067-1.483-6.291-1.575-9.539-.195-8.223 3.815-15.15 6.858-22.373.294-.706.861-1.657 1.751-1.413.832.231.846 1.24.916 2.072.216 2.589-.217 5.157-.895 7.578M514.534 364.999c-1.441 4.373-2 8.781-1.511 13.386.265 2.47.679 6.438-1.673 6.732-2.56.315-2.666-3.632-3.08-6.01-1.294-7.418-1.244-14.879.386-22.205 1.35-6.018 3.002-11.938 2.582-18.201-.062-.924-.272-2.373 1.113-2.52 1.21-.126 1.147 1.316 1.441 2.085 1.827 4.725 2.407 9.678 2.421 14.829.252 4.003-.397 8.013-1.678 11.904" fill="#1A1919"/><path d="M514.534 364.999c-1.441 4.373-2 8.781-1.511 13.386.265 2.47.679 6.438-1.673 6.732-2.56.315-2.666-3.632-3.08-6.01-1.294-7.418-1.244-14.879.386-22.205 1.35-6.018 3.002-11.938 2.582-18.201-.062-.924-.272-2.373 1.113-2.52 1.21-.126 1.147 1.316 1.441 2.085 1.827 4.725 2.407 9.678 2.421 14.829.252 4.003-.397 8.013-1.678 11.904M410.61 301.724c-.309-.188-.477-1.344-.252-1.54 1.245-1.098 2.448-.483 4.015.456-1.489.762-2.441 1.889-3.763 1.084zm13.33-5.29c-1.84-.588-3.646-.455-5.471.195-1.303.462-3.017 1.022-3.87-.266-1.618-2.434-2.925-1.05-4.207.035-3.457 2.946-6.766 6.067-10.273 8.958-1.896 1.56-1.505 3.219-.728 4.989.203.462.777.945 1.26 1.05.678.155.966-.588 1.099-1.113.503-1.868 1.393-3.38 3.639-4.521.301 3.513.595 6.579 4.345 7.545.98.252 1.932.315 2.576-.483.805-.994-.119-1.596-.707-2.337-2.31-2.906-1.974-4.108 1.35-5.81 2.03-1.042 4.634-1.573 5.361-4.078.462-1.589 1.231-1.651 2.512-1.505.917.111 1.854.048 2.784-.014.701-.048 1.457-.21 1.512-1.113.056-.805-.488-1.308-1.182-1.532zM487.824 338.539c-2.129 7.627-3.555 15.32-3.276 23.276.05 1.344.12 3.281-1.469 3.457-1.588.182-1.834-1.813-2.31-3.058-1.168-3.067-1.483-6.291-1.575-9.539-.195-8.223 3.815-15.15 6.858-22.373.294-.706.861-1.657 1.751-1.413.832.231.846 1.24.916 2.072.216 2.589-.217 5.157-.895 7.578M439.203 299.995c-1.449 3.52-.798 7.173-.987 10.777-.07 1.301-.938 2.582-1.54 3.821-.35.714-.86 1.518-1.834 1.287-1.189-.286-.63-1.308-.643-2.03-.091-4.086-.959-7.606-5.655-8.767-.98-.245-2.148-1.064-1.944-2.177.286-1.601 1.672-.524 2.007-.601 3.639.126 5.802-1.518 7.795-3.569.526-.546 1.058-1.399 2.024-.875.819.448 1.056 1.462.777 2.134M426.18 324.053c-1.646.462-1.603-1.252-2.045-2.203-1.126-2.436-2.308-4.857-4.939-5.984-1.344-.574-2.757-.832-1.778-2.791.952-1.897 2.505-2.044 4.052-1.078 3.415 2.134 5.367 5.276 5.766 9.315.021 1.097.035 2.426-1.056 2.741M453.219 309.946c-.05 1.084-.357 2.421-1.812 1.105-2.253-2.035-4.948-3.323-7.866-4.576 1.974-2.469 4.185-2.406 6.425-1.413 2.022.903 3.358 2.505 3.253 4.884" fill="#1A1919"/></g></svg>