<?xml version="1.0" encoding="UTF-8"?>
<svg width="170px" height="122px" viewBox="0 0 170 122" version="1.1" xmlns="http://www.w3.org/2000/svg" xmlns:xlink="http://www.w3.org/1999/xlink">
    <!-- Generator: Sketch 52.4 (67378) - http://www.bohemiancoding.com/sketch -->
    <title>Logo - Stass - Vektor Black Copy</title>
    <desc>Created with Sketch.</desc>
    <g id="Page-1" stroke="none" stroke-width="1" fill="none" fill-rule="evenodd">
        <g id="Mobile" transform="translate(-167.000000, -105.000000)">
            <g id="Header" transform="translate(-236.000000, 88.000000)">
                <g id="Logo" transform="translate(348.000000, 0.000000)">
                    <g id="Logo---Stass---Vektor-Black-Copy" transform="translate(0.000000, 12.000000)">
                        <path d="M166.665429,86.0824281 C166.670947,84.9751934 166.468631,83.8734857 166.564731,82.7653298 C166.579445,82.5926122 166.361036,82.2784966 166.754172,82.2453348 C167.081095,82.2177 167.349162,82.197895 167.467333,82.6755167 C167.677465,83.5239053 168.037954,84.338211 168.566273,85.0424381 C169.828444,86.7304644 171.58169,87.2592104 173.451266,86.4826723 C174.465142,86.061702 174.866553,84.6297583 174.609061,83.5473949 C174.27754,82.1555217 173.261826,81.5724272 172.049314,81.1123076 C170.784383,80.6333042 169.47991,80.2464169 168.38143,79.3699329 C167.492622,78.6601789 167.113281,77.7486907 167.003387,76.6833688 C166.699914,73.7204567 169.750736,71.6985098 172.356465,72.2954216 C173.015829,72.4464919 173.628292,72.6560559 174.204891,72.9853707 C174.558483,73.1871048 174.849541,73.2432956 175.009554,72.7813337 C175.076685,72.5888112 175.196695,72.5468984 175.381078,72.5326204 C175.738808,72.5059068 175.928709,72.5353839 175.92411,73.012545 C175.912155,74.3413187 175.987104,75.670553 176.010094,76.9997874 C176.012853,77.1550029 176.172406,77.445629 175.797204,77.445629 C175.511663,77.4465501 175.212788,77.5101102 175.125425,77.0960486 C174.958975,76.3029296 174.633891,75.5706072 174.272023,74.8461146 C173.463681,73.2257936 171.277297,72.4971558 169.773267,73.6481456 C169.198968,74.0870785 168.81181,75.184641 169.033897,75.9662455 C169.33691,77.0343309 170.059727,77.686973 171.05567,78.1217606 C172.426356,78.7209754 173.89544,79.1060204 175.130023,80.0069152 C176.413346,80.9437353 176.886947,82.3623222 176.612902,83.9504025 C176.25839,86.0045901 174.859197,87.0418166 173.0356,87.5595087 C171.717792,87.9334998 170.374695,87.7096578 169.09827,87.1933474 C168.933659,87.1265633 168.735942,87.1067584 168.601678,87.0022067 C168.11796,86.6245309 167.766668,86.5780123 167.486185,87.2467747 C167.373072,87.5157536 167.004307,87.3867911 166.770725,87.3494841 C166.562892,87.3163223 166.681522,87.0685302 166.670947,86.9183811 C166.652094,86.6406513 166.665429,86.3610791 166.665429,86.0824281" id="Fill-7" fill="#000000"></path>
                        <path d="M150.499553,85.911788 C150.501398,84.7815457 150.307196,83.6573128 150.393918,82.5256836 C150.407295,82.365277 150.231544,82.077747 150.60565,82.0745112 C150.891649,82.0717376 151.179032,82.0116429 151.286052,82.4198245 C151.513006,83.2925842 151.869583,84.1135701 152.395914,84.853197 C153.656156,86.6222921 155.545136,87.1136818 157.3211,86.3199696 C158.293036,85.8863634 158.782926,84.503261 158.493697,83.4123113 C158.127434,82.0268977 157.135661,81.3977525 155.884184,80.935948 C154.629477,80.4732189 153.345247,80.0724336 152.249685,79.2181645 C151.378771,78.5395568 150.967301,77.6612498 150.846904,76.6438006 C150.47695,73.5128674 153.564359,71.521422 156.172028,72.0872365 C156.910091,72.2462563 157.58219,72.5060503 158.22292,72.8647693 C158.514455,73.0279495 158.647307,72.9586095 158.79538,72.704825 C158.888561,72.5462675 158.925925,72.332238 159.205467,72.3266908 C159.577266,72.3192945 159.792688,72.3225304 159.788536,72.8305616 C159.774236,74.1642014 159.85081,75.4987657 159.874336,76.8319432 C159.877104,76.977095 160.025178,77.2447474 159.697201,77.2567664 C159.420889,77.2669363 159.084609,77.3626255 158.993735,76.9470476 C158.782003,75.9721269 158.430039,75.0485178 157.86496,74.2289187 C156.945149,72.8952789 154.983285,72.3576626 153.510389,73.5165655 C153.000664,73.9191999 152.686065,75.0961313 152.882113,75.7918428 C153.186564,76.8693868 153.92601,77.4989942 154.92055,77.9446194 C156.274896,78.5492644 157.721038,78.9375685 158.960983,79.8191114 C160.249364,80.7348619 160.688051,82.256182 160.488774,83.8066249 C160.243829,85.719485 158.150037,87.2283239 156.493085,87.4760989 C154.838441,87.7229494 153.379382,87.292579 151.952153,86.5876221 C151.74688,86.4854612 151.706747,86.4618855 151.610338,86.6634339 C151.527306,86.8400198 151.426283,87.0295492 151.279593,87.148814 C151.082623,87.3110697 150.808617,87.2491259 150.586737,87.2015125 C150.418828,87.1663802 150.50924,86.9444921 150.503244,86.8071989 C150.490327,86.509499 150.499553,86.2104124 150.499553,85.911788" id="Fill-9" fill="#000000"></path>
                        <path d="M98.0508945,86.040708 C98.0458311,84.9148808 97.86033,83.7945814 97.9454856,82.666451 C97.9565328,82.5190432 97.7963482,82.255091 98.1263838,82.2454174 C98.4025642,82.2366651 98.7270761,82.1417713 98.8283423,82.5558951 C99.0479057,83.449555 99.4110829,84.2893189 99.9519362,85.0305038 C101.191526,86.7275363 102.996365,87.2858434 104.82606,86.4741792 C105.845626,86.0222821 106.304546,84.6845561 106.015477,83.5555044 C105.662886,82.1777019 104.670478,81.5733299 103.453443,81.1140624 C102.187156,80.6359083 100.882204,80.2480415 99.7793234,79.3783353 C98.8996889,78.6855186 98.5065921,77.7918587 98.3933581,76.7503304 C98.0605608,73.7003705 101.137671,71.7158927 103.735608,72.2894013 C104.490501,72.4556957 105.162079,72.7505114 105.829055,73.0955378 C106.037571,73.2037904 106.166916,73.2162279 106.269102,72.9656346 C106.328481,72.8196088 106.425605,72.6597634 106.551267,72.5759252 C106.896953,72.342376 107.292811,72.5791498 107.303858,72.9978801 C107.33746,74.3263931 107.38303,75.656288 107.405585,76.9866435 C107.408347,77.143725 107.565769,77.4302489 107.205814,77.4422258 C106.92411,77.4518994 106.615709,77.5219181 106.522268,77.1087156 C106.306387,76.1593171 105.952876,75.2670392 105.412023,74.4493865 C104.55126,73.1485125 102.571507,72.547365 101.079212,73.6920788 C100.546184,74.1006748 100.237783,75.2642753 100.443998,75.9985505 C100.747336,77.079234 101.489801,77.6872913 102.484971,78.1290541 C103.837334,78.7302016 105.288662,79.110698 106.513982,80.0020547 C107.838267,80.964812 108.276013,82.4048021 108.014563,83.939686 C107.665194,85.9868121 106.271404,87.040778 104.440328,87.5553234 C103.103154,87.9307527 101.742966,87.7243817 100.454124,87.1679172 C100.11074,87.0191274 99.729611,86.9463448 99.4414627,86.691145 C99.2665485,86.5368275 99.2324862,86.6966728 99.170806,86.7864995 C99.0598735,86.9481874 98.9853048,87.1398176 98.8518176,87.2770911 C98.6617134,87.4728671 98.3896757,87.3894896 98.1687314,87.3554015 C97.9348987,87.3176283 98.0688462,87.0771693 98.057799,86.932986 C98.0352442,86.6367884 98.0508945,86.3382876 98.0508945,86.040708" id="Fill-11" fill="#000000"></path>
                        <path d="M142.410599,87.1408079 C141.49822,87.1408079 140.586302,87.131207 139.674845,87.1472085 C139.393332,87.1513232 139.277957,87.0905173 139.296879,86.7878595 C139.313031,86.5318347 139.282572,86.3498742 139.659615,86.3498742 C140.028813,86.3498742 140.401703,86.2291768 140.767208,86.1391109 C141.237474,86.022071 141.309467,85.6654651 141.165942,85.2910288 C140.787976,84.3153915 140.377243,83.3520982 140.076809,82.3476581 C140.023275,82.1684408 139.916208,82.0340278 139.646232,82.0376853 C138.08268,82.0596303 136.519128,82.0587159 134.956499,82.0376853 C134.696676,82.0349422 134.57438,82.1419239 134.510693,82.3321138 C134.201952,83.2588321 133.883519,84.1828072 133.622773,85.122784 C133.506014,85.5424817 133.662923,85.8785143 134.149802,86.0476735 C134.560535,86.1912303 134.981882,86.3265577 135.398152,86.344388 C135.867494,86.3649614 135.697202,86.6452171 135.729968,86.862381 C135.780733,87.2038997 135.53614,87.1408079 135.340926,87.1408079 C133.758914,87.1417223 132.177364,87.1426367 130.595352,87.1389792 C130.446289,87.1380648 130.204926,87.2057285 130.263536,86.9291303 C130.302763,86.7380261 130.050324,86.4125088 130.462903,86.3667901 C132.215207,86.1692853 132.643476,84.7785221 133.15943,83.4577085 C134.199644,80.7973366 135.245858,78.1387935 136.292995,75.4807076 C136.689421,74.4744387 137.133842,73.4841714 137.478119,72.4609866 C137.602262,72.0892935 137.812243,72.2141056 138.015302,72.1999328 C138.22759,72.18576 138.420957,72.1597003 138.534024,72.461901 C139.126125,74.0391966 139.75053,75.6041481 140.365244,77.1745859 C141.192709,79.2890763 142.020634,81.4035667 142.849021,83.5180572 C142.991163,83.8819781 143.164685,84.235841 143.276368,84.6070769 C143.576341,85.6046592 144.253357,86.20266 145.266343,86.3453023 C145.745838,86.4125088 145.51832,86.6936789 145.558009,86.8930125 C145.619388,87.2011566 145.375718,87.1398936 145.201733,87.1398936 C144.271355,87.1417223 143.341439,87.1408079 142.410599,87.1408079 Z M137.245571,75.2905635 C137.204959,75.4940117 137.201728,75.5580179 137.179577,75.6156235 C136.50856,77.3351043 135.839389,79.054585 135.159143,80.7699511 C135.083457,80.9628841 134.892859,81.1603889 135.295284,81.1613033 C136.700081,81.1649608 138.104417,81.163132 139.565055,81.163132 C138.789278,79.1999705 138.042576,77.3095018 137.245571,75.2905635 Z" id="Combined-Shape" fill="#000000"></path>
                        <path d="M119.974572,72.3999352 C121.95935,72.3999352 123.944129,72.4113763 125.928908,72.3903246 C126.320623,72.3857482 126.423609,72.4836842 126.412115,72.8722248 C126.38177,73.8868238 126.410276,74.903711 126.393264,75.9187677 C126.390966,76.0766552 126.564295,76.361768 126.208901,76.3851079 C125.930747,76.4038714 125.633283,76.467484 125.508229,76.0757399 C125.33444,75.5311423 125.050309,75.0396316 124.737673,74.5563585 C124.156078,73.6543401 123.392419,73.2131703 122.282101,73.2717489 C121.060982,73.3358192 121.058223,73.2863935 121.058223,74.5069328 C121.058223,77.8848107 121.077073,81.2640614 121.048568,84.6423969 C121.037534,85.9773474 121.627864,86.0482824 122.498648,86.2441545 C122.689447,86.2867155 122.898638,86.345294 123.079783,86.3434634 C123.556553,86.3398023 123.362534,86.6642726 123.393338,86.8757046 C123.445751,87.2290066 123.174953,87.1361046 122.994268,87.1370199 C120.953858,87.1406811 118.913448,87.1388505 116.873039,87.1397658 C116.670745,87.1397658 116.445003,87.1878185 116.490979,86.8519071 C116.522243,86.6258304 116.389832,86.3919738 116.829821,86.33248 C117.23257,86.2784779 117.648192,86.2729861 118.056458,86.1654395 C118.637133,86.0130437 118.818278,85.613062 118.820577,85.1384841 C118.839887,81.316233 118.827473,77.4944395 118.838967,73.6721883 C118.839887,73.3568709 118.750694,73.2621384 118.438518,73.2799865 C117.921289,73.3106487 117.398543,73.2648842 116.884993,73.3161405 C115.785249,73.4259753 115.323652,74.2955008 114.815158,75.1064478 C114.612864,75.4281722 114.511718,75.7878812 114.351262,76.1247079 C114.292413,76.2478144 114.245977,76.4029561 114.010121,76.4020408 C113.645532,76.4020408 113.451514,76.3832774 113.472663,75.9146489 C113.520018,74.8817441 113.504846,73.846551 113.47818,72.812731 C113.469444,72.4630902 113.571511,72.3894093 113.909434,72.3916975 C115.930993,72.4081728 117.953012,72.3999352 119.974572,72.3999352" id="Fill-15" fill="#000000"></path>
                        <path d="M151.959538,97.5182455 C153.359129,97.5182455 154.725942,97.5191499 156.093224,97.517341 C156.243531,97.517341 156.283332,97.5915032 156.282396,97.7203826 C156.279118,98.0310497 156.280991,98.3408124 156.280991,98.6510273 C156.280991,98.7473477 156.26788,98.8328151 156.134898,98.8301018 C156.037034,98.828293 155.973353,98.8165356 155.936361,98.6989614 C155.826791,98.3516654 155.626382,97.9568875 155.294394,97.884082 C154.79056,97.7737432 154.243179,97.8474531 153.714528,97.8506186 C153.502412,97.8524274 153.564221,98.0224577 153.562348,98.135962 C153.555792,98.4828058 153.522547,98.8346239 153.572181,99.1742323 C153.608236,99.4247557 153.326351,99.798732 153.749647,99.9167584 C154.421581,100.10352 154.789624,99.9054532 155.048096,99.3496892 C155.101476,99.2339238 155.113183,98.993349 155.3651,99.0571104 C155.589858,99.1131842 155.477947,99.2981374 155.481225,99.4211381 C155.496677,99.894148 155.492931,100.369419 155.483566,100.843333 C155.481225,100.950054 155.5627,101.107875 155.338878,101.132747 C155.140341,101.156261 155.126762,100.997989 155.091175,100.900312 C154.976923,100.587383 154.854242,100.297518 154.455764,100.255915 C153.560475,100.159594 153.560475,100.160951 153.560475,101.032809 C153.560475,102.566699 153.561411,102.530975 155.141277,102.571221 C155.863783,102.589762 156.023455,102.088715 156.263198,101.660474 C156.361998,101.484565 156.413037,101.292376 156.627026,101.367443 C156.852721,101.446579 156.697731,101.620227 156.638732,101.760412 C156.612042,101.823721 156.626089,101.902857 156.621407,101.975663 C156.5699,102.882793 156.5699,102.882793 155.633874,102.882793 C154.537707,102.882793 153.442477,102.887315 152.347246,102.877819 C152.213328,102.876914 151.96422,102.998106 151.978736,102.703266 C151.99091,102.459074 152.205836,102.55449 152.326643,102.561273 C152.689535,102.583431 152.774288,102.413401 152.771478,102.097759 C152.758836,100.930609 152.747598,99.7621032 152.776161,98.5958579 C152.787399,98.1499805 152.666591,97.8727768 152.193193,97.777813 C152.121083,97.7633424 152.000275,97.7552026 151.959538,97.5182455" id="Fill-19" fill="#000000"></path>
                        <path d="M121.080845,100.492536 L123.451683,100.492536 C123.543741,100.492536 123.662167,100.490675 123.638575,100.622351 C123.617757,100.734951 123.528475,100.833127 123.402647,100.823356 C122.984917,100.789855 122.977978,101.050881 122.975202,101.361693 C122.965025,102.665429 122.960399,102.671012 121.673439,102.997644 C120.612691,103.266115 119.679621,103.01486 118.931593,102.214565 C118.030905,101.250024 118.08503,99.4358683 118.782635,98.4452712 C119.600516,97.2834483 121.096573,97.0759301 122.230412,97.5658778 C122.312293,97.6003091 122.406664,97.6756857 122.476517,97.6561436 C122.866953,97.5537803 122.895635,97.5491275 122.858164,97.9353161 C122.822081,98.315456 123.019612,98.6597688 122.976128,99.0315335 C122.960862,99.1548347 123.075587,99.3618876 122.813291,99.3618876 C122.637965,99.360957 122.572275,99.2530103 122.524627,99.0869027 C122.445985,98.8128483 122.373356,98.5369329 122.196642,98.2926569 C121.429647,97.2345931 119.896582,97.5356341 119.467749,98.6802414 C119.034753,99.835085 118.991268,100.985741 119.728657,102.065208 C120.094113,102.600289 121.02487,102.922268 121.621164,102.704978 C122.175825,102.502113 122.430719,101.387284 122.030105,100.942935 C121.926482,100.828009 121.806205,100.825217 121.675289,100.82987 C121.466655,100.838245 121.307057,100.758215 121.080845,100.492536" id="Fill-21" fill="#000000"></path>
                        <path d="M131.501728,102.897593 C131.204236,102.897593 130.906745,102.899444 130.608792,102.896668 C130.502249,102.895742 130.380485,102.917024 130.380946,102.740758 C130.381407,102.588549 130.460277,102.554313 130.589882,102.562178 C131.141971,102.595026 131.022974,102.329007 130.942259,101.938538 C130.764687,101.078489 130.276247,100.90361 129.475557,100.974857 C128.569707,101.055357 128.293432,101.259381 128.260224,102.18929 C128.245926,102.59225 128.560483,102.532107 128.798476,102.558015 C128.938228,102.572356 129.061375,102.564954 129.039697,102.762039 C129.021248,102.932291 128.893027,102.895742 128.792941,102.895742 C128.271754,102.899444 127.75149,102.898518 127.230765,102.896668 C127.141287,102.896668 127.043507,102.902219 127.03336,102.768516 C127.024135,102.638514 127.05227,102.558015 127.208165,102.560328 C127.620963,102.568655 127.777319,102.239255 127.894932,101.946866 C128.477462,100.50065 129.038775,99.0470323 129.591325,97.5897132 C129.650362,97.4347285 129.69095,97.3227694 129.864371,97.2973241 C130.088989,97.264014 130.091295,97.4796047 130.132344,97.5827736 C130.708417,99.0498081 131.278494,100.520081 131.82228,101.999144 C131.935281,102.305413 132.072266,102.522854 132.40481,102.55894 C132.527958,102.571431 132.616975,102.576983 132.615591,102.734281 C132.613746,102.954961 132.453239,102.892967 132.338394,102.895742 C132.059812,102.902219 131.78077,102.897593 131.501728,102.897593 Z M130.660818,95.7307293 C131.024265,95.6687354 131.139572,95.9740784 131.134499,96.1892065 C131.130348,96.4112741 130.985061,96.6495342 130.632684,96.6370429 C130.301984,96.6254769 130.186216,96.3756508 130.188061,96.1901317 C130.189444,95.9722278 130.297833,95.6687354 130.660818,95.7307293 Z M128.929418,96.6460644 C128.654527,96.5669528 128.464962,96.4420398 128.48664,96.1533518 C128.507395,95.8757672 128.675743,95.7180066 128.953402,95.7323485 C129.228754,95.7485409 129.381882,95.9215687 129.373119,96.1996159 C129.363433,96.4892291 129.160954,96.5914728 128.929418,96.6460644 Z M128.789343,100.657578 C129.287469,100.657578 129.713181,100.651101 130.138433,100.660354 C130.328919,100.664055 130.443304,100.599285 130.367201,100.407752 C130.127824,99.8090945 129.870921,99.2173767 129.58496,98.539145 C129.30315,99.2881607 129.060084,99.9353955 128.789343,100.657578 Z" id="Combined-Shape" fill="#000000"></path>
                        <path d="M138.877691,97.3692288 L140.991329,97.3692288 C140.975128,97.4273284 140.969573,97.5130945 140.94689,97.5181666 C140.277988,97.6666434 140.09838,98.2370339 139.884053,98.7590081 C139.360504,100.031666 138.859637,101.314929 138.338866,102.588509 C138.294889,102.697792 138.393489,102.927885 138.13102,102.899296 C137.955578,102.881313 137.907898,102.771569 137.851423,102.614331 C137.492206,101.604044 137.112159,100.600673 136.737666,99.5945357 C136.550651,99.0928502 136.384004,98.5814815 136.166437,98.0936293 C136.065986,97.8690698 135.900265,97.6546546 135.589191,97.639438 C135.496146,97.634827 135.389677,97.5375332 135.410045,97.4019674 C135.42671,97.2959126 135.520218,97.3203513 135.586413,97.3203513 C136.264111,97.3175847 136.941809,97.3185069 137.632005,97.3185069 C137.612563,97.4264062 137.612563,97.4886557 137.599601,97.4914224 C137.044111,97.6048549 136.844135,97.7643983 137.154284,98.4117938 C137.645429,99.4382201 137.955578,100.551335 138.370343,101.704566 C138.849453,100.471102 139.309584,99.2985044 139.757216,98.1217569 C139.846558,97.8884363 139.706296,97.7464151 139.487804,97.6744822 C139.279032,97.6066994 139.068409,97.5430665 138.858711,97.4762058 C138.865192,97.4411616 138.87121,97.4047341 138.877691,97.3692288" id="Fill-25" fill="#000000"></path>
                        <path d="M144.190822,97.517341 L146.452004,97.517341 C146.443865,97.5822085 146.445674,97.6443351 146.43437,97.647076 C145.737613,97.8019356 145.666174,98.2989484 145.688781,98.9119916 C145.724953,99.9060171 145.697372,100.901413 145.698276,101.896809 C145.699181,102.349511 145.875517,102.538631 146.372426,102.583856 C147.270388,102.665169 147.865412,102.393822 148.139412,101.494356 C148.170158,101.395228 148.2,101.181896 148.419743,101.238084 C148.644911,101.294729 148.554482,101.487961 148.53504,101.597139 C148.472192,101.955738 148.402109,102.310225 148.436472,102.675675 C148.456819,102.900427 148.314393,102.895859 148.158854,102.894946 C146.91907,102.893575 145.678834,102.895859 144.439502,102.891748 C144.345003,102.891748 144.189917,102.949306 144.182231,102.788051 C144.177257,102.644155 144.296624,102.548681 144.439502,102.567867 C144.946358,102.635019 144.939123,102.314793 144.935506,101.952083 C144.924655,100.846139 144.907925,99.7397371 144.94274,98.6351629 C144.957661,98.1486568 144.859546,97.8215786 144.345908,97.7197093 C144.277634,97.7064617 144.149676,97.7018936 144.190822,97.517341" id="Fill-27" fill="#000000"></path>
                        <path d="M55.6387283,90.5375723 L224.150289,90.5375723" id="Stroke-35" stroke="#000000"></path>
                        <path d="M77.9739884,66.4075145 C77.9739884,33.2559238 104.848409,6.38150289 138,6.38150289 C171.151591,6.38150289 198.026012,33.2559238 198.026012,66.4075145 C198.026012,99.5591051 171.151591,126.433526 138,126.433526 C104.848409,126.433526 77.9739884,99.5591051 77.9739884,66.4075145 Z" id="Stroke-37" stroke="#000000"></path>
                    </g>
                </g>
            </g>
        </g>
    </g>
</svg>