<svg width="235" height="40" xmlns="http://www.w3.org/2000/svg"><g fill="#323232" fill-rule="nonzero"><path d="M.751 16.661V.321h15.584v1.806H2.965V7.34h12.85v1.806H2.965v7.515H.75zm18.444-4.107V.322h2.213v12.21c0 .39.045.744.136 1.06.09.316.263.579.52.79.255.21.613.372 1.072.485.46.113 1.065.17 1.818.17h7.679c.753 0 1.359-.057 1.818-.17.459-.113.817-.275 1.073-.485.256-.211.429-.474.519-.79.09-.316.136-.67.136-1.06V.321h2.213v12.232c0 .827-.11 1.515-.328 2.065-.218.549-.56.989-1.027 1.32-.467.33-1.07.564-1.807.7-.738.135-1.626.203-2.665.203h-7.543c-1.04 0-1.928-.068-2.665-.203-.738-.136-1.34-.37-1.807-.7a2.889 2.889 0 0 1-1.028-1.32c-.218-.55-.327-1.238-.327-2.065zm23.028 4.107V.321h2.214v14.535h12.692v1.805H42.223zm16.773 0V.321h2.213v14.535h12.693v1.805H58.996zm16.637 0V.321h13.076c1.175 0 2.123.098 2.846.294.723.196 1.276.485 1.66.869.384.383.64.865.768 1.444.128.58.192 1.253.192 2.02V6.28c0 .571-.075 1.049-.226 1.433-.15.383-.361.692-.632.925a2.504 2.504 0 0 1-.96.508c-.369.105-.764.18-1.186.225v.046c.557.105 1.02.252 1.39.44.368.188.654.417.857.688.204.27.347.568.43.891.082.324.124.674.124 1.05v4.175h-2.078v-3.588c0-.632-.075-1.14-.226-1.524-.15-.383-.365-.673-.644-.869-.278-.195-.62-.323-1.027-.383a9.299 9.299 0 0 0-1.355-.09H77.846v6.454h-2.213zm2.213-8.26h10.615c1.235 0 2.127-.18 2.676-.542.55-.36.825-.97.825-1.828v-1.49c0-.45-.057-.83-.17-1.139a1.443 1.443 0 0 0-.632-.745c-.309-.188-.723-.323-1.242-.406-.52-.083-1.186-.124-2-.124H77.847v6.274zm19.776 8.26V.321h2.214v16.34h-2.214zM123.79 8.56v2.257c0 1.113-.098 2.054-.293 2.82-.196.768-.512 1.389-.949 1.863-.437.474-1.005.816-1.705 1.027-.7.21-1.562.316-2.586.316h-9.124c-1.115 0-2.044-.124-2.79-.373-.745-.248-1.343-.628-1.795-1.14-.452-.511-.772-1.147-.96-1.906-.188-.76-.282-1.66-.282-2.697V6.257c0-1.038.094-1.937.282-2.697.188-.76.508-1.395.96-1.907.452-.511 1.05-.891 1.795-1.14.746-.248 1.675-.372 2.79-.372h8.356c.738 0 1.468.056 2.19.17a5.55 5.55 0 0 1 1.943.665 3.985 3.985 0 0 1 1.4 1.365c.362.58.542 1.343.542 2.291v.587h-2.077c0-.767-.076-1.37-.226-1.806-.15-.436-.456-.763-.915-.981-.46-.218-1.107-.354-1.942-.407a55.025 55.025 0 0 0-3.309-.079h-5.736a7.26 7.26 0 0 0-1.491.147 3.09 3.09 0 0 0-1.22.53c-.346.256-.62.61-.824 1.061-.203.452-.305 1.03-.305 1.738v6.139c0 .707.102 1.286.305 1.737.203.452.478.805.824 1.061a3.09 3.09 0 0 0 1.22.53 7.26 7.26 0 0 0 1.49.147h8.65c1.115 0 1.988-.222 2.62-.666.633-.443.949-1.23.949-2.358v-1.648h-8.38V8.56h10.593zm23.458 0v2.257c0 1.113-.098 2.054-.294 2.82-.196.768-.512 1.389-.948 1.863-.437.474-1.005.816-1.706 1.027-.7.21-1.562.316-2.585.316h-9.125c-1.114 0-2.044-.124-2.789-.373-.745-.248-1.344-.628-1.795-1.14-.452-.511-.772-1.147-.96-1.906-.188-.76-.283-1.66-.283-2.697V6.257c0-1.038.095-1.937.283-2.697.188-.76.508-1.395.96-1.907.451-.511 1.05-.891 1.795-1.14.745-.248 1.675-.372 2.79-.372h8.356c.737 0 1.468.056 2.19.17a5.55 5.55 0 0 1 1.943.665 3.985 3.985 0 0 1 1.4 1.365c.361.58.542 1.343.542 2.291v.587h-2.078c0-.767-.075-1.37-.226-1.806-.15-.436-.455-.763-.914-.981-.46-.218-1.107-.354-1.943-.407a55.025 55.025 0 0 0-3.308-.079h-5.737a7.26 7.26 0 0 0-1.49.147 3.09 3.09 0 0 0-1.22.53c-.346.256-.621.61-.824 1.061-.204.452-.305 1.03-.305 1.738v6.139c0 .707.101 1.286.305 1.737.203.452.478.805.824 1.061a3.09 3.09 0 0 0 1.22.53 7.26 7.26 0 0 0 1.49.147h8.65c1.114 0 1.988-.222 2.62-.666.632-.443.949-1.23.949-2.358v-1.648h-8.38V8.56h10.593zm1.573 8.102l9.711-16.34h2.756l9.711 16.34h-2.507l-2.033-3.453H153.36l-2.032 3.453h-2.507zm16.577-5.258l-5.488-9.276-5.488 9.276h10.976zm7.468 5.258V.321h13.076c1.175 0 2.123.098 2.846.294.723.196 1.276.485 1.66.869.384.383.64.865.768 1.444.128.58.192 1.253.192 2.02V6.28c0 .571-.076 1.049-.226 1.433-.15.383-.362.692-.633.925a2.504 2.504 0 0 1-.96.508c-.368.105-.764.18-1.185.225v.046c.557.105 1.02.252 1.389.44s.655.417.858.688c.203.27.346.568.43.891.082.324.123.674.123 1.05v4.175h-2.077v-3.588c0-.632-.076-1.14-.226-1.524-.15-.383-.365-.673-.644-.869-.278-.195-.621-.323-1.027-.383a9.299 9.299 0 0 0-1.356-.09H175.08v6.454h-2.213zm2.213-8.26h10.615c1.234 0 2.126-.18 2.676-.542.55-.36.824-.97.824-1.828v-1.49c0-.45-.056-.83-.169-1.139a1.443 1.443 0 0 0-.632-.745c-.309-.188-.723-.323-1.243-.406-.519-.083-1.185-.124-1.998-.124h-10.073v6.274zm19.708 8.26V.321h16.058v1.806h-13.844V7.34h13.302v1.806h-13.302v5.71h13.935v1.805h-16.149zm18.873 0V.321h3.298l14.973 14.354V.322h2.214v16.34h-3.298L215.874 2.307V16.66h-2.214zM152.602 31.733v-.354h.914v.285c0 .366.105.626.314.782.21.156.566.234 1.068.234h2.103c.365 0 .674-.007.925-.022.252-.016.451-.054.6-.115a.605.605 0 0 0 .32-.274c.065-.121.097-.293.097-.513v-.046c0-.137-.015-.26-.046-.371a.517.517 0 0 0-.182-.274.98.98 0 0 0-.4-.166 3.482 3.482 0 0 0-.709-.057h-3.027c-.694 0-1.183-.12-1.469-.36-.285-.24-.428-.637-.428-1.192v-.343c0-.236.04-.445.12-.628.08-.183.23-.337.451-.462.221-.126.522-.221.903-.286.38-.064.876-.097 1.485-.097h1.508c.556 0 1 .038 1.331.114.332.077.585.18.76.309.175.13.291.283.349.462.057.179.085.371.085.577v.308h-.914v-.057c0-.22-.036-.394-.108-.52a.63.63 0 0 0-.32-.274 1.649 1.649 0 0 0-.526-.102c-.21-.012-.447-.018-.714-.018h-1.714c-.35 0-.638.012-.862.035-.225.023-.4.063-.526.12a.483.483 0 0 0-.257.24 1.009 1.009 0 0 0-.068.405v.217c0 .121.013.228.04.32.026.09.081.169.165.233a.907.907 0 0 0 .36.149c.156.034.364.051.623.051h2.593c.366 0 .701.015 1.006.046.304.03.565.104.782.222.217.118.387.292.509.52.122.228.183.54.183.936v.023c0 .41-.086.729-.257.953a1.57 1.57 0 0 1-.652.503c-.263.11-.554.177-.874.2-.32.022-.628.034-.925.034h-1.805c-.366 0-.716-.01-1.052-.029a2.798 2.798 0 0 1-.896-.188 1.33 1.33 0 0 1-.629-.52c-.156-.24-.234-.576-.234-1.01zm10.977 1.655v-8.266h.982v4.647h.48l3.393-2.203h1.531l.023.022-4.021 2.58 4.787 3.197-.023.023H169.2l-4.216-2.82h-.423v2.82h-.982zm10.52 2.17v-.8c.373 0 .681-.011.925-.034.244-.023.45-.078.617-.165.167-.088.31-.215.428-.383.118-.167.242-.4.372-.696h-.24l-3.302-5.914h1.108l2.822 5.149 2.536-5.15h1.063l-3.29 6.543a4.68 4.68 0 0 1-.446.725 1.53 1.53 0 0 1-.543.44 2.51 2.51 0 0 1-.81.216c-.325.038-.738.06-1.24.069zm15.786-4.544v-1.142c0-.335-.042-.607-.125-.816a1.033 1.033 0 0 0-.378-.486 1.564 1.564 0 0 0-.634-.234 5.525 5.525 0 0 0-.885-.063h-1.325a6.31 6.31 0 0 0-.897.058 1.712 1.712 0 0 0-.669.228 1.116 1.116 0 0 0-.422.49c-.1.214-.149.496-.149.846v1.107c0 .267.032.504.097.714.065.209.172.384.32.525.149.14.347.25.594.325.248.076.554.114.92.114h1.6c.396 0 .721-.034.976-.102.256-.069.455-.172.6-.309.145-.137.244-.31.297-.52.054-.208.08-.454.08-.735zm-6.466 2.374v-8.266h.982v3.22h.023c.107-.304.303-.525.588-.662.286-.137.71-.206 1.274-.206h1.497c.594 0 1.087.044 1.48.132.392.087.708.232.948.433.24.202.41.463.508.782.1.32.149.712.149 1.176v1.028c0 .502-.074.913-.223 1.233-.149.32-.356.569-.623.748a2.518 2.518 0 0 1-.96.37c-.373.07-.78.104-1.222.104h-1.37c-.519 0-.964-.08-1.338-.24a1.39 1.39 0 0 1-.777-.776h-.022v.924h-.914zm17.077 0v-.582h-.023c-.068.13-.144.238-.228.325a.888.888 0 0 1-.348.212c-.149.053-.343.09-.583.108-.24.02-.547.029-.92.029h-2.354c-.373 0-.68-.04-.92-.12-.24-.08-.43-.194-.57-.343a1.238 1.238 0 0 1-.298-.548 2.897 2.897 0 0 1-.085-.736v-.388c0-.328.057-.59.171-.788.114-.198.284-.348.509-.451a2.58 2.58 0 0 1 .834-.2c.33-.03.71-.046 1.136-.046h1.577c.32 0 .592.01.817.029.225.019.417.055.577.108.16.054.293.126.4.217.106.092.202.206.285.343h.023V29.46c0-.259-.042-.468-.125-.628a.793.793 0 0 0-.395-.36 2.205 2.205 0 0 0-.68-.16c-.274-.026-.597-.04-.97-.04h-1.44a4.43 4.43 0 0 0-.754.052c-.19.034-.34.085-.446.154a.53.53 0 0 0-.217.245.87.87 0 0 0-.057.326v.205h-.982v-.285c0-.266.043-.495.13-.685a1.05 1.05 0 0 1 .424-.462c.194-.118.445-.206.754-.263a6.3 6.3 0 0 1 1.125-.086h1.554c.457 0 .874.023 1.251.069.377.045.699.14.965.285.267.145.475.348.623.611.149.263.223.61.223 1.045v3.904h-.983zm0-1.564v-.262c0-.198-.045-.356-.137-.474a.87.87 0 0 0-.411-.274 2.645 2.645 0 0 0-.691-.126 14.53 14.53 0 0 0-.977-.028h-1.508c-.32 0-.583.013-.789.04a1.43 1.43 0 0 0-.497.142.566.566 0 0 0-.262.28c-.05.118-.075.268-.075.451v.183c0 .16.02.298.057.416a.548.548 0 0 0 .229.292c.114.076.274.13.48.165.205.034.476.051.811.051h1.302c.442 0 .821-.01 1.137-.028.316-.02.572-.061.766-.126.194-.064.337-.152.428-.262a.667.667 0 0 0 .137-.44zm4.819 1.564v-5.822h.914v.844h.023a1.51 1.51 0 0 1 .777-.753c.16-.069.325-.116.497-.143.171-.026.34-.04.508-.04h.926c.457 0 .841.038 1.153.114.313.077.564.196.755.36.19.164.327.373.41.628.085.255.127.561.127.92v.696h-.915v-.252c0-.357-.024-.647-.074-.867a.878.878 0 0 0-.291-.508c-.145-.118-.352-.196-.623-.234a7.877 7.877 0 0 0-1.057-.058h-.605c-.26 0-.486.039-.68.115a1.338 1.338 0 0 0-.48.308 1.3 1.3 0 0 0-.285.45 1.52 1.52 0 0 0-.098.543v3.7h-.982zM142.765 33.388l-1.112-.576c-.093.143-.21.255-.35.338-.14.082-.297.146-.47.193a2.898 2.898 0 0 1-.552.09c-.194.014-.394.021-.597.021h-2.883c-.428 0-.782-.038-1.062-.115-.28-.077-.501-.195-.663-.354a1.276 1.276 0 0 1-.338-.61 3.59 3.59 0 0 1-.095-.88c0-.274.021-.513.062-.716.041-.203.117-.373.227-.51a.965.965 0 0 1 .444-.305 2.22 2.22 0 0 1 .725-.099v-.016a4.68 4.68 0 0 1-.333-.23.731.731 0 0 1-.293-.544 4.139 4.139 0 0 1-.024-.51c0-.214.033-.396.098-.547.066-.151.158-.276.276-.375.118-.099.258-.17.42-.214.162-.044.342-.066.54-.066h2.908c.285 0 .527.032.724.095.198.063.359.152.482.267a.96.96 0 0 1 .264.42c.052.165.078.349.078.552v.494h-.758v-.445c0-.274-.075-.464-.226-.568a.955.955 0 0 0-.556-.156h-2.677c-.16 0-.288.015-.387.045a.612.612 0 0 0-.235.124.379.379 0 0 0-.115.193 1.09 1.09 0 0 0-.03.263c0 .1.002.184.005.255a.694.694 0 0 0 .033.194c.02.058.048.107.086.148.039.041.094.081.165.12l4.596 2.428v-1.334h.758v1.26c0 .065-.004.134-.012.205a8.295 8.295 0 0 1-.03.222l1.203.634-.296.61zm-1.853-.93l-4.234-2.214h-.247c-.055 0-.136.01-.243.029a.89.89 0 0 0-.614.444c-.082.14-.123.328-.123.564v.404c0 .17.015.323.045.46.03.138.095.254.193.35a.98.98 0 0 0 .416.222c.179.053.416.079.713.079h2.76c.39 0 .698-.025.926-.074.228-.05.364-.138.408-.264zM1.904 23.906v-1.27h231.03v1.27zM1.904 39.04v-1.27h231.03v1.27zM23.767 33.388v-5.822h.914v.844h.023a1.51 1.51 0 0 1 .777-.753c.16-.069.326-.116.497-.143.171-.026.34-.04.508-.04h.926c.457 0 .842.038 1.154.114.312.077.564.196.754.36.19.164.327.373.411.628.084.255.126.561.126.92v.696h-.914v-.252c0-.357-.025-.647-.074-.867a.878.878 0 0 0-.292-.508c-.144-.118-.352-.196-.622-.234a7.877 7.877 0 0 0-1.057-.058h-.606c-.259 0-.485.039-.68.115a1.338 1.338 0 0 0-.48.308 1.3 1.3 0 0 0-.285.45 1.52 1.52 0 0 0-.097.543v3.7h-.983zm15.49-3.539v-.388c0-.145-.032-.29-.097-.434a.96.96 0 0 0-.326-.382c-.152-.11-.362-.2-.628-.269a4.068 4.068 0 0 0-.994-.103h-1.44c-.388 0-.708.021-.96.063-.25.042-.45.12-.6.234a.941.941 0 0 0-.32.48 3.551 3.551 0 0 0-.13.799h5.495zm-6.478 1.244v-1.267c0-.525.084-.944.251-1.256.168-.312.387-.55.657-.713a2.35 2.35 0 0 1 .914-.314 7.735 7.735 0 0 1 1.034-.069h1.577c.442 0 .847.035 1.217.103.37.069.687.196.954.383.266.186.476.443.628.77.152.327.229.75.229 1.267v.651H33.76v.366c0 .334.042.608.126.822.084.213.22.382.406.508.186.125.43.213.73.262.302.05.666.074 1.092.074h1.348c.305 0 .568-.013.789-.04.22-.026.403-.078.548-.154a.755.755 0 0 0 .326-.32c.072-.136.116-.315.131-.536h.983v.114c0 .335-.067.613-.2.834-.134.22-.328.397-.583.53a3.01 3.01 0 0 1-.926.286 7.936 7.936 0 0 1-1.228.086h-1.782c-.32 0-.644-.023-.971-.069a2.189 2.189 0 0 1-.886-.32 1.846 1.846 0 0 1-.64-.719c-.163-.312-.245-.738-.245-1.279zm10.805.64v-.354h.914v.285c0 .366.105.626.314.782.21.156.566.234 1.069.234h2.102c.366 0 .674-.007.925-.022.252-.016.452-.054.6-.115a.605.605 0 0 0 .32-.274c.065-.121.097-.293.097-.513v-.046c0-.137-.015-.26-.045-.371a.517.517 0 0 0-.183-.274.98.98 0 0 0-.4-.166 3.482 3.482 0 0 0-.709-.057h-3.027c-.693 0-1.183-.12-1.468-.36-.286-.24-.429-.637-.429-1.192v-.343c0-.236.04-.445.12-.628.08-.183.23-.337.451-.462.221-.126.522-.221.903-.286.38-.064.876-.097 1.485-.097h1.508c.557 0 1 .038 1.332.114.33.077.584.18.76.309.174.13.29.283.348.462.057.179.085.371.085.577v.308h-.914v-.057c0-.22-.036-.394-.108-.52a.63.63 0 0 0-.32-.274 1.649 1.649 0 0 0-.526-.102c-.209-.012-.447-.018-.714-.018h-1.713c-.35 0-.638.012-.863.035-.225.023-.4.063-.526.12a.483.483 0 0 0-.257.24 1.009 1.009 0 0 0-.068.405v.217c0 .121.013.228.04.32.026.09.082.169.165.233a.907.907 0 0 0 .36.149c.156.034.364.051.623.051h2.594c.365 0 .7.015 1.005.046.305.03.566.104.783.222.217.118.386.292.508.52.122.228.183.54.183.936v.023c0 .41-.086.729-.257.953a1.57 1.57 0 0 1-.651.503c-.263.11-.555.177-.875.2-.32.022-.628.034-.925.034h-1.805c-.366 0-.716-.01-1.051-.029a2.798 2.798 0 0 1-.897-.188 1.33 1.33 0 0 1-.629-.52c-.156-.24-.234-.576-.234-1.01zm11.503-.092v-3.276h-1.28v-.8h1.28v-1.38h.982v1.38h3.896v.8H56.07v2.9c0 .274.025.5.074.679.05.179.132.324.246.434.114.11.265.188.451.234.187.046.414.068.68.068h.309c.327 0 .59-.02.788-.062a.866.866 0 0 0 .457-.229.852.852 0 0 0 .211-.456 4.44 4.44 0 0 0 .052-.748v-.434h.8v.64c0 .289-.018.56-.052.816a1.358 1.358 0 0 1-.274.668c-.149.19-.371.338-.669.445-.297.106-.712.16-1.245.16h-.537c-.457 0-.834-.052-1.131-.155-.297-.102-.53-.24-.697-.41a1.39 1.39 0 0 1-.348-.588 2.421 2.421 0 0 1-.097-.686zm14.29 1.747v-.582h-.023c-.069.13-.145.238-.229.325a.888.888 0 0 1-.348.212c-.149.053-.343.09-.583.108-.24.02-.546.029-.92.029h-2.353c-.373 0-.68-.04-.92-.12-.24-.08-.43-.194-.571-.343a1.238 1.238 0 0 1-.297-.548 2.897 2.897 0 0 1-.086-.736v-.388c0-.328.057-.59.171-.788.115-.198.284-.348.509-.451a2.58 2.58 0 0 1 .834-.2c.331-.03.71-.046 1.137-.046h1.576c.32 0 .593.01.817.029.225.019.417.055.577.108.16.054.293.126.4.217.107.092.202.206.286.343h.023V29.46c0-.259-.042-.468-.126-.628a.793.793 0 0 0-.394-.36 2.204 2.204 0 0 0-.68-.16c-.274-.026-.598-.04-.971-.04h-1.44a4.43 4.43 0 0 0-.754.052c-.19.034-.339.085-.445.154a.53.53 0 0 0-.218.245.87.87 0 0 0-.057.326v.205h-.982v-.285c0-.266.044-.495.131-.685a1.05 1.05 0 0 1 .423-.462c.194-.118.445-.206.754-.263a6.3 6.3 0 0 1 1.125-.086h1.554c.457 0 .874.023 1.251.069.377.045.7.14.966.285.266.145.474.348.622.611.149.263.223.61.223 1.045v3.904h-.982zm0-1.564v-.262c0-.198-.046-.356-.138-.474a.87.87 0 0 0-.41-.274 2.645 2.645 0 0 0-.692-.126 14.53 14.53 0 0 0-.977-.028h-1.508c-.32 0-.583.013-.788.04a1.43 1.43 0 0 0-.497.142.566.566 0 0 0-.263.28c-.05.118-.074.268-.074.451v.183c0 .16.019.298.057.416a.548.548 0 0 0 .228.292c.114.076.274.13.48.165.206.034.476.051.811.051h1.303c.442 0 .82-.01 1.137-.028.316-.02.57-.061.765-.126.194-.064.337-.152.428-.262a.667.667 0 0 0 .138-.44zm11.01 1.564v-1.004h-.022a1.624 1.624 0 0 1-.349.553c-.14.141-.308.251-.502.331-.195.08-.417.136-.669.166-.251.03-.53.046-.834.046h-1.474c-.457 0-.841-.054-1.154-.16a1.952 1.952 0 0 1-.748-.434 1.58 1.58 0 0 1-.4-.628 2.332 2.332 0 0 1-.12-.754v-3.938h.983v3.699c0 .213.023.407.068.582a.84.84 0 0 0 .292.445c.148.122.363.217.645.286.282.068.663.102 1.143.102h.251c.571 0 1.04-.03 1.405-.09.366-.062.653-.16.863-.298.21-.137.354-.321.434-.553.08-.233.12-.52.12-.862v-3.311h.983v5.822h-.914zm4.865 0v-5.822h.914v.844h.023a1.51 1.51 0 0 1 .777-.753c.16-.069.325-.116.497-.143.171-.026.34-.04.508-.04h.925c.457 0 .842.038 1.154.114.313.077.564.196.754.36.19.164.328.373.412.628.084.255.125.561.125.92v.696h-.914v-.252c0-.357-.024-.647-.074-.867a.878.878 0 0 0-.291-.508c-.145-.118-.352-.196-.623-.234a7.877 7.877 0 0 0-1.057-.058h-.605c-.26 0-.486.039-.68.115a1.338 1.338 0 0 0-.48.308 1.3 1.3 0 0 0-.286.45 1.52 1.52 0 0 0-.097.543v3.7h-.982zm15.295 0v-.582h-.023c-.068.13-.144.238-.228.325a.888.888 0 0 1-.349.212c-.148.053-.342.09-.582.108-.24.02-.547.029-.92.029h-2.354c-.373 0-.68-.04-.92-.12-.24-.08-.43-.194-.57-.343a1.238 1.238 0 0 1-.298-.548 2.897 2.897 0 0 1-.085-.736v-.388c0-.328.057-.59.171-.788.114-.198.284-.348.509-.451a2.58 2.58 0 0 1 .834-.2c.33-.03.71-.046 1.136-.046h1.577c.32 0 .592.01.817.029.225.019.417.055.577.108.16.054.293.126.4.217.106.092.202.206.285.343h.023V29.46c0-.259-.042-.468-.125-.628a.793.793 0 0 0-.395-.36 2.204 2.204 0 0 0-.68-.16c-.274-.026-.597-.04-.97-.04h-1.44a4.43 4.43 0 0 0-.754.052c-.19.034-.34.085-.446.154a.53.53 0 0 0-.217.245.87.87 0 0 0-.057.326v.205h-.983v-.285c0-.266.044-.495.132-.685a1.05 1.05 0 0 1 .423-.462c.194-.118.445-.206.754-.263a6.3 6.3 0 0 1 1.125-.086h1.554c.457 0 .874.023 1.251.069.377.045.699.14.965.285.267.145.475.348.623.611.149.263.223.61.223 1.045v3.904h-.983zm0-1.564v-.262c0-.198-.045-.356-.137-.474a.87.87 0 0 0-.411-.274 2.645 2.645 0 0 0-.691-.126 14.53 14.53 0 0 0-.977-.028h-1.508c-.32 0-.583.013-.789.04a1.43 1.43 0 0 0-.497.142.566.566 0 0 0-.262.28c-.05.118-.075.268-.075.451v.183c0 .16.02.298.057.416a.548.548 0 0 0 .229.292c.114.076.274.13.48.165.205.034.476.051.811.051h1.302c.442 0 .821-.01 1.137-.028.316-.02.572-.061.766-.126.194-.064.337-.152.428-.262a.667.667 0 0 0 .137-.44zm4.739 1.564v-5.822h.914v1.004h.023c.091-.228.207-.413.348-.553.141-.141.309-.252.503-.331.194-.08.417-.136.668-.166.252-.03.53-.046.834-.046h1.474c.457 0 .842.054 1.154.16.312.107.562.251.748.434.187.183.32.394.4.634.08.24.12.489.12.747v3.94h-.982v-3.7c0-.213-.023-.407-.069-.582a.84.84 0 0 0-.291-.445c-.149-.122-.364-.217-.646-.286-.282-.068-.662-.103-1.142-.103h-.252c-.57 0-1.04.03-1.405.092-.365.06-.653.16-.862.297-.21.137-.355.321-.435.553-.08.233-.12.52-.12.862v3.311h-.982zm17.26-2.626v-.707a2.769 2.769 0 0 0-.068-.737 1.339 1.339 0 0 0-.28-.56 1.27 1.27 0 0 0-.543-.359c-.228-.084-.514-.126-.857-.126H118.8c-.251 0-.482.02-.691.058a1.59 1.59 0 0 0-.549.2 1.008 1.008 0 0 0-.365.382c-.088.16-.132.358-.132.594v1.073c0 .335.03.614.092.839.06.224.158.403.291.536.133.134.307.229.52.286.213.057.468.086.765.086h1.897c.7 0 1.196-.136 1.485-.406.29-.27.434-.656.434-1.159zm.983-3.196v5.81c0 .442-.088.8-.263 1.074a1.95 1.95 0 0 1-.662.645c-.267.156-.564.26-.892.314-.327.053-.643.08-.948.08h-2.216c-.45 0-.823-.055-1.12-.166a1.929 1.929 0 0 1-.703-.422 1.442 1.442 0 0 1-.36-.565 1.843 1.843 0 0 1-.102-.582v-.194h.914v.16c0 .19.045.348.137.473a.941.941 0 0 0 .365.297c.153.072.332.124.537.154.206.03.423.046.652.046h.96c.487 0 .902-.01 1.245-.029.342-.019.622-.08.84-.182a.984.984 0 0 0 .48-.474c.102-.213.153-.518.153-.914v-.867h-.022c-.054.137-.122.26-.206.37-.084.111-.2.206-.349.286-.148.08-.337.141-.565.183a4.875 4.875 0 0 1-.857.063h-2.022c-.823 0-1.436-.2-1.84-.6-.403-.4-.605-.976-.605-1.73v-.97c0-.525.085-.944.257-1.256.171-.312.386-.55.645-.713a2.17 2.17 0 0 1 .852-.314c.308-.046.6-.069.874-.069h2.09c.183 0 .366.016.549.046.183.03.354.086.514.166.16.08.303.194.428.342.126.148.227.34.303.577h.023v-1.04h.914z"/></g></svg>