<?xml version="1.0" encoding="UTF-8"?>
<svg width="236px" height="79px" viewBox="0 0 236 79" version="1.1" xmlns="http://www.w3.org/2000/svg" xmlns:xlink="http://www.w3.org/1999/xlink">
    <!-- Generator: Sketch 52.4 (67378) - http://www.bohemiancoding.com/sketch -->
    <title>Fullriggaren</title>
    <desc>Created with Sketch.</desc>
    <g id="Page-1" stroke="none" stroke-width="1" fill="none" fill-rule="evenodd">
        <g id="Desktop" transform="translate(-433.000000, -3983.000000)" fill="#323232">
            <g id="Location" transform="translate(-476.000000, 3532.000000)">
                <g id="Group" transform="translate(691.000000, 439.000000)">
                    <g id="Fullriggaren" transform="translate(338.370145, 50.889359) rotate(-10.000000) translate(-338.370145, -50.889359) translate(214.370145, 25.389359)">
                        <path d="M5.62228026,22.8339553 L5.62228026,6.49440169 L21.2057745,6.49440169 L21.2057745,8.29987722 L7.83558813,8.29987722 L7.83558813,13.5131878 L20.6863246,13.5131878 L20.6863246,15.3186634 L7.83558813,15.3186634 L7.83558813,22.8339553 L5.62228026,22.8339553 Z M24.0660697,18.7264984 L24.0660697,6.49440169 L26.2793776,6.49440169 L26.2793776,18.70393 C26.2793776,19.0951183 26.3245467,19.448687 26.4148862,19.7646468 C26.5052257,20.0806066 26.678374,20.3439025 26.934336,20.5545424 C27.1902981,20.7651823 27.5478867,20.9269212 28.0071128,21.0397639 C28.4663388,21.1526067 29.0723575,21.2090273 29.8251871,21.2090273 L37.5040103,21.2090273 C38.2568399,21.2090273 38.8628586,21.1526067 39.3220847,21.0397639 C39.7813107,20.9269212 40.1388994,20.7651823 40.3948614,20.5545424 C40.6508235,20.3439025 40.8239717,20.0806066 40.9143112,19.7646468 C41.0046508,19.448687 41.0498199,19.0951183 41.0498199,18.70393 L41.0498199,6.49440169 L43.2631277,6.49440169 L43.2631277,18.7264984 C43.2631277,19.5540122 43.1539691,20.2423428 42.9356485,20.7915111 C42.7173279,21.3406793 42.3747956,21.7807595 41.9080413,22.111765 C41.441287,22.4427705 40.8390323,22.6759755 40.1012594,22.8113868 C39.3634864,22.9467981 38.4751608,23.0145028 37.436256,23.0145028 L29.8929414,23.0145028 C28.8540366,23.0145028 27.9657111,22.9467981 27.2279381,22.8113868 C26.4901651,22.6759755 25.8879105,22.4427705 25.4211561,22.111765 C24.9544018,21.7807595 24.6118695,21.3406793 24.3935489,20.7915111 C24.1752283,20.2423428 24.0660697,19.5540122 24.0660697,18.7264984 Z M47.0945683,22.8339553 L47.0945683,6.49440169 L49.3078761,6.49440169 L49.3078761,21.0284797 L62.0005192,21.0284797 L62.0005192,22.8339553 L47.0945683,22.8339553 Z M63.8670844,22.8339553 L63.8670844,6.49440169 L66.0803923,6.49440169 L66.0803923,21.0284797 L78.7730354,21.0284797 L78.7730354,22.8339553 L63.8670844,22.8339553 Z M80.5040919,22.8339553 L80.5040919,6.49440169 L93.5806762,6.49440169 C94.7550903,6.49440169 95.7036413,6.5921973 96.4263577,6.78779147 C97.1490741,6.98338563 97.7023955,7.2730111 98.0863386,7.65667656 C98.4702817,8.04034203 98.7262399,8.52179736 98.8542209,9.10105699 C98.982202,9.68031662 99.0461915,10.3536018 99.0461915,11.1209327 L99.0461915,12.4524709 C99.0461915,13.0242077 98.9709097,13.5019017 98.8203438,13.8855671 C98.6697779,14.2692326 98.4589887,14.5776649 98.1879701,14.8108734 C97.9169514,15.0440818 97.5970037,15.2133434 97.2281172,15.3186634 C96.8592307,15.4239833 96.4640011,15.4992107 96.0424165,15.5443478 L96.0424165,15.5894847 C96.5995104,15.6948046 97.0624937,15.841498 97.4313802,16.0295693 C97.8002666,16.2176407 98.0863376,16.4470842 98.2896016,16.7179069 C98.4928656,16.9887296 98.635901,17.2858778 98.7187123,17.6093604 C98.8015235,17.9328431 98.8429285,18.2826505 98.8429285,18.6587931 L98.8429285,22.8339553 L96.7651293,22.8339553 L96.7651293,19.2455726 C96.7651293,18.613653 96.6898475,18.1058681 96.5392816,17.7222027 C96.3887157,17.3385372 96.1741625,17.0489117 95.8956155,16.8533176 C95.6170686,16.6577234 95.2745363,16.5298368 94.8680083,16.469654 C94.4614803,16.4094712 94.0097893,16.3793802 93.5129218,16.3793802 L82.7173998,16.3793802 L82.7173998,22.8339553 L80.5040919,22.8339553 Z M82.7173998,14.5739047 L93.3322436,14.5739047 C94.5668841,14.5739047 95.4589738,14.3933589 96.0085394,14.032262 C96.558105,13.6711651 96.8328836,13.0618232 96.8328836,12.2042181 L96.8328836,10.7147007 C96.8328836,10.2633296 96.7764223,9.88343126 96.6634978,9.57499432 C96.5505734,9.26655737 96.3397843,9.01830697 96.0311242,8.83023566 C95.722464,8.64216435 95.308414,8.50675504 94.7889616,8.42400367 C94.2695092,8.34125229 93.603265,8.29987722 92.7902091,8.29987722 L82.7173998,8.29987722 L82.7173998,14.5739047 Z M102.493691,22.8339553 L102.493691,6.49440169 L104.706999,6.49440169 L104.706999,22.8339553 L102.493691,22.8339553 Z M128.661473,14.7318838 L128.661473,16.9887282 C128.661473,18.1021104 128.563607,19.0424528 128.367871,19.8097837 C128.172135,20.5771147 127.855952,21.1977407 127.41931,21.6716804 C126.982669,22.1456201 126.414292,22.4879047 125.71416,22.6985446 C125.014029,22.9091845 124.152052,23.0145028 123.128203,23.0145028 L114.003955,23.0145028 C112.889767,23.0145028 111.960036,22.8903776 111.214735,22.6421235 C110.469434,22.3938693 109.870943,22.013971 109.419245,21.502417 C108.967548,20.9908631 108.6476,20.3551916 108.459393,19.5953835 C108.271185,18.8355754 108.177083,17.9366081 108.177083,16.8984544 L108.177083,12.4299025 C108.177083,11.3917489 108.271185,10.4927815 108.459393,9.73297343 C108.6476,8.97316534 108.967548,8.33749385 109.419245,7.8259399 C109.870943,7.31438594 110.469434,6.93448759 111.214735,6.68623347 C111.960036,6.43797934 112.889767,6.31385414 114.003955,6.31385414 L122.360321,6.31385414 C123.098094,6.31385414 123.828328,6.37027468 124.551044,6.48311747 C125.273761,6.59596025 125.921184,6.81788107 126.493335,7.14888657 C127.065485,7.47989207 127.532233,7.93501781 127.893591,8.51427744 C128.254949,9.09353707 128.435625,9.85709513 128.435625,10.8049745 L128.435625,11.3917541 L126.357826,11.3917541 C126.357826,10.6244231 126.282544,10.022604 126.131978,9.58627854 C125.981412,9.1499531 125.676521,8.82271394 125.217295,8.60455122 C124.758069,8.3863885 124.110645,8.25097919 123.275004,8.19831922 C122.439364,8.14565926 121.336485,8.11932967 119.966335,8.11932967 L114.229802,8.11932967 C113.702822,8.11932967 113.205962,8.16822748 112.739207,8.26602456 C112.272453,8.36382164 111.865931,8.54060601 111.519629,8.79638299 C111.173328,9.05215997 110.898549,9.40572873 110.695285,9.85709987 C110.492021,10.308471 110.390391,10.8877219 110.390391,11.5948701 L110.390391,17.7334869 C110.390391,18.440635 110.492021,19.0198859 110.695285,19.4712571 C110.898549,19.9226282 111.173328,20.276197 111.519629,20.5319739 C111.865931,20.7877509 112.272453,20.9645353 112.739207,21.0623324 C113.205962,21.1601295 113.702822,21.2090273 114.229802,21.2090273 L122.879771,21.2090273 C123.993959,21.2090273 124.867228,20.9871065 125.499605,20.5432582 C126.131982,20.0994099 126.448165,19.3132836 126.448165,18.1848558 L126.448165,16.5373593 L118.069214,16.5373593 L118.069214,14.7318838 L128.661473,14.7318838 Z M152.119082,14.7318838 L152.119082,16.9887282 C152.119082,18.1021104 152.021216,19.0424528 151.82548,19.8097837 C151.629745,20.5771147 151.313561,21.1977407 150.87692,21.6716804 C150.440279,22.1456201 149.871901,22.4879047 149.171769,22.6985446 C148.471638,22.9091845 147.609661,23.0145028 146.585813,23.0145028 L137.461564,23.0145028 C136.347376,23.0145028 135.417646,22.8903776 134.672344,22.6421235 C133.927043,22.3938693 133.328552,22.013971 132.876855,21.502417 C132.425157,20.9908631 132.105209,20.3551916 131.917002,19.5953835 C131.728794,18.8355754 131.634692,17.9366081 131.634692,16.8984544 L131.634692,12.4299025 C131.634692,11.3917489 131.728794,10.4927815 131.917002,9.73297343 C132.105209,8.97316534 132.425157,8.33749385 132.876855,7.8259399 C133.328552,7.31438594 133.927043,6.93448759 134.672344,6.68623347 C135.417646,6.43797934 136.347376,6.31385414 137.461564,6.31385414 L145.81793,6.31385414 C146.555703,6.31385414 147.285937,6.37027468 148.008653,6.48311747 C148.73137,6.59596025 149.378794,6.81788107 149.950944,7.14888657 C150.523095,7.47989207 150.989842,7.93501781 151.3512,8.51427744 C151.712558,9.09353707 151.893235,9.85709513 151.893235,10.8049745 L151.893235,11.3917541 L149.815435,11.3917541 C149.815435,10.6244231 149.740154,10.022604 149.589588,9.58627854 C149.439022,9.1499531 149.13413,8.82271394 148.674904,8.60455122 C148.215678,8.3863885 147.568255,8.25097919 146.732614,8.19831922 C145.896973,8.14565926 144.794094,8.11932967 143.423944,8.11932967 L137.687412,8.11932967 C137.160431,8.11932967 136.663571,8.16822748 136.196817,8.26602456 C135.730062,8.36382164 135.32354,8.54060601 134.977239,8.79638299 C134.630937,9.05215997 134.356158,9.40572873 134.152894,9.85709987 C133.949631,10.308471 133.848,10.8877219 133.848,11.5948701 L133.848,17.7334869 C133.848,18.440635 133.949631,19.0198859 134.152894,19.4712571 C134.356158,19.9226282 134.630937,20.276197 134.977239,20.5319739 C135.32354,20.7877509 135.730062,20.9645353 136.196817,21.0623324 C136.663571,21.1601295 137.160431,21.2090273 137.687412,21.2090273 L146.33738,21.2090273 C147.451568,21.2090273 148.324837,20.9871065 148.957214,20.5432582 C149.589591,20.0994099 149.905774,19.3132836 149.905774,18.1848558 L149.905774,16.5373593 L141.526823,16.5373593 L141.526823,14.7318838 L152.119082,14.7318838 Z M153.692045,22.8339553 L163.403498,6.49440169 L166.158841,6.49440169 L175.870294,22.8339553 L173.363384,22.8339553 L171.330754,19.3809833 L158.231585,19.3809833 L156.198955,22.8339553 L153.692045,22.8339553 Z M170.26927,17.5755078 L164.78117,8.29987722 L159.293069,17.5755078 L170.26927,17.5755078 Z M177.736859,22.8339553 L177.736859,6.49440169 L190.813443,6.49440169 C191.987857,6.49440169 192.936408,6.5921973 193.659125,6.78779147 C194.381841,6.98338563 194.935163,7.2730111 195.319106,7.65667656 C195.703049,8.04034203 195.959007,8.52179736 196.086988,9.10105699 C196.214969,9.68031662 196.278959,10.3536018 196.278959,11.1209327 L196.278959,12.4524709 C196.278959,13.0242077 196.203677,13.5019017 196.053111,13.8855671 C195.902545,14.2692326 195.691756,14.5776649 195.420737,14.8108734 C195.149718,15.0440818 194.829771,15.2133434 194.460884,15.3186634 C194.091998,15.4239833 193.696768,15.4992107 193.275184,15.5443478 L193.275184,15.5894847 C193.832277,15.6948046 194.295261,15.841498 194.664147,16.0295693 C195.033034,16.2176407 195.319105,16.4470842 195.522369,16.7179069 C195.725633,16.9887296 195.868668,17.2858778 195.951479,17.6093604 C196.034291,17.9328431 196.075696,18.2826505 196.075696,18.6587931 L196.075696,22.8339553 L193.997896,22.8339553 L193.997896,19.2455726 C193.997896,18.613653 193.922614,18.1058681 193.772049,17.7222027 C193.621483,17.3385372 193.406929,17.0489117 193.128383,16.8533176 C192.849836,16.6577234 192.507303,16.5298368 192.100775,16.469654 C191.694247,16.4094712 191.242556,16.3793802 190.745689,16.3793802 L179.950167,16.3793802 L179.950167,22.8339553 L177.736859,22.8339553 Z M179.950167,14.5739047 L190.565011,14.5739047 C191.799651,14.5739047 192.691741,14.3933589 193.241306,14.032262 C193.790872,13.6711651 194.065651,13.0618232 194.065651,12.2042181 L194.065651,10.7147007 C194.065651,10.2633296 194.009189,9.88343126 193.896265,9.57499432 C193.78334,9.26655737 193.572551,9.01830697 193.263891,8.83023566 C192.955231,8.64216435 192.541181,8.50675504 192.021729,8.42400367 C191.502276,8.34125229 190.836032,8.29987722 190.022976,8.29987722 L179.950167,8.29987722 L179.950167,14.5739047 Z M199.658704,22.8339553 L199.658704,6.49440169 L215.716478,6.49440169 L215.716478,8.29987722 L201.872011,8.29987722 L201.872011,13.5131878 L215.174443,13.5131878 L215.174443,15.3186634 L201.872011,15.3186634 L201.872011,21.0284797 L215.806817,21.0284797 L215.806817,22.8339553 L199.658704,22.8339553 Z M218.531604,22.8339553 L218.531604,6.49440169 L221.828981,6.49440169 L236.802686,20.8479322 L236.802686,6.49440169 L239.015994,6.49440169 L239.015994,22.8339553 L235.718617,22.8339553 L220.744912,8.48042478 L220.744912,22.8339553 L218.531604,22.8339553 Z" id="FULLRIGGAREN"></path>
                        <path d="M157.473268,37.9056933 L157.473268,37.551767 L158.387287,37.551767 L158.387287,37.8371914 C158.387287,38.2025365 158.492017,38.4632216 158.701481,38.6192544 C158.910945,38.7752872 159.267028,38.8533024 159.769741,38.8533024 L161.871985,38.8533024 C162.237594,38.8533024 162.546073,38.8456912 162.797429,38.8304685 C163.048786,38.8152457 163.248725,38.7771895 163.397254,38.7162987 C163.545783,38.6554078 163.652418,38.5640729 163.717161,38.4422912 C163.781904,38.3205095 163.814276,38.1492566 163.814276,37.9285272 L163.814276,37.8828593 C163.814276,37.7458549 163.799042,37.6221722 163.768575,37.5118075 C163.738107,37.4014429 163.677173,37.310108 163.585771,37.2378001 C163.494368,37.1654922 163.361075,37.1103107 163.185887,37.0722539 C163.0107,37.0341971 162.77458,37.015169 162.477523,37.015169 L159.449834,37.015169 C158.7567,37.015169 158.267324,36.895292 157.981691,36.6555342 C157.696059,36.4157765 157.553245,36.0180891 157.553245,35.4624601 L157.553245,35.1199507 C157.553245,34.8839987 157.593233,34.6746895 157.67321,34.492017 C157.753187,34.3093444 157.903618,34.1552168 158.124507,34.0296294 C158.345396,33.904042 158.646257,33.8089015 159.0271,33.7442049 C159.407944,33.6795084 159.903032,33.6471606 160.512382,33.6471606 L162.020513,33.6471606 C162.576544,33.6471606 163.02022,33.6852168 163.351553,33.7613304 C163.682887,33.837444 163.936144,33.9401957 164.111332,34.0695888 C164.28652,34.1989819 164.402675,34.3531095 164.459801,34.5319764 C164.516928,34.7108433 164.545491,34.9030271 164.545491,35.1085338 L164.545491,35.4167922 L163.631472,35.4167922 L163.631472,35.3597073 C163.631472,35.1389779 163.595292,34.9658222 163.522932,34.8402348 C163.450572,34.7146474 163.343937,34.6233125 163.203025,34.5662273 C163.062113,34.5091421 162.886928,34.4748916 162.677464,34.4634745 C162.468001,34.4520575 162.229977,34.4463491 161.963387,34.4463491 L160.249601,34.4463491 C159.899225,34.4463491 159.611693,34.4577659 159.386996,34.4806 C159.162298,34.5034341 158.987113,34.5433931 158.861435,34.6004782 C158.735756,34.6575634 158.650068,34.7374815 158.604367,34.8402348 C158.558665,34.9429881 158.535815,35.0780876 158.535815,35.2455375 L158.535815,35.4624601 C158.535815,35.5842418 158.549145,35.6907992 158.575804,35.7821354 C158.602463,35.8734717 158.657684,35.9514869 158.74147,36.0161835 C158.825255,36.08088 158.945219,36.1303531 159.101365,36.1646042 C159.25751,36.1988553 159.465067,36.2159806 159.72404,36.2159806 L162.317569,36.2159806 C162.683179,36.2159806 163.018316,36.2312031 163.32299,36.2616485 C163.627665,36.2920939 163.888538,36.3663035 164.105619,36.4842796 C164.3227,36.6022556 164.492172,36.7754113 164.614042,37.003752 C164.735912,37.2320927 164.796846,37.5441537 164.796846,37.9399442 L164.796846,37.9627782 C164.796846,38.3737914 164.711158,38.6915608 164.539778,38.9160958 C164.368399,39.1406308 164.151321,39.3080781 163.88854,39.4184428 C163.625758,39.5288075 163.334417,39.5954058 163.014509,39.6182399 C162.694601,39.641074 162.386122,39.6524908 162.089064,39.6524908 L160.283877,39.6524908 C159.918267,39.6524908 159.567897,39.6429768 159.232755,39.6239484 C158.897613,39.60492 158.598655,39.5421273 158.335874,39.4355683 C158.073092,39.3290093 157.863631,39.1558535 157.707485,38.9160958 C157.55134,38.6763381 157.473268,38.3395406 157.473268,37.9056933 Z M168.45,39.561155 L168.45,31.2952632 L169.43257,31.2952632 L169.43257,35.9419731 L169.91243,35.9419731 L173.305726,33.7384964 L174.836708,33.7384964 L174.859559,33.7613304 L170.837875,36.3415673 L175.62505,39.5383211 L175.602199,39.561155 L174.071217,39.561155 L169.855304,36.7411616 L169.43257,36.7411616 L169.43257,39.561155 L168.45,39.561155 Z M178.969722,41.7303808 L178.969722,40.9311923 C179.342948,40.9311923 179.651426,40.9197755 179.895166,40.8969414 C180.138906,40.8741073 180.344558,40.8189258 180.512129,40.7313952 C180.6797,40.6438646 180.822514,40.5163763 180.940575,40.3489265 C181.058637,40.1814766 181.182409,39.9493338 181.311896,39.6524908 L181.071966,39.6524908 L177.770072,33.7384964 L178.87832,33.7384964 L181.700354,38.8875533 L184.236757,33.7384964 L185.299304,33.7384964 L182.008835,40.2804246 C181.856498,40.5772675 181.707971,40.8189245 181.563251,41.0054027 C181.418531,41.1918809 181.237633,41.3383973 181.020552,41.4449563 C180.803471,41.5515153 180.533077,41.6238221 180.20936,41.6618789 C179.885643,41.6999357 179.472435,41.7227694 178.969722,41.7303808 Z M194.756479,37.1864237 L194.756479,36.0447259 C194.756479,35.7098262 194.714587,35.4377243 194.630801,35.228412 C194.547016,35.0190997 194.421339,34.8573608 194.253768,34.7431905 C194.086197,34.6290201 193.874833,34.5510049 193.619668,34.5091424 C193.364503,34.46728 193.069354,34.4463491 192.734212,34.4463491 L191.408884,34.4463491 C191.073742,34.4463491 190.774785,34.4653772 190.512003,34.5034339 C190.249221,34.5414907 190.026431,34.6176031 189.843626,34.7317735 C189.660822,34.8459438 189.519912,35.0095855 189.420892,35.2227035 C189.321873,35.4358215 189.272364,35.7174375 189.272364,36.0675599 L189.272364,37.1750067 C189.272364,37.4414042 189.304735,37.6792555 189.369479,37.8885678 C189.434222,38.0978801 189.540857,38.2729387 189.689386,38.4137488 C189.837914,38.5545589 190.03595,38.6630191 190.283498,38.7391326 C190.531046,38.8152462 190.83762,38.8533024 191.20323,38.8533024 L192.802763,38.8533024 C193.19884,38.8533024 193.524456,38.8190518 193.779621,38.7505496 C194.034786,38.6820474 194.234726,38.5792956 194.379446,38.4422912 C194.524166,38.3052868 194.623184,38.132131 194.676502,37.9228187 C194.72982,37.7135064 194.756479,37.4680439 194.756479,37.1864237 Z M188.289794,39.561155 L188.289794,31.2952632 L189.272364,31.2952632 L189.272364,34.5148509 L189.295215,34.5148509 C189.401851,34.2103967 189.597982,33.9896706 189.883615,33.8526662 C190.169247,33.7156618 190.593881,33.6471606 191.157529,33.6471606 L192.654235,33.6471606 C193.24835,33.6471606 193.741535,33.6909253 194.133803,33.7784559 C194.526072,33.8659865 194.842167,34.0106001 195.082098,34.212301 C195.322029,34.414002 195.491502,34.674687 195.590521,34.994364 C195.689541,35.3140409 195.739049,35.7060199 195.739049,36.1703127 L195.739049,37.1978407 C195.739049,37.7001902 195.664786,38.1111973 195.516257,38.4308742 C195.367728,38.7505512 195.160172,38.9998194 194.893582,39.1786863 C194.626992,39.3575532 194.307088,39.4812358 193.933862,39.5497381 C193.560635,39.6182403 193.153139,39.6524908 192.711361,39.6524908 L191.340333,39.6524908 C190.822386,39.6524908 190.376806,39.5725728 190.00358,39.4127343 C189.630353,39.2528958 189.371384,38.9941136 189.226663,38.6363798 L189.203813,38.6363798 L189.203813,39.561155 L188.289794,39.561155 Z M205.367603,39.561155 L205.367603,38.9788892 L205.344752,38.9788892 C205.276201,39.1082822 205.200033,39.2167424 205.116248,39.304273 C205.032462,39.3918036 204.916307,39.4622076 204.767778,39.5154871 C204.619249,39.5687666 204.425022,39.60492 204.185091,39.6239484 C203.945159,39.6429768 203.638585,39.6524908 203.265359,39.6524908 L200.91176,39.6524908 C200.538533,39.6524908 200.231959,39.6125318 199.992028,39.5326126 C199.752097,39.4526933 199.561678,39.3385247 199.420766,39.1901033 C199.279854,39.0416818 199.180836,38.859012 199.12371,38.6420883 C199.066583,38.4251647 199.038021,38.1797021 199.038021,37.9056933 L199.038021,37.517516 C199.038021,37.1902277 199.095146,36.9276398 199.209399,36.7297446 C199.323652,36.5318493 199.493125,36.3815273 199.717822,36.278774 C199.94252,36.1760206 200.220531,36.1094223 200.551865,36.0789769 C200.883198,36.0485314 201.262132,36.0333089 201.688676,36.0333089 L203.265359,36.0333089 C203.585267,36.0333089 203.857566,36.042823 204.082264,36.0618514 C204.306961,36.0808798 204.499284,36.1170332 204.659238,36.1703127 C204.819192,36.2235922 204.952485,36.295899 205.059121,36.3872352 C205.165758,36.4785715 205.260967,36.5927402 205.344752,36.7297446 L205.367603,36.7297446 L205.367603,35.6337147 C205.367603,35.3749286 205.325711,35.1656194 205.241925,35.005781 C205.15814,34.8459425 205.026751,34.7260654 204.847755,34.6461462 C204.668758,34.5662269 204.44216,34.5129482 204.167953,34.4863085 C203.893746,34.4596687 203.570034,34.4463491 203.196808,34.4463491 L201.757227,34.4463491 C201.444936,34.4463491 201.193583,34.4634743 201.003162,34.4977255 C200.81274,34.5319766 200.664213,34.5833524 200.557577,34.6518546 C200.450941,34.7203569 200.378582,34.8021777 200.340498,34.8973197 C200.302414,34.9924616 200.283372,35.1009218 200.283372,35.2227035 L200.283372,35.4282091 L199.300801,35.4282091 L199.300801,35.1427847 C199.300801,34.8763872 199.344597,34.6480499 199.432191,34.457766 C199.519785,34.2674821 199.660695,34.1133545 199.854925,33.9953784 C200.049155,33.8774024 200.300508,33.7898731 200.608991,33.732788 C200.917474,33.6757028 201.292599,33.6471606 201.734377,33.6471606 L203.288209,33.6471606 C203.745221,33.6471606 204.162238,33.6699943 204.539273,33.7156625 C204.916308,33.7613306 205.238116,33.8564712 205.504706,34.0010869 C205.771296,34.1457027 205.978852,34.3493034 206.127381,34.6118952 C206.27591,34.874487 206.350173,35.2227014 206.350173,35.6565487 L206.350173,39.561155 L205.367603,39.561155 Z M205.367603,37.9970291 L205.367603,37.7344386 C205.367603,37.5365433 205.321902,37.3786101 205.2305,37.260634 C205.139098,37.142658 205.001996,37.0513231 204.819191,36.9866266 C204.636387,36.92193 204.40598,36.8800682 204.127964,36.8610398 C203.849949,36.8420114 203.524333,36.8324974 203.151107,36.8324974 L201.642975,36.8324974 C201.323067,36.8324974 201.060289,36.845817 200.854634,36.8724568 C200.648978,36.8990965 200.483314,36.9466668 200.357636,37.015169 C200.231957,37.0836712 200.144365,37.1769089 200.094855,37.294885 C200.045346,37.412861 200.020591,37.563183 200.020591,37.7458556 L200.020591,37.9285272 C200.020591,38.0883657 200.039633,38.2272709 200.077717,38.3452469 C200.115802,38.4632229 200.191969,38.5602663 200.306222,38.6363798 C200.420475,38.7124934 200.580427,38.7676749 200.786082,38.801926 C200.991737,38.8361771 201.262132,38.8533024 201.597274,38.8533024 L202.899751,38.8533024 C203.341529,38.8533024 203.720463,38.8437884 204.036563,38.82476 C204.352662,38.8057316 204.607824,38.7638697 204.802054,38.6991732 C204.996284,38.6344767 205.139098,38.5469474 205.2305,38.4365827 C205.321902,38.3262181 205.367603,38.1797016 205.367603,37.9970291 Z M210.186131,39.561155 L210.186131,33.7384964 L211.10015,33.7384964 L211.10015,34.5833528 L211.123,34.5833528 C211.214403,34.3930689 211.32675,34.2370384 211.460045,34.1152567 C211.59334,33.993475 211.739963,33.8983345 211.899917,33.8298323 C212.059871,33.7613301 212.225535,33.7137598 212.396915,33.68712 C212.568294,33.6604803 212.737767,33.6471606 212.905338,33.6471606 L213.830782,33.6471606 C214.287794,33.6471606 214.67244,33.6852168 214.984731,33.7613304 C215.297023,33.837444 215.548375,33.957321 215.738797,34.1209652 C215.929218,34.2846094 216.06632,34.4939185 216.150105,34.748899 C216.233891,35.0038794 216.275783,35.3102319 216.275783,35.6679657 L216.275783,36.3644013 L215.361764,36.3644013 L215.361764,36.1132278 C215.361764,35.755494 215.33701,35.4662668 215.2875,35.2455375 C215.23799,35.0248081 215.140877,34.855458 214.996156,34.737482 C214.851436,34.619506 214.64388,34.5414907 214.373481,34.5034339 C214.103082,34.4653772 213.750808,34.4463491 213.316646,34.4463491 L212.711109,34.4463491 C212.452135,34.4463491 212.225537,34.4844053 212.031307,34.5605188 C211.837077,34.6366324 211.677125,34.7393842 211.551447,34.8687772 C211.425769,34.9981703 211.330559,35.1484923 211.265816,35.3197478 C211.201073,35.4910034 211.168701,35.6717704 211.168701,35.8620543 L211.168701,39.561155 L210.186131,39.561155 Z" id="skybar"></path>
                        <path d="M147.636137,39.561155 L146.524169,38.9849959 C146.430819,39.1276646 146.314132,39.2401517 146.174105,39.3224605 C146.034079,39.4047694 145.877582,39.4692437 145.704608,39.5158854 C145.531634,39.5625271 145.347681,39.5927065 145.152742,39.6064247 C144.957804,39.6201428 144.75875,39.6270018 144.555574,39.6270018 L141.672694,39.6270018 C141.244379,39.6270018 140.8902,39.5885916 140.610147,39.51177 C140.330094,39.4349484 140.109076,39.3169741 139.947085,39.1578437 C139.785093,38.9987132 139.672525,38.7956877 139.609376,38.5487612 C139.546227,38.3018346 139.514653,38.0082708 139.514653,37.6680608 C139.514653,37.393698 139.535244,37.1550059 139.576429,36.9519774 C139.617613,36.7489489 139.693116,36.5788465 139.802941,36.441665 C139.912765,36.3044836 140.061026,36.2029709 140.247728,36.1371238 C140.43443,36.0712767 140.67604,36.0383537 140.972566,36.0383537 L140.972566,36.021892 C140.835286,35.9340959 140.72409,35.8572754 140.638976,35.7914283 C140.553862,35.7255812 140.487968,35.6501326 140.441293,35.5650801 C140.394617,35.4800276 140.363043,35.3743995 140.346569,35.2481926 C140.330096,35.1219857 140.321859,34.9518833 140.321859,34.7378802 C140.321859,34.5238772 140.354806,34.3414287 140.420701,34.1905291 C140.486595,34.0396295 140.578572,33.9147963 140.696633,33.8160257 C140.814695,33.7172551 140.954719,33.6459218 141.11671,33.6020237 C141.278702,33.5581257 141.458537,33.536177 141.656221,33.536177 L144.563811,33.536177 C144.849355,33.536177 145.090965,33.5677282 145.288649,33.6308317 C145.486334,33.6939351 145.64695,33.7831017 145.770502,33.8983341 C145.894055,34.0135665 145.981913,34.1534895 146.03408,34.3181072 C146.086247,34.4827249 146.112329,34.6665452 146.112329,34.8695738 L146.112329,35.3634244 L145.354544,35.3634244 L145.354544,34.9189588 C145.354544,34.644596 145.279041,34.4552884 145.128032,34.3510306 C144.977023,34.2467727 144.791697,34.1946445 144.572048,34.1946445 L141.895088,34.1946445 C141.735842,34.1946445 141.6068,34.2097343 141.507958,34.2399142 C141.409116,34.2700941 141.330867,34.3112479 141.273209,34.3633768 C141.215552,34.4155058 141.177114,34.4799801 141.157894,34.5568017 C141.138675,34.6336233 141.129065,34.7214181 141.129065,34.8201887 C141.129065,34.9189593 141.130438,35.0040105 141.133184,35.0753449 C141.13593,35.1466792 141.146912,35.2111535 141.166131,35.2687697 C141.18535,35.3263859 141.214179,35.3757705 141.252617,35.4169249 C141.291056,35.4580793 141.345968,35.4978613 141.417353,35.5362721 L146.013488,37.9643712 L146.013488,36.6309744 L146.771273,36.6309744 L146.771273,37.8902936 C146.771273,37.9561407 146.767155,38.0247304 146.758918,38.0960647 C146.750681,38.1673991 146.741072,38.2414759 146.730089,38.3182975 L147.932662,38.9520725 L147.636137,39.561155 Z M145.782857,38.6310696 L141.549142,36.4169725 L141.302038,36.4169725 C141.247126,36.4169725 141.166132,36.426575 141.059053,36.4457804 C140.951974,36.4649858 140.843524,36.5088832 140.733699,36.577474 C140.623875,36.6460647 140.52778,36.750321 140.445411,36.890246 C140.363043,37.0301711 140.321859,37.2181068 140.321859,37.4540589 L140.321859,37.8573703 C140.321859,38.0274752 140.33696,38.1811161 140.367161,38.3182975 C140.397363,38.455479 140.461884,38.5720814 140.560726,38.6681084 C140.659568,38.7641354 140.79822,38.8382123 140.976685,38.8903412 C141.15515,38.9424702 141.392642,38.9685342 141.689168,38.9685342 L144.448496,38.9685342 C144.838373,38.9685342 145.14725,38.9438419 145.375136,38.8944566 C145.603022,38.8450713 145.738928,38.7572765 145.782857,38.6310696 Z" id="&amp;"></path>
                        <polygon id="Line-2" fill-rule="nonzero" points="6.77543226 30.0789482 6.77543226 28.8079552 237.804387 28.8079552 237.804387 30.0789482"></polygon>
                        <polygon id="Line-2-Copy" fill-rule="nonzero" points="6.77543226 45.2130813 6.77543226 43.9420883 237.804387 43.9420883 237.804387 45.2130813"></polygon>
                        <path d="M28.6385565,39.561155 L28.6385565,33.7384964 L29.5525756,33.7384964 L29.5525756,34.5833528 L29.5754261,34.5833528 C29.6668284,34.3930689 29.7791755,34.2370384 29.9124706,34.1152567 C30.0457657,33.993475 30.1923882,33.8983345 30.3523423,33.8298323 C30.5122964,33.7613301 30.6779607,33.7137598 30.8493402,33.68712 C31.0207196,33.6604803 31.1901923,33.6471606 31.3577633,33.6471606 L32.2832076,33.6471606 C32.7402195,33.6471606 33.1248653,33.6852168 33.4371567,33.7613304 C33.7494482,33.837444 34.0008009,33.957321 34.1912225,34.1209652 C34.3816441,34.2846094 34.5187456,34.4939185 34.6025311,34.748899 C34.6863166,35.0038794 34.7282087,35.3102319 34.7282087,35.6679657 L34.7282087,36.3644013 L33.8141896,36.3644013 L33.8141896,36.1132278 C33.8141896,35.755494 33.7894352,35.4662668 33.7399256,35.2455375 C33.690416,35.0248081 33.5933024,34.855458 33.448582,34.737482 C33.3038616,34.619506 33.0963051,34.5414907 32.8259065,34.5034339 C32.5555078,34.4653772 32.2032331,34.4463491 31.7690719,34.4463491 L31.1635342,34.4463491 C30.9045609,34.4463491 30.6779626,34.4844053 30.4837325,34.5605188 C30.2895025,34.6366324 30.1295508,34.7393842 30.0038725,34.8687772 C29.8781943,34.9981703 29.7829849,35.1484923 29.7182415,35.3197478 C29.6534982,35.4910034 29.621127,35.6717704 29.621127,35.8620543 L29.621127,39.561155 L28.6385565,39.561155 Z M44.1282574,36.021892 L44.1282574,35.6337147 C44.1282574,35.489099 44.0958862,35.3444853 44.0311429,35.1998696 C43.9663995,35.0552538 43.8578609,34.9277655 43.7055236,34.8174008 C43.5531863,34.7070362 43.3437257,34.6176041 43.0771355,34.5491019 C42.8105452,34.4805996 42.4792166,34.4463491 42.0831397,34.4463491 L40.6435596,34.4463491 C40.2550996,34.4463491 39.9351961,34.46728 39.6838396,34.5091424 C39.4324831,34.5510049 39.2325434,34.6290201 39.0840145,34.7431905 C38.9354857,34.8573608 38.8288512,35.0171969 38.7641078,35.2227035 C38.6993645,35.4282102 38.6555682,35.6946036 38.6327176,36.021892 L44.1282574,36.021892 Z M37.6501471,37.2663425 L37.6501471,35.999058 C37.6501471,35.4738744 37.7339313,35.0552561 37.9015023,34.7431905 C38.0690733,34.4311249 38.2880549,34.1932735 38.5584535,34.0296294 C38.8288522,33.8659852 39.1335222,33.7613306 39.4724726,33.7156625 C39.8114231,33.6699943 40.156081,33.6471606 40.5064567,33.6471606 L42.0831397,33.6471606 C42.5249178,33.6471606 42.9305097,33.6814112 43.2999276,33.7499134 C43.6693455,33.8184156 43.9873448,33.9459039 44.253935,34.1323822 C44.5205253,34.3188604 44.7299859,34.5757398 44.8823232,34.9030282 C45.0346605,35.2303165 45.1108279,35.6527404 45.1108279,36.1703127 L45.1108279,36.8210804 L38.6327176,36.8210804 L38.6327176,37.1864237 C38.6327176,37.5213234 38.6746097,37.7953281 38.7583952,38.0084461 C38.8421807,38.2215641 38.977378,38.3909142 39.1639912,38.5165016 C39.3506044,38.642089 39.5943404,38.7296182 39.8952065,38.7790921 C40.1960726,38.8285659 40.5597724,38.8533024 40.9863168,38.8533024 L42.3344949,38.8533024 C42.6391695,38.8533024 42.9019474,38.8399827 43.1228364,38.813343 C43.3437255,38.7867032 43.5265275,38.7353274 43.6712479,38.6592138 C43.8159683,38.5831002 43.924507,38.4765428 43.9968672,38.3395384 C44.0692274,38.202534 44.1130237,38.0236698 44.1282574,37.8029405 L45.1108279,37.8029405 L45.1108279,37.9171103 C45.1108279,38.2520099 45.0441814,38.5298203 44.9108863,38.7505496 C44.7775912,38.971279 44.583364,39.1482403 44.3281991,39.2814391 C44.0730342,39.4146378 43.7645558,39.5097783 43.4027548,39.5668635 C43.0409537,39.6239487 42.6315534,39.6524908 42.1745416,39.6524908 L40.3922044,39.6524908 C40.0722961,39.6524908 39.7485842,39.6296571 39.4210591,39.583989 C39.0935339,39.5383208 38.7983849,39.4317635 38.5356031,39.2643136 C38.2728213,39.0968638 38.0595523,38.8571096 37.8957897,38.545044 C37.7320271,38.2329784 37.6501471,37.8067488 37.6501471,37.2663425 Z M48.4555001,37.9056933 L48.4555001,37.551767 L49.3695192,37.551767 L49.3695192,37.8371914 C49.3695192,38.2025365 49.4742495,38.4632216 49.6837133,38.6192544 C49.893177,38.7752872 50.2492601,38.8533024 50.7519731,38.8533024 L52.854217,38.8533024 C53.2198265,38.8533024 53.5283049,38.8456912 53.7796614,38.8304685 C54.0310179,38.8152457 54.2309576,38.7771895 54.3794864,38.7162987 C54.5280152,38.6554078 54.6346497,38.5640729 54.6993931,38.4422912 C54.7641364,38.3205095 54.7965076,38.1492566 54.7965076,37.9285272 L54.7965076,37.8828593 C54.7965076,37.7458549 54.7812741,37.6221722 54.7508067,37.5118075 C54.7203392,37.4014429 54.6594052,37.310108 54.5680028,37.2378001 C54.4766005,37.1654922 54.3433074,37.1103107 54.1681195,37.0722539 C53.9929316,37.0341971 53.7568124,37.015169 53.4597547,37.015169 L50.4320664,37.015169 C49.7389318,37.015169 49.2495556,36.895292 48.9639233,36.6555342 C48.6782909,36.4157765 48.5354768,36.0180891 48.5354768,35.4624601 L48.5354768,35.1199507 C48.5354768,34.8839987 48.5754647,34.6746895 48.6554418,34.492017 C48.7354189,34.3093444 48.8858497,34.1552168 49.1067387,34.0296294 C49.3276278,33.904042 49.6284894,33.8089015 50.0093326,33.7442049 C50.3901758,33.6795084 50.8852645,33.6471606 51.4946136,33.6471606 L53.0027451,33.6471606 C53.5587762,33.6471606 54.0024519,33.6852168 54.3337854,33.7613304 C54.665119,33.837444 54.918376,33.9401957 55.0935638,34.0695888 C55.2687517,34.1989819 55.3849071,34.3531095 55.4420336,34.5319764 C55.4991601,34.7108433 55.5277229,34.9030271 55.5277229,35.1085338 L55.5277229,35.4167922 L54.6137038,35.4167922 L54.6137038,35.3597073 C54.6137038,35.1389779 54.5775242,34.9658222 54.505164,34.8402348 C54.4328038,34.7146474 54.3261693,34.6233125 54.1852573,34.5662273 C54.0443454,34.5091421 53.8691601,34.4748916 53.6596964,34.4634745 C53.4502326,34.4520575 53.2122092,34.4463491 52.9456189,34.4463491 L51.2318331,34.4463491 C50.8814574,34.4463491 50.5939251,34.4577659 50.3692276,34.4806 C50.1445301,34.5034341 49.9693449,34.5433931 49.8436666,34.6004782 C49.7179884,34.6575634 49.6322999,34.7374815 49.5865988,34.8402348 C49.5408976,34.9429881 49.5180473,35.0780876 49.5180473,35.2455375 L49.5180473,35.4624601 C49.5180473,35.5842418 49.5313766,35.6907992 49.5580357,35.7821354 C49.5846947,35.8734717 49.6399161,35.9514869 49.7237016,36.0161835 C49.8074871,36.08088 49.9274509,36.1303531 50.0835966,36.1646042 C50.2397424,36.1988553 50.4472988,36.2159806 50.7062722,36.2159806 L53.2998013,36.2159806 C53.6654108,36.2159806 54.0005478,36.2312031 54.3052223,36.2616485 C54.6098969,36.2920939 54.8707706,36.3663035 55.0878512,36.4842796 C55.3049318,36.6022556 55.4744045,36.7754113 55.5962743,37.003752 C55.7181441,37.2320927 55.7790781,37.5441537 55.7790781,37.9399442 L55.7790781,37.9627782 C55.7790781,38.3737914 55.6933897,38.6915608 55.5220103,38.9160958 C55.3506308,39.1406308 55.1335535,39.3080781 54.8707717,39.4184428 C54.6079899,39.5288075 54.3166492,39.5954058 53.9967409,39.6182399 C53.6768326,39.641074 53.3683543,39.6524908 53.0712966,39.6524908 L51.2661089,39.6524908 C50.9004994,39.6524908 50.5501289,39.6429768 50.2149869,39.6239484 C49.8798449,39.60492 49.5808875,39.5421273 49.3181057,39.4355683 C49.0553238,39.3290093 48.8458632,39.1558535 48.6897175,38.9160958 C48.5335718,38.6763381 48.4555001,38.3395406 48.4555001,37.9056933 Z M59.9577927,37.8143575 L59.9577927,34.5376849 L58.678166,34.5376849 L58.678166,33.7384964 L59.9577927,33.7384964 L59.9577927,32.3570421 L60.9403633,32.3570421 L60.9403633,33.7384964 L64.8363697,33.7384964 L64.8363697,34.5376849 L60.9403633,34.5376849 L60.9403633,37.4375972 C60.9403633,37.711606 60.9651177,37.9380405 61.0146273,38.1169074 C61.0641369,38.2957742 61.146017,38.4403878 61.26027,38.5507525 C61.3745229,38.6611172 61.5249537,38.7391324 61.7115669,38.7848005 C61.8981801,38.8304687 62.1247784,38.8533024 62.3913686,38.8533024 L62.69985,38.8533024 C63.0273752,38.8533024 63.290153,38.8323715 63.4881915,38.790509 C63.68623,38.7486466 63.838565,38.6725342 63.9452011,38.5621695 C64.0518372,38.4518048 64.1222921,38.29958 64.156568,38.1054904 C64.1908439,37.9114008 64.2079815,37.6621326 64.2079815,37.3576783 L64.2079815,36.9238332 L65.0077483,36.9238332 L65.0077483,37.5631839 C65.0077483,37.8524155 64.9906106,38.1245174 64.9563347,38.3794978 C64.9220588,38.6344783 64.8306578,38.8571071 64.682129,39.047391 C64.5336001,39.2376749 64.3108102,39.3860942 64.0137525,39.4926532 C63.7166948,39.5992122 63.3015819,39.6524908 62.7684015,39.6524908 L62.2314153,39.6524908 C61.7744034,39.6524908 61.3973743,39.601115 61.1003166,39.4983617 C60.8032589,39.3956083 60.5709481,39.258606 60.4033771,39.0873505 C60.2358061,38.9160949 60.1196506,38.7201054 60.0549073,38.4993761 C59.9901639,38.2786468 59.9577927,38.0503095 59.9577927,37.8143575 Z M74.2478436,39.561155 L74.2478436,38.9788892 L74.2249931,38.9788892 C74.1564414,39.1082822 74.0802739,39.2167424 73.9964884,39.304273 C73.9127029,39.3918036 73.7965474,39.4622076 73.6480186,39.5154871 C73.4994897,39.5687666 73.3052626,39.60492 73.0653314,39.6239484 C72.8254002,39.6429768 72.518826,39.6524908 72.1455997,39.6524908 L69.7920005,39.6524908 C69.4187742,39.6524908 69.1122,39.6125318 68.8722688,39.5326126 C68.6323376,39.4526933 68.4419188,39.3385247 68.3010069,39.1901033 C68.1600949,39.0416818 68.0610771,38.859012 68.0039507,38.6420883 C67.9468242,38.4251647 67.9182614,38.1797021 67.9182614,37.9056933 L67.9182614,37.517516 C67.9182614,37.1902277 67.975387,36.9276398 68.08964,36.7297446 C68.2038929,36.5318493 68.3733656,36.3815273 68.5980631,36.278774 C68.8227606,36.1760206 69.1007719,36.1094223 69.4321055,36.0789769 C69.7634391,36.0485314 70.1423724,36.0333089 70.5689168,36.0333089 L72.1455997,36.0333089 C72.465508,36.0333089 72.7378068,36.042823 72.9625043,36.0618514 C73.1872017,36.0808798 73.3795247,36.1170332 73.5394788,36.1703127 C73.699433,36.2235922 73.8327261,36.295899 73.9393622,36.3872352 C74.0459983,36.4785715 74.1412076,36.5927402 74.2249931,36.7297446 L74.2478436,36.7297446 L74.2478436,35.6337147 C74.2478436,35.3749286 74.2059515,35.1656194 74.122166,35.005781 C74.0383805,34.8459425 73.9069916,34.7260654 73.7279953,34.6461462 C73.548999,34.5662269 73.3224007,34.5129482 73.0481936,34.4863085 C72.7739865,34.4596687 72.4502746,34.4463491 72.0770483,34.4463491 L70.6374682,34.4463491 C70.3251768,34.4463491 70.073824,34.4634743 69.8834024,34.4977255 C69.6929808,34.5319766 69.5444542,34.5833524 69.4378181,34.6518546 C69.331182,34.7203569 69.2588229,34.8021777 69.2207386,34.8973197 C69.1826543,34.9924616 69.1636124,35.1009218 69.1636124,35.2227035 L69.1636124,35.4282091 L68.1810419,35.4282091 L68.1810419,35.1427847 C68.1810419,34.8763872 68.2248382,34.6480499 68.3124321,34.457766 C68.400026,34.2674821 68.5409359,34.1133545 68.7351659,33.9953784 C68.929396,33.8774024 69.1807487,33.7898731 69.4892317,33.732788 C69.7977147,33.6757028 70.1728396,33.6471606 70.6146177,33.6471606 L72.1684502,33.6471606 C72.625462,33.6471606 73.042479,33.6699943 73.4195138,33.7156625 C73.7965486,33.7613306 74.1183562,33.8564712 74.3849465,34.0010869 C74.6515367,34.1457027 74.8590931,34.3493034 75.007622,34.6118952 C75.1561508,34.874487 75.2304141,35.2227014 75.2304141,35.6565487 L75.2304141,39.561155 L74.2478436,39.561155 Z M74.2478436,37.9970291 L74.2478436,37.7344386 C74.2478436,37.5365433 74.2021431,37.3786101 74.1107408,37.260634 C74.0193384,37.142658 73.8822369,37.0513231 73.6994322,36.9866266 C73.5166274,36.92193 73.2862207,36.8800682 73.0082052,36.8610398 C72.7301897,36.8420114 72.4045736,36.8324974 72.0313473,36.8324974 L70.5232158,36.8324974 C70.2033075,36.8324974 69.9405296,36.845817 69.7348743,36.8724568 C69.529219,36.8990965 69.3635547,36.9466668 69.2378764,37.015169 C69.1121982,37.0836712 69.0246056,37.1769089 68.975096,37.294885 C68.9255863,37.412861 68.9008319,37.563183 68.9008319,37.7458556 L68.9008319,37.9285272 C68.9008319,38.0883657 68.9198738,38.2272709 68.9579581,38.3452469 C68.9960424,38.4632229 69.0722099,38.5602663 69.1864629,38.6363798 C69.3007158,38.7124934 69.4606676,38.7676749 69.6663229,38.801926 C69.8719782,38.8361771 70.1423728,38.8533024 70.4775148,38.8533024 L71.7799921,38.8533024 C72.2217702,38.8533024 72.6007035,38.8437884 72.9168033,38.82476 C73.2329032,38.8057316 73.4880643,38.7638697 73.6822943,38.6991732 C73.8765243,38.6344767 74.0193384,38.5469474 74.1107408,38.4365827 C74.2021431,38.3262181 74.2478436,38.1797016 74.2478436,37.9970291 Z M85.258851,39.561155 L85.258851,38.556461 L85.2360005,38.556461 C85.1445981,38.7848017 85.0284427,38.9693743 84.8875307,39.1101844 C84.7466187,39.2509945 84.5790502,39.3613575 84.3848202,39.4412768 C84.1905902,39.521196 83.9678003,39.5763775 83.7164437,39.6068229 C83.4650872,39.6372684 83.1870759,39.6524908 82.8824013,39.6524908 L81.4085455,39.6524908 C80.9515337,39.6524908 80.5668878,39.5992122 80.2545964,39.4926532 C79.942305,39.3860942 79.6928564,39.2414806 79.5062433,39.058808 C79.3196301,38.8761355 79.186337,38.6668263 79.1063599,38.4308742 C79.0263829,38.1949222 78.9863949,37.9437512 78.9863949,37.6773537 L78.9863949,33.7384964 L79.9689654,33.7384964 L79.9689654,37.4375972 C79.9689654,37.6507152 79.9918157,37.8448018 80.0375169,38.019863 C80.0832181,38.1949242 80.1803316,38.3433435 80.3288605,38.4651252 C80.4773893,38.5869069 80.6925625,38.6820474 80.9743865,38.7505496 C81.2562104,38.8190518 81.6370479,38.8533024 82.1169103,38.8533024 L82.3682656,38.8533024 C82.9395304,38.8533024 83.4079605,38.8228574 83.7735699,38.7619666 C84.1391794,38.7010757 84.4267117,38.6021296 84.6361755,38.4651252 C84.8456392,38.3281208 84.9903575,38.1435481 85.0703345,37.9114018 C85.1503116,37.6792554 85.1902995,37.391931 85.1902995,37.04942 L85.1902995,33.7384964 L86.1728701,33.7384964 L86.1728701,39.561155 L85.258851,39.561155 Z M90.1230799,39.561155 L90.1230799,33.7384964 L91.037099,33.7384964 L91.037099,34.5833528 L91.0599495,34.5833528 C91.1513518,34.3930689 91.2636989,34.2370384 91.396994,34.1152567 C91.5302891,33.993475 91.6769116,33.8983345 91.8368657,33.8298323 C91.9968198,33.7613301 92.1624842,33.7137598 92.3338636,33.68712 C92.505243,33.6604803 92.6747157,33.6471606 92.8422867,33.6471606 L93.767731,33.6471606 C94.2247429,33.6471606 94.6093887,33.6852168 94.9216802,33.7613304 C95.2339716,33.837444 95.4853243,33.957321 95.6757459,34.1209652 C95.8661675,34.2846094 96.003269,34.4939185 96.0870545,34.748899 C96.17084,35.0038794 96.2127321,35.3102319 96.2127321,35.6679657 L96.2127321,36.3644013 L95.298713,36.3644013 L95.298713,36.1132278 C95.298713,35.755494 95.2739586,35.4662668 95.224449,35.2455375 C95.1749394,35.0248081 95.0778258,34.855458 94.9331054,34.737482 C94.788385,34.619506 94.5808286,34.5414907 94.3104299,34.5034339 C94.0400312,34.4653772 93.6877565,34.4463491 93.2535953,34.4463491 L92.6480577,34.4463491 C92.3890843,34.4463491 92.162486,34.4844053 91.968256,34.5605188 C91.7740259,34.6366324 91.6140742,34.7393842 91.4883959,34.8687772 C91.3627177,34.9981703 91.2675083,35.1484923 91.202765,35.3197478 C91.1380216,35.4910034 91.1056504,35.6717704 91.1056504,35.8620543 L91.1056504,39.561155 L90.1230799,39.561155 Z M105.418552,39.561155 L105.418552,38.9788892 L105.395701,38.9788892 C105.32715,39.1082822 105.250982,39.2167424 105.167197,39.304273 C105.083411,39.3918036 104.967256,39.4622076 104.818727,39.5154871 C104.670198,39.5687666 104.475971,39.60492 104.23604,39.6239484 C103.996108,39.6429768 103.689534,39.6524908 103.316308,39.6524908 L100.962709,39.6524908 C100.589482,39.6524908 100.282908,39.6125318 100.042977,39.5326126 C99.8030457,39.4526933 99.612627,39.3385247 99.471715,39.1901033 C99.330803,39.0416818 99.2317853,38.859012 99.1746588,38.6420883 C99.1175323,38.4251647 99.0889695,38.1797021 99.0889695,37.9056933 L99.0889695,37.517516 C99.0889695,37.1902277 99.1460951,36.9276398 99.2603481,36.7297446 C99.3746011,36.5318493 99.5440737,36.3815273 99.7687712,36.278774 C99.9934687,36.1760206 100.27148,36.1094223 100.602814,36.0789769 C100.934147,36.0485314 101.313081,36.0333089 101.739625,36.0333089 L103.316308,36.0333089 C103.636216,36.0333089 103.908515,36.042823 104.133212,36.0618514 C104.35791,36.0808798 104.550233,36.1170332 104.710187,36.1703127 C104.870141,36.2235922 105.003434,36.295899 105.11007,36.3872352 C105.216706,36.4785715 105.311916,36.5927402 105.395701,36.7297446 L105.418552,36.7297446 L105.418552,35.6337147 C105.418552,35.3749286 105.37666,35.1656194 105.292874,35.005781 C105.209089,34.8459425 105.0777,34.7260654 104.898703,34.6461462 C104.719707,34.5662269 104.493109,34.5129482 104.218902,34.4863085 C103.944695,34.4596687 103.620983,34.4463491 103.247756,34.4463491 L101.808176,34.4463491 C101.495885,34.4463491 101.244532,34.4634743 101.054111,34.4977255 C100.863689,34.5319766 100.715162,34.5833524 100.608526,34.6518546 C100.50189,34.7203569 100.429531,34.8021777 100.391447,34.8973197 C100.353362,34.9924616 100.334321,35.1009218 100.334321,35.2227035 L100.334321,35.4282091 L99.35175,35.4282091 L99.35175,35.1427847 C99.35175,34.8763872 99.3955463,34.6480499 99.4831403,34.457766 C99.5707342,34.2674821 99.7116441,34.1133545 99.9058741,33.9953784 C100.100104,33.8774024 100.351457,33.7898731 100.65994,33.732788 C100.968423,33.6757028 101.343548,33.6471606 101.785326,33.6471606 L103.339158,33.6471606 C103.79617,33.6471606 104.213187,33.6699943 104.590222,33.7156625 C104.967257,33.7613306 105.289064,33.8564712 105.555655,34.0010869 C105.822245,34.1457027 106.029801,34.3493034 106.17833,34.6118952 C106.326859,34.874487 106.401122,35.2227014 106.401122,35.6565487 L106.401122,39.561155 L105.418552,39.561155 Z M105.418552,37.9970291 L105.418552,37.7344386 C105.418552,37.5365433 105.372851,37.3786101 105.281449,37.260634 C105.190047,37.142658 105.052945,37.0513231 104.87014,36.9866266 C104.687336,36.92193 104.456929,36.8800682 104.178913,36.8610398 C103.900898,36.8420114 103.575282,36.8324974 103.202055,36.8324974 L101.693924,36.8324974 C101.374016,36.8324974 101.111238,36.845817 100.905582,36.8724568 C100.699927,36.8990965 100.534263,36.9466668 100.408585,37.015169 C100.282906,37.0836712 100.195314,37.1769089 100.145804,37.294885 C100.096294,37.412861 100.07154,37.563183 100.07154,37.7458556 L100.07154,37.9285272 C100.07154,38.0883657 100.090582,38.2272709 100.128666,38.3452469 C100.166751,38.4632229 100.242918,38.5602663 100.357171,38.6363798 C100.471424,38.7124934 100.631376,38.7676749 100.837031,38.801926 C101.042686,38.8361771 101.313081,38.8533024 101.648223,38.8533024 L102.9507,38.8533024 C103.392478,38.8533024 103.771412,38.8437884 104.087511,38.82476 C104.403611,38.8057316 104.658772,38.7638697 104.853002,38.6991732 C105.047232,38.6344767 105.190047,38.5469474 105.281449,38.4365827 C105.372851,38.3262181 105.418552,38.1797016 105.418552,37.9970291 Z M110.157103,39.561155 L110.157103,33.7384964 L111.071122,33.7384964 L111.071122,34.7431905 L111.093973,34.7431905 C111.185375,34.5148498 111.30153,34.3302772 111.442442,34.1894671 C111.583354,34.048657 111.750923,33.9382939 111.945153,33.8583747 C112.139383,33.7784555 112.362173,33.723274 112.613529,33.6928285 C112.864886,33.6623831 113.142897,33.6471606 113.447572,33.6471606 L114.921428,33.6471606 C115.378439,33.6471606 115.763085,33.7004393 116.075377,33.8069983 C116.387668,33.9135573 116.637117,34.0581709 116.82373,34.2408435 C117.010343,34.423516 117.143636,34.634728 117.223613,34.8744857 C117.30359,35.1142434 117.343578,35.3635116 117.343578,35.6222977 L117.343578,39.561155 L116.361008,39.561155 L116.361008,35.8620543 C116.361008,35.6489363 116.338157,35.4548496 116.292456,35.2797884 C116.246755,35.1047272 116.149642,34.956308 116.001113,34.8345263 C115.852584,34.7127446 115.637411,34.6176041 115.355587,34.5491019 C115.073763,34.4805996 114.692925,34.4463491 114.213063,34.4463491 L113.961708,34.4463491 C113.390443,34.4463491 112.922013,34.476794 112.556403,34.5376849 C112.190794,34.5985757 111.903261,34.6975219 111.693798,34.8345263 C111.484334,34.9715307 111.339616,35.1561033 111.259639,35.3882497 C111.179662,35.6203961 111.139674,35.9077205 111.139674,36.2502315 L111.139674,39.561155 L110.157103,39.561155 Z M127.417716,36.9352502 L127.417716,36.2273976 C127.425333,35.9533887 127.402483,35.7079262 127.349165,35.4910025 C127.295847,35.2740788 127.202541,35.0876034 127.069246,34.9315706 C126.935951,34.7755378 126.755053,34.6556607 126.526547,34.5719358 C126.298041,34.4882109 126.012413,34.4463491 125.669654,34.4463491 L123.670238,34.4463491 C123.418881,34.4463491 123.188475,34.4653772 122.979011,34.5034339 C122.769547,34.5414907 122.586745,34.6080891 122.430599,34.703231 C122.274454,34.798373 122.152586,34.9258613 122.064992,35.0856998 C121.977398,35.2455383 121.933601,35.4434306 121.933601,35.6793826 L121.933601,36.7525785 C121.933601,37.0874782 121.964068,37.3671914 122.025003,37.5917264 C122.085938,37.8162614 122.183052,37.9951256 122.316347,38.1283243 C122.449642,38.2615231 122.622923,38.3566636 122.836195,38.4137488 C123.049467,38.470834 123.304629,38.4993761 123.601686,38.4993761 L125.498276,38.4993761 C126.199027,38.4993761 126.694116,38.3642766 126.983557,38.0940734 C127.272998,37.8238702 127.417716,37.4375997 127.417716,36.9352502 Z M128.400287,33.7384964 L128.400287,39.5497381 C128.400287,39.9911967 128.312694,40.3489251 128.137506,40.6229339 C127.962318,40.8969428 127.741432,41.1119604 127.474842,41.2679932 C127.208252,41.424026 126.911199,41.5286806 126.583674,41.5819601 C126.256148,41.6352396 125.940053,41.6618789 125.635379,41.6618789 L123.418882,41.6618789 C122.969487,41.6618789 122.596267,41.6066974 122.299209,41.4963327 C122.002151,41.3859681 121.767936,41.2451601 121.596557,41.0739046 C121.425177,40.902649 121.305214,40.7142708 121.236662,40.5087642 C121.16811,40.3032575 121.133835,40.1091709 121.133835,39.9264983 L121.133835,39.7324097 L122.047854,39.7324097 L122.047854,39.8922474 C122.047854,40.0825313 122.093554,40.2404646 122.184957,40.366052 C122.276359,40.4916393 122.398227,40.5905855 122.550564,40.6628934 C122.702902,40.7352013 122.881895,40.7865771 123.087551,40.8170226 C123.293206,40.847468 123.510283,40.8626905 123.738789,40.8626905 L124.698509,40.8626905 C125.185988,40.8626905 125.601101,40.8531764 125.94386,40.834148 C126.286619,40.8151196 126.566535,40.7542297 126.783615,40.6514764 C127.000696,40.5487231 127.160648,40.3907898 127.263475,40.1776718 C127.366303,39.9645538 127.417716,39.6601041 127.417716,39.2643136 L127.417716,38.3966233 L127.394866,38.3966233 C127.341547,38.5336277 127.272997,38.6573104 127.189211,38.7676751 C127.105426,38.8780398 126.98927,38.9731803 126.840741,39.0530995 C126.692213,39.1330188 126.503698,39.1939087 126.275192,39.2357712 C126.046686,39.2776336 125.761058,39.2985645 125.418299,39.2985645 L123.396032,39.2985645 C122.573411,39.2985645 121.960262,39.0987694 121.556569,38.6991732 C121.152875,38.299577 120.951031,37.7230254 120.951031,36.9695011 L120.951031,35.999058 C120.951031,35.4738744 121.036719,35.0552561 121.208099,34.7431905 C121.379478,34.4311249 121.594651,34.1932735 121.853625,34.0296294 C122.112598,33.8659852 122.396322,33.7613306 122.704805,33.7156625 C123.013288,33.6699943 123.304629,33.6471606 123.578836,33.6471606 L125.669654,33.6471606 C125.852459,33.6471606 126.035261,33.6623831 126.218066,33.6928285 C126.400871,33.723274 126.572248,33.7784555 126.732202,33.8583747 C126.892156,33.9382939 127.03497,34.0524626 127.160648,34.200884 C127.286326,34.3493055 127.387248,34.5414894 127.463417,34.7774414 L127.486267,34.7774414 L127.486267,33.7384964 L128.400287,33.7384964 Z" id="restaurang"></path>
                    </g>
                </g>
            </g>
        </g>
    </g>
</svg>