<svg width="2012" height="2104" xmlns="http://www.w3.org/2000/svg"><g fill="#000" fill-rule="evenodd"><path d="M1732.28 1729.77c17.93 21.72 43.72 45 61.63 70.3-1.29 6.28-7.58 7.56-10.81 11.9-18-11.58-29.5-29.62-43.25-45.43-12.79-16.41-31.67-26.73-41.09-46.51 7.19-4.69 12-11.74 20.54-15.13 23.67 15.61 51.63 27 78.94 38.93-15.36-20.7-40.11-41.35-56.23-64.89 2.27-7.82 5.78-14.41 16.22-14.07 23.69 32.55 55 57.51 81.1 87.61-1.32 9.5-9.16 12.47-13 19.47-32.55-12.84-64.81-26-94.05-42.18zM1511.68 1890.92a23.33 23.33 0 0 1-13 4.33c-5.76-2.17-7.15-8.71-13-10.81-15.39 4.79-31.71 8.65-34.6 25.95 7.36 26.54 20.95 46.83 33.52 68.14 16.39-1.81 28.61-2.15 37.85-11.89 1.35-12.9-4.74-18.33-6.49-28.13-6.8-.48-9.15 3.58-15.14 1.09-3.81-4.41-2.14-9.17-4.32-16.23 5.25-5.56 12.27-9.36 21.62-10.81 14.24 12.43 21.25 32.1 25.95 54.08-5.88 22.23-31.74 24.49-50.82 33.53-3.56-1.49-8.64-1.45-13-2.17-13.41-10.33-20.48-26-30.28-43.26-8.88-15.69-16.15-28.68-17.3-51.92 7.31-24.42 30.9-32.54 60.55-34.61 6.62 7.16 14.52 12.96 18.46 22.71zM1189.44 1965.53c3.56 40.44 11.29 85.06 19.47 124.38-5.18 4.42-11.73 2.17-18.38 0-12.73-37.9-10.72-83.86-22.71-122.21 3.51-6.4 16.62-8.96 21.62-2.17zM915.88 1988.27c.9 8.3 2.07 20.3-3.25 27-6 .59-9.36-1.45-13-3.24 1.81-5.46-.81-9.94 0-17.3-8.85-4.83-33-9.75-38.93 2.16v21.64c15.12 12.63 43.75 11.76 54.07 29.2 1.21 12-.64 32.88-4.33 48.67-6.66 1.28-10.25 5.62-16.22 7.57-18.48-.47-34.29-3.19-49.74-4.32-10.44-10.18-13.46-47 8.65-35.69.8 6.93-1.26 11-1.08 17.3 9.91 8.1 29.73 4.92 42.17 5.41 4.28-6.9 5.72-16.63 6.49-27-13.67-13.73-34.6-20.19-53-29.2-7.11-12.91-2.78-33.57 2.17-46.51 13.5-13.15 32.87-6.75 56.22-4.33 3.53 2.62 5.14 7.14 9.78 8.64zM610.94 1911.53c-2.55 5.37-5.28 10.57-7.56 16.22-20 .86-25.77-12.45-42.18-15.14-6.61 8.52-11 19.31-15.14 30.28 9 10.08 41.94 12 27 32.45-14.1-2.12-23.41-9-33.52-15.15a201.94 201.94 0 0 0-14.06 35.7c12.74 5.87 28 14.23 41.09 16.22 4.2 3.44 1.31 11.86-1.08 15.14-20.81 1.66-31.89-15.66-54.07-16.22-3.79-1.61-6.71-4.11-9.73-6.49 14.25-38 30.15-74.39 46.5-110.32 21.55-6.38 40.92 13.52 62.75 17.31z"/><path d="M331.96 1769.79c-2 3.79-2.67 8.87-4.32 13-20.4 24.3-39.73 49.67-64.88 69.22-28.1-4.34-43.89-21-61.64-35.69 17.3-33.53 47-54.66 64.88-87.61 5.43-1.06 6.13-6.85 10.81-8.66 10-.09 19.33 10.35 28.12 18.39 11.57 10.58 21.91 16.76 27.03 31.35zm-48.66-24.88c-7 9.95-18 15.86-21.62 29.21-13.54 9.52-22.4 23.74-33.52 35.69 6.55 10.17 19.53 19.2 32.43 19.47 19.31-15.3 34.31-34.92 48.66-55.16-4.81-13.59-15.76-21.01-25.95-29.21z" fill-rule="nonzero"/><path d="M1982.06 1169.53c4.34 8.9 5 21.5 3.25 31.36-75.77 3.42-170.61-.46-240.06-2.16.4-1.84-.84-2-2.16-2.16-1.38-8.15-.63-18.39 0-26 70.15 3.07 165.07-1.46 238.97-1.04zM1764.72 1050.53c3.92 7.24 1 16.58 0 24.88-5.35 14.48-30.27 9.39-31.37 28.12 11.26 3.37 21.66-2.34 30.28 2.17v7.56c-10.64.46-31.69 2.22-40-3.24-6.31-34.8 36.76-20.2 33.53-51.91-3.32-3.54-12-1.72-18.39-2.17-4.12 2-2.44 9.81-7.56 10.82-14.29-20.76 21.16-24.9 33.51-16.23z"/><path d="M1850.14 1053.79c.24 18.78.64 43.75-7.57 57.32-11.88 1.26-27.25 4.2-33.52-3.24-3.42-18.32-3.38-43.31 3.24-59.49 15.38-1.63 28.44-4.54 37.85 5.41zm-30.28 2.16c-5.86 11.82-3.73 32.3-1.08 47.59 6.12-1.76 10.21-2.43 17.3-1.08 4.46-14.5 5.69-31.2 4.33-46.51-5.53-1.28-12.5.72-20.55 0zM1934.44 1058.12c-8.37 16.61 2.18 45.48-14.05 54.07-10.26-1.19-18.17 3.6-29.2-1.08-6.25-16.2-6.18-47.74 4.33-61.65 9.84-.91 21.23-1.56 28.11 0 5.07 1.47 5.56 7.46 10.81 8.66zm-20.54-1.09c-26.06-3.73-15.73 32.72-15.14 45.43 6.82 0 14.12.43 19.46-1.08 3.32-11.83 3.2-27.08 4.33-41.1-3.69 1.92-8.64 1.51-8.61-3.25h-.04zM1974.5 1111.11c-2.67-4.83-4.8-13.83 1.07-16.22 5 .05 7 3.07 6.49 8.65 3.15-1.77 14.56 2.7 17.3-2.16 1.43-1.85-.94-9.11 0-14.06-22.87 4.13-33.19-7.87-29.19-33.53 6-12.13 32.89-6.14 41.09 1.08-1.68 12.68-.23 37.56-1.08 48.67-2.81 11.61-26.67 12.04-35.68 7.57zm4.32-54.08a86.49 86.49 0 0 0 2.16 19.47c5.44 3.87 11.13-1.43 18.38 1.08 1.88-6 1.35-14.1 1.09-19.46-7.51.41-14.84-4.32-21.63-1.09z" fill-rule="nonzero"/><path d="M1626.31 1392.32c-9.67 6.92-24.35 8.82-36.77 13-37-4.87-74.08 2.06-107-3.25-4-16.24.12-46.4-2.16-64.89 27.05-5.3 51.68-1.45 78.93-5.41 4.52-42.62-3.45-83.35 2.17-125.46.15-86.86 2.62-183.93-2.17-284.45-13.11-4.67-32.71-6.17-48.66-6.49-63.95-1.28-131.14-.9-193.55 1.08-74.7-6-151.55 4.07-222.75-3.25-2.34-12.17 5.4-23.36 9.73-32.44 1-13.39 5.49-23.35 11.89-31.37 23-6.42 49.62-.28 76.77-1.08 66.85-2 144.91 3.41 211.94-2.16a600.94 600.94 0 0 0 83.27 0c1.74.3 1.86-1 3.24-1.09 45.76-.78 76.82.75 116.78 3.25 9.94 6.28 18.83 13.62 22.71 26-.36 6.69-1.14 14.29-1.08 18.39 3.66 31.18 2.88 64.22 1.08 96.25-5.19 92.33 5 182.34-3.24 278 1.77 41.46 3.66 83.29-1.13 125.37z"/><path d="M1458.7 941.3c-8.78 47.84 18.41 127.18-11.89 159-4.41 2.44-9.62 4.08-13 7.57-59.53 1.62-100.31 3.6-161.12 0 2.23 14.71 6.34 25.66 7.57 38.93 50.32.1 96.45 1.31 154.63 0 6.71 3.8 10.76 3.61 18.38 6.49 2.72 96.34 1.78 197.3 2.17 298.52 21.73-1.69 37.44 4 55.14 4.32 4.2 7.79 3 28.32 2.17 37.86 2.4 8.46 1.67 18.5 0 28.12-16.89 6.41-37.19 4.63-56.23 4.32-27.07-.43-51.63.35-82.18 1.09-14.93.36-33.84.9-45.42-7.57-2.88-18.64-4.21-42.67-2.16-62.74 16.35-4 40.72-3.5 58.39-6.48 2.58-34.06-7.05-78.92-1.08-110.32-3.36-37.48-2.87-89.69-6.49-130.88-54.84-6.58-110.33-.23-165.44-4.32.28-5.16-3.54-10.63-5.41-17.31-5.19-18.61-10.88-42.26-15.14-62.73-1.53-5.52-11.43-4-7.57-11.9-133.84 4.15-250-8-377.38-4.32-63.4-7.94-135.4 4.83-200-1.08-1.33 116.86-1 230.52-1.08 349.34 17.19 3.81 31.6 1.45 47.58 1.09 8 14.85.82 39.51 1.08 60.56-24.87 10.27-57.48 4.77-89.75 4.33-31.76-.43-65.1 7.33-89.75-1.08-8.13-20-12.07-44.42-1.09-63.81 16.68-4.24 40.8-1 57.32-5.41 3.08-104.56 2.73-213.44 2.16-318-.22-40.69-5.51-79.87 1.08-120.06-1.65-7.87.36-12.71-3.24-18.38 5.32-14.47 3.58-30.75 2.16-43.27 20.8-5 47.19-5.77 70.29-1.08-1.16 22.52 1.55 55.75 3.24 82.2 15.85 5.32 38.11.69 57.31 1.08 13.72.28 27.26 2.39 41.09 3.25 37.6 2.33 75.85-3.35 113.54-2.17 18.94.6 37.48-1.61 56.23-1.08 37.1 1.05 75.08-1.67 113.53 4.33 14-3.18 27-1.13 37.85-6.49 64.77 10.76 130.73-3.46 196.8 6.49a1110.8 1110.8 0 0 1 161.12-2.16c8.41-31.35-4.8-66.23 5.41-95.18 14.11-4.84 39.08-.49 56.23-3.25 3.69-.59 9-1.14 12.95 2.18z"/><path d="M1357.06 1333.91c2.85 18.77 2.29 47 0 62.74-28.18 9.74-58.32 4-87.59 4.32-83.42 1-177.21.94-262.76 2.17-30.73.43-67.34 1.78-96.24 0 1.17-26.12 11.68-46.47 22.71-67.06 42.37-6.65 84.16 5.18 126.51-3.25a108.22 108.22 0 0 1 23.79 3.25c79.78-2.52 161.74 2.73 246.54-1.08 8.73-.39 19.04-5.41 27.04-1.09zM1124.57 745.53c-34.15 90.58-69.45 180-102.72 271.47-21.66-2.61-53.09 2.72-72.45 0 30.55-98.15 75.59-181.8 107-279 21.83 1.74 39.52 2.49 61.63 1.08.41 3.97 4.65 4.03 6.54 6.45zM795.85 1333.91c7.06 26.09-13.74 42.3-18.38 63.82-41.27 9.71-102.43 4.26-148.14 5.41-2.21-19.33-6.59-51.69-1.09-68.14 45.61 1.52 100.64 1 143.82-2.17 5.87 2.88 17.09-2.63 23.79 1.08zM986.16 848.29c-5.3 21.21-17.8 43.08-28.11 62.73a3 3 0 0 0-3.25 2.16c-55.07 1.15-117.53 2.83-175.17 2.17-77.51-.9-153.24-1.29-229.24-3.25-39-1-78.19 1.79-122.19-1.08-1.06 49.74.45 100.31 1.08 150.34.49 38.92-2.16 77.38-2.16 115.73 0 47.21 4.78 93.9 0 134.11 1.4 6.78 3.31 15.51 1.08 22.71 24.72 1.42 49.51-2.87 72.45-1.08-.21 19.42 5.59 45.32 0 68.14-18.76 6.87-47.4 7.58-64.88 0-22.69 2.77-49.56.62-64.88-7.57-4.06-5.67-8.25-11.21-10.81-18.39-2.73-77.21-1-164.79-2.17-247.67-.93-64.58.81-131.65-2.16-194.69-.71-15 1.11-30.36 2.16-45.42 1-14.23-1.07-28.74 3.25-41.1 55.4-3 110.64-1 166.52-5.41 92.06 4.91 175 6.11 260.6 7.57 19.36.33 40.55-4.27 61.64-3.25 24.69 1.2 54.87 1.85 82.18 2.17 18.67.22 37.77-6.44 54.06 1.08zM973.19 1137.07c-6 22.43-17.07 39.89-23.79 61.65-4.37 24.11-20.83 68.86-22.71 72.47-33.82 84.78-60.92 176.28-96.24 259.57-3.51 22.74-15.68 36.53-20.54 55.16-15.14 6.5-26.59 16.67-43.26 21.63-6.17-15.09-14.88-27.66-18.38-45.42 13.21-35.1 29.24-67.38 41.09-103.83 14-34.29 25-71.61 41.09-103.83 5.22-26.87 12.43-51.74 22.71-73.55 3-12.2 7.14-25.09 10.81-37.86 3.48-12.1 27.16-86.76 42.17-107.07 22.96-1 49.49-6.46 67.05 1.08z"/><path d="M1455.44 655.77c9.08 23.87 6.31 56.65 5.4 84.36-.88 27.09 6.84 55.41-3.24 74.63-21.55 1.57-38.53 4-61.64 2.16-7.64-9-4.59-21.82-5.4-34.61-1.33-20.83-2.81-43.31-3.24-62.73-16.58-3.49-32.2-2.27-49.75-2.16-52.11.31-110-3.12-160 4.33-101.5 2.41-211.69-4.54-326.56-4.33-5.87 2.22-9 1.53-15.14 4.33-70.57-2-143 5.88-220.59 5.4.08 28.76-4.63 61-3.25 88.69-6.36 10-26.49 8.05-40 5.41-8.81 1.83-18.15 4.83-27 1.08-5.18-1.3-4.61-8.37-9.73-9.73 2.44-51.24-5.61-111.88 6.49-156.83 10-4.94 30.18-3.68 40-5.41 33.08 3.78 67.77 5.34 102.72 5.41 80.44.16 161.93-2.32 242.22 1.08 26.16 1.11 52.58 2 77.86 1.08 52-1.87 103.28 2.09 151.38-6.49 7.48 1.51 19.19-.38 28.11 2.17 35.64-4.58 73 2.84 106-5.41 52.26 5.43 118.88-3.45 165.36 7.57zM1261.9 535.71c-1.76 13-5 24.61-9.73 34.62-18 6.1-39.39-2.84-55.15-8.66-12.94 21.31-22.15 46.35-33.52 69.22-15.79 2.21-47.49 3.2-64.88-1.08 6.25-29 26.17-51 32.44-83.28-10.1-6.12-22.85-9.6-34.6-14.06-.2-4.85-2.67-7.43-5.41-9.73-1.3-21.49 11.44-28.94 16.22-44.35 46.92 8.54 89.53 29.93 136.25 42.18 4.84 6.34 11.92 10.4 18.38 15.14zM249.78 1172.76c3.08 3.56 0 15.5 1.08 23.8-29.38 4-61.94 1.52-94.07 1.08-50.91-.7-104.54-.25-149.23 1.08-3-9.33 1.94-19.56 3.25-28.12 18.72 5.79 185.44 3.64 197.88 3.24 14.82-.48 29.75-2.59 41.09-1.08z"/><path d="M266 1055.95c-1.73 19.48 2.51 39-4.32 54.08-10.14 4.56-27.87.34-37.85 1.08-4.64-16.27 2.5-43.76-2.16-61.65 18.11-1.68 35.06-4.27 44.33 6.49zm-8.65 8.65c-1.42-11.1-15.72-6.65-24.87-7.57-.59 15.34-.88 27.31-1.08 43.27 5.57 3.32 14.16 1.09 22.71 3.24-.67-9.23 2.33-25.12 3.24-38.94z" fill-rule="nonzero"/><path d="M190.31 1048.38c-.54 8.48-8.64 6.07-16.22 5.41-7.08 16.87-2.81 39.43-6.49 58.4-3.42 1.49-3.61.24-7.57 0-1.64-21.46-3-36-1.08-55.16-4.6-3.21-11.35 2.16-16.22-1.08-2-4.74 2.65-8.72 5.41-11.9 13.59 4.39 31.87-3.52 42.17 4.33zM108.13 1063.53c-4.84.15-4.16-5.22-5.41-8.65-7.87.05-16.81-1-20.54 3.25-.38 6.5-.14 12.39 3.24 15.14 25.33-5.28 29.4 12.77 28.11 33.52-10.2 14.93-53.77 11.49-37.84-15.14 6.61-.67 7.68 6.92 5.41 11.9 6.2 2.83 14.33 3.75 20.54 1.08-.12-8.22 2.14-14.21 0-21.63-18.93 1.21-32.14-5.46-28.11-30.28 5.66-9.45 17.57-6.11 32.43-6.49 5 4.46 10.01 13.71 2.17 17.3zM37.84 1047.3c-1.16 10-19.89 2.45-25.95 7.57 0 6.52.34 13.31-1.08 18.39 5.91 3.63 15.44-2.16 19.46 2.16.43 12.4-8.44 10.23-18.38 10.82-2.07 2.61-.68 8.69-1.08 13 7 6.15 23.94-4.43 23.79 8.66-3 10.41-20.3 1.09-30.28 5.4-9.29-13.13-.26-45.61-3.24-67 10.48-4 29.03-5.85 36.76 1z"/><path d="M1960.44 693.62c2.3 24 17.54 54.74 3.25 75.71-33.61 6-76.61 29.59-110.3 11.9-8.54-17.77-10.86-41.77-18.38-60.57 24.77-9.14 52.21-14.69 80-20.55 14.32-3.01 28.65-9.82 45.43-6.49zm-100.57 37.91c2.35 13.16 4.43 26.58 7.57 38.94 27.23-1.67 59.58-7.43 82.18-17.31-1.95-13.91-.22-31.5-7.57-40-29.1 4.37-54.49 12.49-82.18 18.37z" fill-rule="nonzero"/><path d="M1883.66 518.41c-3.22 0-3.67 2.81-6.49 3.25-13.58-6.25-13.35-26.31-23.79-35.7-15.18 2.11-24 10.56-36.76 15.15 4.67 10.86 27.35 29.72 7.57 38.93-11.46-5.84-14.05-20.57-22.71-29.2-12.94 4.72-21.11 14.21-33.52 19.47 6.59 15 14.07 29.19 23.79 41.1-.78 7.87-8 9.28-15.14 10.81-10.49-20.15-22.88-38.4-32.44-59.48 34.71-19.72 69.12-39.75 107.05-56.24-.32-2.85 1.5-3.56 4.33-3.25 6.37 7 11.83 14.84 15.14 24.88 7.75 8.92 15.65 16.21 12.97 30.28zM1740.92 309.67c-1.64 7.72-6.42 12.32-14.05 14.06-6.26-3.48-10-9.49-15.14-14.06-23.71 24.59-49.81 46.79-73.53 71.38-5.31-3-11.19-5.39-14.06-10.82 8.63-16.6 25.7-24.77 35.69-40 14.66-10.57 23.28-27.19 37.84-37.86-5.25-7.36-12.91-12.32-17.3-20.55 1.11-6.46 5.83-9.32 9.73-13 19.85 14.05 35.34 32.41 50.82 50.85zM1546.29 148.53c.33 9-4.25 13.06-9.73 16.22-14.87-5.68-24.73-16.36-40-21.63-8.61 6.54-11.06 19.23-16.22 29.21 9.74 6.48 21.07 11.37 29.19 19.47-.17 7.39-4.19 10.94-7.56 15.14-13.72-2.15-20.83-10.9-32.44-15.14-13.91 9.52-14.22 32.64-27 43.26-8.92.27-10.06-7.24-18.38-7.57 18.81-37.07 43.34-68.41 60.55-107.08 1.68-1.56 5.05-1.44 6.49-3.24 19.16 9.61 35.09 22.51 55.1 31.36z"/><path d="M1283.53 40.35c14.68 33-.13 90.53 6.49 128.71-16.15 5.48-26.11-8.47-20.55-24.88-14.22-2.63-23.4-11.39-37.84-10.81-6.68 3.06-8.8 10.67-11.9 17.31-7.53-.82-13.69 1.6-16.22-5.41 15.65-28 32.13-55.11 45.41-85.45 9.56-2.33 8-15.75 16.23-19.47 6.17-1.82 9.96 2.02 18.38 0zm-42.17 72.47c6.72 4.08 11.29 10.33 23.79 8.65.16-19.66 6.56-38.85 4.32-57.32-7.88 17.72-19.66 31.53-28.11 48.67zM1040.23 80.37c5.58 16.41 11.42 32.56 17.3 48.67-3.85 3.82-12.17 1.23-17.3 0-6.57-13.25-10.74-28.92-17.3-42.18-9.68 1.6-20-2.22-32.44-1.08-.39 11.23 2.08 27.79-2.17 40-5.56 3.71-10.47.59-15.13-2.17-3-38.79.53-74.54 0-121.13 28.62-4.25 68.43-5.44 77.85 16.22 3 19.41-1.06 36.21 1.08 49.75-2.5 5.46-6.08 9.8-11.89 11.92zM991.57 19.8c-.16 16.43-1.78 31.4-1.08 48.67 12.72 2.62 28.45 4.3 41.09 0 4.9-14.33 5.61-34.9-2.16-46.5-10.2-4.07-26.8-4.91-37.85-2.17z" fill-rule="nonzero"/><path d="M799.09 58.74c-4.76 2.81-13.09 2.05-18.38 4.33-5.32-3.72-2.18-10.57-7.57-15.15-13.93.61-20.19 2.19-32.44 4.33-5.54 30.42 1.78 73.16 18.39 91.93 13.72-1.42 27.32-3 36.76-8.65-.58-5.91-1.58-11.39-2.16-17.3 3.75-3.33 13.27-5.88 19.46-3.25-.31 9 2.07 21.5-2.16 31.37-14.42 11.85-45.89 22.46-69.21 11.89-17-31.4-28.24-71.77-21.62-113.56 11.09-13.43 40.61-8.4 57.31-16.22 11.69 5.49 21.45 16.63 21.62 30.28z"/><path d="M536.33 256.67c-3.52-1.17-5.62-3.75-9.73-4.33-15.92-36.71-37.3-68-56.23-101.66-.14-2 1.33-2.29 1.08-4.33 8.36-6.23 18.9-15.37 30.28-20.55 11.38-5.18 23.18-9 40-6.49 24.86 20.56 35.14 55.71 50.82 85.44.07 5.48-1.86 9-1.08 15.15-13.3 17.32-33.5 27.76-55.14 36.77zM493.08 155c13 29.57 30.34 54.73 46.5 81.12 10.21-8.89 28.33-9.88 33.52-23.8-6.35-20-13.3-39.34-26-53-2.62-9.653-7.307-17.223-14.06-22.71-18.99.42-27.41 11.48-39.96 18.39z" fill-rule="nonzero"/><path d="M320.07 256.67c21.54 31.45 49.59 56.39 76.77 82.2-.62 1.9 1.31 6.35-1.08 6.49 1.58 2 5.93 1.27 5.41 5.41-.18 7.39-6.17 9-9.73 13-30.47-9.2-65.29-23.38-96.24-35.69 5.24 10.97 20.35 21.45 29.24 32.45 10.33 10.94 20.57 22 31.36 32.45-1.58 6.35-6.3 9.56-13 10.81-31.11-26.92-62.07-54-87.58-86.52 5.61-7.73 10.31-16.36 19.46-20.55 26 14.73 57.63 23.84 85.43 36.77-12.53-19.2-36.25-36.57-50.83-57.32-2.54-1.79-8.31-.34-8.65-4.33 4.48-7.06 7.1-15.98 19.44-15.17z"/><path d="M249.78 520.53c.08 7.29-4.43 10-6.49 15.14a73.64 73.64 0 0 0-19.46-4.32c-11.26 10-18.13 24.41-27 36.77 3.78 6.68 11.88 9 15.13 16.22-.66 6.19-4 9.72-7.57 13-35.22-23.89-59.68-58.55-88.66-88.68v-6.49c1.47-7.54 7.88-10.15 14.06-13 35.54 11.84 84.38 16.36 119.99 31.36zm-67 30.29c5-7.35 13.54-16.62 14.06-24.88-15.63-6.72-35.17-9.53-51.91-15.14 11.77 13.49 23.51 32.73 37.81 40.06l.04-.04z" fill-rule="nonzero"/><path d="M144.89 736.89c3.61 7 3.12 11.62-1.08 16.22a295.69 295.69 0 0 0-48.66-6.49c-7 11.62-5.83 22.83-9.73 34.61 12.2 8.7 35.1 6.72 47.58 15.14.46 5.51-.48 9.62-3.24 11.9-33.85-1.45-78.55-14.39-116.79-21.63-1.53-6.11-2.84-12.11-1.08-19.47 22.25-3.5 34.81 11.07 57.31 10.82 3.76-7.18 4.22-23.78 6.49-35.69-14.28-5.91-32.23-8.14-47.58-13-1.61-5.73-4.09-15.74 0-18.39 36.05 7.23 73.54 22.36 116.78 25.98z"/></g></svg>