<?xml version="1.0" standalone="no"?>
<!DOCTYPE svg PUBLIC "-//W3C//DTD SVG 20010904//EN"
 "http://www.w3.org/TR/2001/REC-SVG-20010904/DTD/svg10.dtd">
<svg version="1.0" xmlns="http://www.w3.org/2000/svg"
 width="1360.000000pt" height="1360.000000pt" viewBox="0 0 1360.000000 1360.000000"
 preserveAspectRatio="xMidYMid meet">
<metadata>
Created by potrace 1.11, written by Peter Selinger 2001-2013
</metadata>
<g transform="translate(0.000000,1360.000000) scale(0.100000,-0.100000)"
fill="#000000" stroke="none">
<path d="M6345 11602 c-3 -4 -42 -7 -190 -17 -27 -1 -50 -4 -50 -5 0 -1 -16
-3 -35 -5 -43 -3 -126 -14 -163 -20 -15 -3 -55 -10 -90 -15 -140 -24 -226 -44
-507 -115 -148 -38 -473 -157 -668 -246 -238 -108 -619 -324 -772 -439 -19
-15 -66 -49 -104 -76 -37 -27 -77 -57 -87 -66 -10 -10 -22 -18 -25 -18 -4 0
-14 -8 -23 -18 -9 -10 -31 -28 -49 -41 -19 -13 -43 -33 -55 -45 -12 -11 -49
-43 -82 -71 -73 -61 -394 -382 -450 -450 -22 -26 -45 -53 -50 -59 -6 -6 -38
-45 -70 -86 -33 -41 -70 -86 -82 -100 -13 -14 -23 -28 -23 -32 0 -4 -10 -16
-22 -28 -12 -11 -19 -20 -15 -20 4 0 -3 -11 -15 -26 -13 -14 -48 -64 -80 -112
-32 -48 -62 -92 -67 -98 -4 -5 -14 -21 -21 -35 -7 -13 -16 -26 -19 -29 -3 -3
-17 -25 -30 -50 -13 -25 -33 -56 -43 -69 -10 -13 -18 -30 -18 -37 0 -8 -3 -14
-7 -14 -5 0 -13 -10 -19 -23 -61 -123 -119 -233 -127 -238 -5 -3 -8 -8 -7 -10
2 -6 -14 -46 -55 -134 -50 -107 -125 -294 -125 -311 0 -8 -4 -14 -10 -14 -5 0
-9 -3 -8 -7 2 -5 -18 -73 -44 -153 -50 -155 -84 -270 -92 -310 -3 -14 -17 -74
-31 -135 -13 -60 -29 -137 -35 -170 -5 -33 -12 -71 -15 -85 -9 -49 -24 -156
-31 -210 -3 -30 -7 -66 -9 -80 -2 -14 -7 -68 -11 -120 -4 -52 -8 -113 -10
-135 -5 -58 -4 -429 0 -500 14 -212 18 -257 27 -320 5 -38 12 -90 15 -115 5
-47 7 -61 19 -120 3 -19 7 -46 9 -60 2 -14 6 -36 9 -50 4 -14 9 -42 12 -64 3
-21 8 -43 11 -48 3 -5 7 -19 9 -31 5 -35 25 -124 45 -197 7 -25 11 -45 10 -45
-1 0 5 -18 14 -40 10 -22 17 -42 17 -45 -1 -29 124 -389 164 -475 7 -16 12
-31 10 -33 -8 -8 -165 -7 -165 1 0 4 -5 5 -12 1 -17 -11 -181 -11 -196 -1 -6
5 -12 6 -12 1 0 -5 -37 -8 -82 -7 -95 3 -98 3 -135 2 -16 0 -41 0 -58 0 -16 0
-106 0 -200 1 -93 0 -174 0 -180 0 -5 0 -34 -1 -63 -2 -30 -2 -56 1 -59 5 -3
4 -10 4 -16 -1 -7 -4 -48 -7 -92 -5 -44 1 -86 3 -92 3 -38 0 -50 0 -73 -1 -22
-1 -198 0 -240 1 -8 0 -39 -1 -68 -2 -30 -2 -56 1 -59 5 -3 4 -10 4 -16 -1 -7
-4 -48 -7 -92 -5 -44 1 -87 3 -95 3 -79 -1 -96 -2 -110 -10 -12 -7 -16 -17
-12 -37 3 -15 8 -30 13 -33 4 -3 490 -5 1081 -4 l1073 0 81 -165 c69 -141 107
-212 225 -410 8 -14 22 -34 32 -45 9 -11 17 -26 17 -33 0 -7 5 -13 10 -13 6 0
10 -5 10 -11 0 -23 275 -393 385 -518 178 -202 405 -423 575 -561 24 -19 48
-39 54 -45 6 -5 29 -23 51 -39 22 -17 42 -33 45 -36 13 -15 190 -140 199 -140
5 0 11 -4 13 -8 4 -11 206 -142 218 -142 6 0 10 -4 10 -9 0 -5 8 -11 18 -14 9
-4 40 -20 67 -37 28 -17 57 -33 65 -37 8 -3 23 -13 33 -21 9 -8 17 -12 17 -9
0 4 21 -6 48 -21 67 -40 391 -192 407 -192 3 0 24 -9 48 -19 112 -51 514 -181
607 -197 14 -3 36 -9 50 -14 14 -5 39 -11 55 -14 42 -7 84 -16 125 -26 19 -4
58 -12 85 -16 28 -4 55 -8 60 -10 22 -5 73 -13 125 -19 57 -7 83 -10 136 -19
18 -3 72 -8 120 -11 49 -4 105 -8 124 -11 55 -6 547 -6 620 0 36 3 98 9 139
12 41 3 84 8 95 10 12 2 44 6 71 9 95 11 127 15 148 20 30 7 76 15 112 20 64
10 91 15 123 24 17 5 32 8 32 6 0 -2 18 2 40 10 22 8 40 13 40 11 0 -3 129 29
195 48 6 1 30 8 55 15 160 45 461 156 635 236 136 62 310 150 313 158 2 4 7 7
12 7 11 0 210 117 315 185 116 75 287 198 360 256 257 209 463 406 648 619 50
58 94 107 97 110 11 11 79 100 167 220 116 158 128 174 128 180 0 3 24 40 53
83 29 43 52 80 52 81 0 2 24 43 53 92 29 49 61 107 72 129 11 22 22 42 25 45
6 6 100 199 120 246 l13 30 1233 0 c1225 -1 1233 -1 1236 19 7 38 -5 60 -37
63 -31 2 -34 3 -82 1 -16 -1 -39 0 -53 0 -14 1 -89 0 -168 -1 -78 -2 -142 1
-142 5 0 5 -5 5 -12 1 -17 -11 -148 -11 -148 0 0 5 -5 5 -12 0 -7 -5 -56 -8
-108 -7 -52 1 -102 3 -110 3 -8 0 -39 -1 -68 -2 -30 -2 -56 1 -59 5 -3 4 -10
4 -16 -1 -7 -4 -48 -7 -92 -5 -44 1 -86 3 -92 3 -38 0 -50 0 -73 -1 -22 -1
-198 0 -240 1 -8 0 -39 -1 -68 -2 -30 -2 -56 1 -59 5 -3 4 -10 4 -16 -1 -7 -4
-48 -7 -92 -5 -80 3 -92 3 -120 3 -8 0 -21 0 -27 0 -7 0 -60 -1 -118 -3 -58
-2 -111 1 -117 6 -7 5 -13 6 -13 1 0 -5 -37 -8 -82 -7 -46 2 -90 3 -98 3 -71
-1 -103 0 -105 2 -2 2 17 52 41 112 97 243 235 719 249 864 3 24 7 47 10 52 2
4 7 22 9 41 3 19 8 50 11 69 3 19 8 53 10 75 10 90 15 132 20 165 34 210 33
730 -1 1020 -3 30 -7 69 -9 85 -13 146 -70 438 -121 630 -9 33 -18 67 -19 75
-2 8 -4 17 -6 20 -1 3 -3 10 -4 15 -1 6 -12 44 -25 85 -14 41 -25 77 -25 80
-1 3 -4 12 -8 20 -3 8 -20 58 -38 110 -18 52 -40 112 -51 132 -10 21 -18 42
-18 48 0 5 -9 32 -21 58 -12 26 -27 61 -34 77 -90 202 -246 495 -342 640 -22
33 -57 87 -79 120 -21 33 -61 89 -87 125 -27 36 -58 78 -70 95 -23 31 -187
232 -234 287 -50 59 -367 372 -428 423 -32 28 -77 66 -100 86 -22 20 -98 80
-170 133 -71 54 -138 104 -148 112 -9 8 -21 14 -26 14 -5 0 -11 3 -13 8 -4 10
-145 101 -293 189 -94 56 -414 223 -428 223 -3 0 -38 15 -79 34 -110 52 -382
155 -410 156 -4 0 -28 9 -53 20 -25 11 -45 17 -45 15 0 -3 -12 0 -27 6 -28 11
-61 21 -208 59 -92 23 -236 56 -280 64 -16 3 -59 10 -95 16 -36 5 -76 12 -90
14 -14 3 -25 5 -25 6 0 1 -61 9 -130 15 -27 3 -68 7 -90 10 -22 3 -74 8 -115
11 -89 7 -659 12 -665 6z m645 -86 c130 -11 164 -14 215 -21 121 -15 172 -23
235 -35 25 -5 61 -12 80 -15 55 -8 92 -15 135 -27 22 -5 49 -12 60 -14 25 -4
88 -19 140 -34 22 -6 49 -13 61 -15 11 -3 72 -21 135 -41 63 -20 124 -38 137
-41 12 -3 25 -9 28 -14 3 -5 12 -9 21 -9 8 0 74 -23 147 -51 195 -76 514 -234
706 -348 92 -56 230 -147 230 -153 0 -4 4 -8 10 -8 16 0 242 -167 350 -258
203 -173 379 -345 550 -537 106 -119 320 -401 380 -500 13 -22 29 -43 34 -47
7 -5 7 -8 1 -8 -6 0 -6 -3 1 -8 11 -7 124 -188 124 -198 0 -3 8 -18 19 -32 21
-30 167 -318 200 -397 12 -27 29 -63 38 -80 10 -16 16 -30 14 -30 -1 0 3 -13
10 -30 7 -16 13 -34 15 -40 1 -5 18 -50 37 -100 82 -216 186 -585 211 -750 7
-45 12 -78 26 -150 5 -27 12 -72 15 -100 3 -27 8 -63 10 -80 23 -152 30 -294
30 -590 0 -154 -4 -320 -8 -370 -9 -103 -45 -382 -52 -405 -3 -8 -7 -31 -10
-50 -6 -44 -14 -88 -21 -120 -3 -14 -8 -34 -10 -45 -6 -30 -12 -57 -19 -85 -3
-14 -8 -36 -11 -50 -3 -14 -10 -41 -15 -60 -16 -53 -29 -102 -35 -128 -5 -23
-49 -162 -61 -192 -3 -8 -7 -19 -9 -25 -18 -70 -125 -334 -137 -342 -16 -10
-197 -10 -197 0 0 5 -5 5 -12 1 -16 -10 -148 -11 -148 -1 0 5 -5 5 -12 1 -17
-11 -181 -11 -195 -1 -7 5 -13 6 -13 1 0 -8 -30 -8 -175 -4 -5 0 -33 -1 -62
-2 -28 -2 -49 1 -46 6 4 5 0 6 -8 1 -17 -11 -289 -13 -289 -2 0 5 -5 5 -12 1
-16 -10 -148 -11 -148 -1 0 5 -5 5 -12 1 -17 -11 -181 -11 -195 -1 -7 5 -13 6
-13 1 0 -8 -30 -8 -175 -4 -5 0 -33 -1 -62 -2 -28 -2 -49 0 -46 4 2 5 -6 4
-19 0 -18 -6 -160 -7 -353 -2 -5 0 -34 -1 -63 -2 -30 -2 -56 1 -59 5 -3 4 -10
4 -16 -1 -7 -4 -48 -7 -92 -5 -44 1 -86 3 -92 3 -38 0 -50 0 -73 -1 -22 -1
-198 0 -240 1 -8 0 -39 -1 -68 -2 -30 -2 -56 1 -59 5 -3 4 -10 4 -16 -1 -7 -4
-48 -7 -92 -5 -80 3 -92 3 -120 3 -8 0 -21 0 -27 0 -7 1 -52 -1 -100 -3 -49
-1 -88 1 -88 6 0 4 -5 5 -12 1 -16 -10 -148 -11 -148 -1 0 5 -5 5 -12 1 -17
-11 -181 -11 -195 -1 -7 5 -13 6 -13 1 0 -8 -30 -8 -175 -4 -5 0 -33 -1 -62
-2 -28 -2 -49 1 -46 6 4 5 0 6 -8 1 -17 -11 -289 -13 -289 -2 0 5 -5 5 -12 1
-16 -10 -148 -11 -148 -1 0 5 -5 5 -12 1 -16 -10 -148 -11 -148 -1 0 5 -5 5
-12 1 -16 -10 -148 -11 -148 -1 0 5 -5 5 -12 1 -17 -11 -181 -11 -195 -1 -7 5
-13 6 -13 1 0 -8 -30 -8 -175 -4 -5 0 -33 -1 -62 -2 -28 -2 -49 1 -46 6 4 5 0
6 -8 1 -17 -11 -289 -13 -289 -2 0 5 -5 5 -12 1 -17 -11 -148 -11 -148 0 0 5
-5 5 -12 0 -7 -5 -56 -8 -108 -7 -52 1 -102 3 -110 3 -8 0 -39 -1 -68 -2 -30
-2 -56 1 -59 5 -3 4 -10 4 -16 -1 -7 -4 -48 -7 -92 -5 -44 1 -86 3 -92 3 -38
0 -50 0 -73 -1 -22 -1 -198 0 -240 1 -8 0 -39 -1 -68 -2 -30 -2 -56 1 -59 5
-3 4 -10 4 -16 -1 -7 -4 -48 -7 -92 -5 -44 1 -84 3 -90 3 -5 0 -34 -1 -63 -2
-28 -2 -52 1 -52 5 0 4 -8 4 -17 -1 -22 -10 -143 -9 -161 1 -6 5 -12 5 -12 0
0 -7 -30 -7 -175 -3 -5 0 -33 -1 -62 -2 -28 -2 -49 1 -46 6 4 5 0 6 -8 1 -17
-11 -289 -13 -289 -2 0 5 -5 5 -12 1 -16 -10 -148 -11 -148 -1 0 5 -5 5 -12 1
-17 -11 -181 -11 -195 -1 -7 5 -13 6 -13 1 0 -8 -30 -8 -175 -4 -5 0 -33 -1
-62 -2 -28 -2 -49 0 -46 4 2 5 -6 4 -19 0 -31 -11 -166 -8 -178 4 -19 19 -179
450 -195 524 -4 17 -28 106 -45 164 -11 37 -14 50 -25 99 -12 58 -16 74 -20
95 -2 13 -6 31 -9 40 -10 32 -19 87 -20 119 -1 18 -4 33 -8 33 -3 0 -5 8 -3
18 1 9 -1 27 -6 39 -5 12 -11 46 -13 75 -3 29 -8 71 -11 93 -23 181 -29 290
-29 570 0 247 7 441 19 505 2 14 7 48 10 75 9 90 14 130 21 165 3 19 8 46 10
60 2 14 6 36 8 50 3 13 8 42 11 65 3 22 8 48 11 57 3 9 7 25 9 35 2 10 11 50
20 88 9 39 19 80 21 93 3 13 11 42 18 65 7 23 19 62 26 87 7 25 31 101 53 170
23 69 40 128 39 133 -1 4 3 7 8 7 5 0 9 3 8 8 -3 7 28 91 58 159 8 17 14 33
14 36 0 5 24 57 98 217 17 37 125 240 160 301 11 20 26 47 33 60 56 99 305
462 354 515 5 6 22 26 37 45 14 19 35 44 45 55 10 12 38 46 63 75 112 132 435
459 455 459 2 0 23 18 47 41 45 43 287 231 373 290 28 19 52 36 55 39 21 22
403 250 418 250 5 0 15 7 22 15 6 8 15 14 18 13 4 -1 61 25 127 58 66 32 149
72 185 87 36 16 74 33 85 38 94 42 460 167 574 195 9 2 43 10 76 19 33 8 74
17 90 20 17 3 46 10 65 15 43 11 82 19 135 26 22 3 56 9 75 14 19 5 58 11 85
14 28 4 61 8 75 11 67 11 181 23 289 29 46 3 85 7 87 9 6 6 535 0 614 -7z
m3974 -6740 c-7 -24 -151 -304 -182 -356 -12 -19 -25 -42 -29 -50 -3 -8 -18
-33 -31 -55 -14 -22 -24 -42 -23 -44 2 -2 -1 -7 -6 -10 -5 -3 -31 -40 -57 -81
-109 -170 -270 -384 -415 -550 -89 -101 -349 -361 -441 -441 -41 -35 -80 -68
-86 -74 -37 -33 -65 -55 -69 -55 -3 0 -16 -9 -28 -21 -45 -42 -358 -269 -371
-269 -2 0 -37 -23 -79 -50 -42 -28 -78 -50 -82 -50 -3 0 -23 -11 -45 -25 -86
-54 -387 -208 -407 -208 -7 0 -13 -4 -13 -8 0 -3 -8 -9 -17 -12 -10 -3 -74
-28 -143 -57 -166 -68 -370 -140 -407 -142 -7 -1 -13 -6 -13 -11 0 -6 -3 -8
-6 -4 -3 3 -27 -1 -52 -9 -26 -8 -58 -17 -71 -20 -14 -3 -28 -7 -33 -10 -5 -3
-20 -7 -34 -10 -14 -3 -82 -18 -152 -34 -70 -16 -143 -31 -162 -34 -19 -3 -44
-7 -55 -9 -50 -10 -93 -17 -132 -22 -64 -8 -113 -14 -163 -20 -183 -25 -602
-35 -801 -20 -52 4 -114 8 -139 10 -43 3 -104 10 -178 20 -96 13 -120 16 -157
21 -22 4 -49 8 -60 11 -11 2 -31 6 -45 8 -40 7 -81 15 -140 27 -30 6 -59 12
-65 14 -5 1 -56 14 -112 29 -56 15 -110 28 -120 30 -10 2 -19 4 -20 5 -2 2 -7
3 -12 4 -5 0 -13 4 -17 9 -4 4 -15 7 -25 7 -41 0 -414 138 -594 220 -110 50
-291 143 -387 198 -21 12 -55 32 -75 43 -48 27 -256 160 -263 168 -3 3 -12 11
-21 16 -35 21 -118 82 -204 149 -49 39 -95 75 -101 80 -7 4 -25 20 -41 35 -17
14 -57 48 -89 76 -79 67 -343 331 -430 430 -86 98 -218 263 -265 330 -18 28
-37 52 -40 55 -12 9 -196 294 -229 354 -17 32 -44 80 -60 106 -48 82 -160 311
-156 319 3 4 1951 7 4330 7 l4326 0 -6 -20z"/>
<path d="M8009 6326 c-2 -2 -18 -6 -36 -9 -145 -23 -274 -133 -300 -255 -16
-75 1 -184 36 -242 30 -48 95 -99 170 -136 89 -42 136 -62 166 -70 69 -17 162
-79 198 -132 59 -84 52 -209 -16 -276 -32 -32 -106 -57 -171 -58 -146 -2 -269
104 -336 290 -16 43 -30 67 -44 72 -47 17 -48 10 -42 -196 2 -107 8 -199 11
-204 13 -21 54 -10 74 19 l21 29 58 -23 c69 -28 92 -37 112 -41 195 -44 358 7
466 145 101 129 87 321 -31 430 -43 40 -176 109 -290 152 -65 24 -126 59 -163
93 -52 47 -79 155 -52 205 6 12 8 21 5 21 -4 0 3 14 15 30 47 66 152 94 243
64 89 -29 157 -117 202 -259 20 -66 23 -70 54 -73 l32 -3 -4 183 c-3 101 -8
191 -12 200 -9 22 -43 15 -72 -17 l-24 -25 -49 25 c-27 14 -57 26 -67 28 -10
1 -24 6 -31 11 -7 4 -33 9 -56 11 -24 1 -48 5 -53 8 -6 4 -12 5 -14 3z"/>
<path d="M3807 6303 c-2 -1 -19 -4 -38 -6 -35 -4 -47 -7 -113 -35 -54 -22
-132 -102 -158 -159 -40 -87 -30 -222 21 -303 41 -65 157 -137 306 -190 145
-52 218 -110 250 -200 36 -101 -14 -219 -108 -254 -164 -62 -321 14 -413 200
-19 39 -36 77 -38 85 -8 49 -18 60 -49 57 l-32 -3 2 -95 c1 -52 3 -142 5 -200
l4 -105 29 -3 c25 -2 34 3 48 27 l18 31 37 -19 c120 -60 289 -85 375 -55 20 7
40 13 43 13 13 -2 112 53 136 75 117 110 149 297 72 428 -15 25 -62 78 -70 78
-4 0 -15 6 -23 14 -28 24 -103 61 -211 105 -169 69 -211 98 -249 177 -22 45
-21 125 2 171 60 116 246 125 351 17 35 -36 92 -138 100 -179 15 -78 33 -99
72 -89 17 4 19 13 17 77 -11 316 -11 317 -43 317 -19 0 -45 -21 -52 -42 -4
-10 -14 -9 -46 1 -23 8 -42 17 -42 21 0 3 -24 12 -52 19 -29 8 -57 16 -62 19
-9 5 -85 10 -89 5z"/>
<path d="M6604 6293 c-8 -8 -12 -19 -9 -24 4 -5 1 -9 -4 -9 -6 0 -10 -3 -9 -7
4 -12 -44 -137 -55 -144 -5 -3 -8 -10 -8 -15 1 -9 -71 -195 -95 -248 -8 -16
-14 -33 -14 -39 0 -5 -7 -23 -15 -40 -13 -30 -123 -308 -166 -423 -35 -93 -98
-155 -171 -169 -37 -7 -53 -31 -38 -55 10 -16 416 -18 432 -2 24 24 3 46 -57
62 -83 22 -105 36 -105 66 0 35 69 247 85 259 10 9 344 13 412 6 6 0 19 -22
28 -48 10 -27 32 -87 51 -134 46 -121 41 -133 -76 -155 -45 -8 -58 -25 -41
-53 12 -19 479 -20 491 -1 16 26 2 42 -55 65 -32 14 -69 37 -81 52 -12 15 -64
134 -115 263 -50 129 -100 254 -110 277 -11 23 -19 48 -19 55 0 8 -4 18 -8 24
-5 5 -17 32 -26 59 -10 28 -22 59 -26 70 -5 11 -33 81 -61 155 -29 74 -57 142
-63 150 -14 20 -53 21 -72 3z m-10 -265 c2 -14 40 -116 61 -163 7 -16 27 -66
44 -110 17 -44 36 -93 42 -110 21 -53 20 -55 -29 -56 -90 -1 -306 1 -307 4 -1
1 36 97 82 212 73 182 88 223 92 244 2 8 13 -7 15 -21z"/>
<path d="M9235 6295 c-224 -51 -336 -271 -239 -467 20 -41 84 -118 98 -118 3
0 27 -13 53 -28 26 -15 89 -43 138 -62 101 -37 189 -82 222 -112 32 -30 64
-103 65 -152 2 -134 -67 -209 -203 -219 -152 -12 -285 93 -354 278 -13 35 -21
65 -18 68 8 9 -44 20 -61 14 -11 -5 -13 -27 -10 -114 2 -59 4 -148 5 -196 2
-80 4 -90 23 -97 16 -6 27 -2 49 21 32 33 39 34 75 15 179 -96 413 -77 545 43
36 33 85 105 91 134 19 95 22 119 19 153 -15 152 -94 233 -308 319 -38 15 -94
38 -123 51 -29 13 -54 22 -55 21 -1 -1 -16 10 -32 26 -16 15 -32 27 -36 27 -3
0 -15 18 -28 40 -12 22 -19 40 -15 40 3 0 2 6 -3 13 -17 21 -13 87 8 133 55
122 236 140 344 35 42 -40 94 -142 117 -223 12 -45 17 -50 53 -50 8 0 19 0 23
1 9 1 7 89 -2 98 -3 3 -1 12 5 20 6 7 7 13 3 13 -5 0 -9 44 -9 98 1 134 -4
157 -35 156 -38 -2 -40 -3 -40 -18 0 -19 -34 -29 -57 -17 -107 57 -217 77
-308 56z"/>
<path d="M5528 6295 c-3 -4 -196 -7 -427 -7 l-421 0 -1 -41 c-2 -183 0 -257 5
-266 4 -6 18 -11 32 -11 19 0 28 8 40 35 8 19 15 38 15 42 3 22 87 126 116
144 40 25 195 36 211 16 6 -7 9 -206 8 -494 l-1 -482 -24 -20 c-13 -12 -27
-21 -30 -22 -3 0 -17 -2 -31 -5 -14 -2 -38 -6 -55 -9 -33 -4 -56 -30 -48 -51
3 -10 23 -14 62 -15 61 0 458 0 479 1 6 0 12 13 12 28 0 27 -4 30 -57 42 -82
18 -111 35 -120 71 -5 16 -8 234 -8 484 0 356 3 457 13 467 8 8 39 13 85 13
117 -1 175 -47 243 -189 25 -53 29 -57 57 -54 l30 3 1 144 c1 86 -3 150 -9
158 -8 11 -30 14 -88 11 -42 -1 -78 1 -80 5 -1 5 -5 5 -9 2z"/>
<path d="M6026 4408 c-28 -40 22 -81 54 -43 17 20 9 46 -17 56 -17 6 -26 3
-37 -13z"/>
<path d="M5883 4404 c-8 -22 10 -49 32 -49 10 0 22 7 28 16 15 24 1 49 -28 49
-15 0 -28 -7 -32 -16z"/>
<path d="M5240 4290 c-213 -37 -246 -364 -44 -442 71 -27 217 -5 231 35 4 12
6 25 5 30 -1 4 2 7 8 7 6 0 6 9 1 23 -10 27 7 72 27 72 7 0 12 3 12 8 0 4 0
10 0 15 0 4 -36 7 -80 7 -44 0 -80 -4 -80 -9 0 -5 -7 -2 -17 5 -15 13 -15 12
-5 -6 5 -11 20 -21 33 -22 28 -2 37 -11 43 -47 7 -39 -20 -95 -49 -102 -145
-36 -242 169 -158 336 20 42 54 62 107 65 37 1 50 -3 75 -26 17 -15 38 -46 47
-69 19 -46 40 -48 38 -4 -1 16 -2 45 -3 65 -1 33 -4 37 -33 43 -37 7 -63 14
-63 16 0 5 -64 5 -95 0z"/>
<path d="M5983 4293 c-6 -2 -28 -48 -48 -101 -20 -53 -40 -106 -45 -117 -4
-11 -21 -51 -37 -90 -37 -91 -46 -106 -67 -109 -9 -1 -16 -5 -16 -9 0 -4 0
-10 0 -14 0 -6 88 -8 143 -4 18 2 4 20 -23 30 -17 5 -30 17 -30 26 0 20 29 85
39 86 3 0 15 3 26 5 83 18 138 -10 150 -78 7 -38 0 -45 -37 -39 -5 0 -8 -6 -8
-14 0 -8 3 -15 8 -16 4 0 43 -1 86 -2 84 -1 104 10 61 33 -27 15 -33 26 -85
160 -17 47 -36 94 -40 105 -4 11 -18 47 -31 80 -25 68 -29 74 -46 68z m-5
-115 c0 -7 12 -42 27 -76 15 -35 24 -66 21 -69 -6 -7 -107 -5 -114 1 -8 9 51
156 63 156 1 0 2 -6 3 -12z"/>
<path d="M6434 4288 c-3 -4 6 -13 19 -19 27 -12 37 -28 65 -104 10 -27 23 -59
27 -70 5 -11 9 -22 10 -25 1 -3 4 -12 8 -20 3 -8 21 -57 39 -108 22 -62 37
-92 46 -90 8 2 30 44 49 93 19 50 41 104 48 120 7 17 25 59 40 95 29 73 39 89
75 113 27 19 28 19 -74 18 -77 -1 -96 -8 -48 -17 18 -4 33 -12 34 -18 0 -6 2
-18 2 -26 1 -8 -20 -69 -46 -134 -26 -66 -48 -127 -48 -135 0 -25 -32 27 -34
55 0 13 -4 24 -8 24 -5 0 -8 6 -8 14 0 7 -14 46 -30 86 -42 103 -44 119 -14
132 13 6 24 14 24 17 0 9 -171 8 -176 -1z"/>
<path d="M7158 4283 c-21 -5 -24 -23 -4 -23 34 0 40 -29 41 -197 1 -143 -2
-166 -17 -179 -9 -9 -22 -13 -28 -9 -8 5 -11 1 -8 -10 3 -16 18 -18 161 -18
86 0 160 3 164 7 4 3 8 21 10 39 1 17 4 43 5 56 5 40 -19 35 -43 -9 -27 -48
-60 -68 -109 -66 -72 3 -73 6 -74 175 -2 158 8 211 39 211 15 0 22 19 8 21
-40 4 -61 3 -57 -2 4 -7 -47 -5 -62 3 -5 2 -17 3 -26 1z"/>
<path d="M7763 4275 c4 -9 7 -19 7 -21 0 -3 4 -3 10 1 5 3 17 -6 26 -21 18
-26 24 -149 10 -173 -4 -6 -3 -11 1 -11 13 0 4 -163 -9 -171 -6 -4 -20 -6 -30
-4 -11 2 -18 -2 -18 -11 0 -17 -14 -15 185 -14 88 0 164 5 169 10 8 8 27 102
21 108 -8 9 -33 -13 -49 -43 -21 -38 -53 -53 -106 -49 -83 6 -91 14 -92 90 0
98 -2 94 41 94 41 0 65 -16 76 -50 3 -11 13 -20 20 -20 15 0 18 32 14 142 0
19 -29 34 -29 14 0 -7 -12 -25 -27 -40 -19 -20 -34 -26 -54 -22 -44 7 -46 12
-45 87 2 82 8 87 80 82 68 -5 81 -11 99 -48 28 -58 46 -41 39 36 -3 26 -10 39
-23 42 -10 3 -19 2 -19 -2 0 -8 -62 -7 -76 1 -5 4 -16 3 -24 -2 -9 -5 -19 -5
-27 2 -9 7 -13 7 -13 0 0 -10 -37 -8 -47 2 -2 2 -20 0 -40 -5 -23 -5 -44 -4
-56 3 -17 9 -19 8 -14 -7z"/>
</g>
</svg>
