<svg width="2334" height="390" xmlns="http://www.w3.org/2000/svg"><path d="M.01 165.61V2.21h155.84v18.06H22.15V72.4h128.5v18.06H22.15v75.15H0h.01zm184.44-41.07V2.22h22.13v122.1c0 3.9.45 7.44 1.36 10.6.9 3.16 2.63 5.79 5.2 7.9 2.55 2.1 6.13 3.72 10.72 4.85 4.6 1.13 10.65 1.7 18.18 1.7h76.79c7.53 0 13.59-.57 18.18-1.7s8.17-2.75 10.73-4.85c2.56-2.11 4.29-4.74 5.19-7.9.9-3.16 1.36-6.7 1.36-10.6V2.21h22.13v122.32c0 8.27-1.1 15.15-3.28 20.65-2.18 5.49-5.6 9.89-10.27 13.2-4.67 3.3-10.7 5.64-18.07 7-7.38 1.35-16.26 2.03-26.65 2.03h-75.43c-10.4 0-19.28-.68-26.65-2.03-7.38-1.36-13.4-3.7-18.07-7a28.89 28.89 0 0 1-10.28-13.2c-2.18-5.5-3.27-12.38-3.27-20.65v.01zm230.28 41.07V2.21h22.14v145.35h126.92v18.05H414.73zm167.73 0V2.21h22.13v145.35h126.93v18.05H582.46zm166.37 0V2.21h130.76c11.75 0 21.23.98 28.46 2.94s12.76 4.85 16.6 8.69c3.84 3.83 6.4 8.65 7.68 14.44 1.28 5.8 1.92 12.53 1.92 20.2V61.8c0 5.71-.75 10.49-2.26 14.33-1.5 3.83-3.61 6.92-6.32 9.25a25.04 25.04 0 0 1-9.6 5.08c-3.69 1.05-7.64 1.8-11.86 2.25v.46c5.57 1.05 10.2 2.52 13.9 4.4 3.68 1.88 6.54 4.17 8.57 6.88 2.04 2.7 3.47 5.68 4.3 8.91.82 3.24 1.24 6.74 1.24 10.5v41.75h-20.78v-35.88c0-6.32-.75-11.4-2.26-15.24-1.5-3.83-3.65-6.73-6.44-8.69-2.78-1.95-6.2-3.23-10.27-3.83a92.99 92.99 0 0 0-13.55-.9H770.96v64.54h-22.13zm22.13-82.6h106.15c12.35 0 21.27-1.8 26.76-5.42 5.5-3.6 8.25-9.7 8.25-18.28v-14.9c0-4.5-.57-8.3-1.7-11.39a14.43 14.43 0 0 0-6.32-7.45c-3.09-1.88-7.23-3.23-12.42-4.06-5.2-.83-11.86-1.24-20-1.24H770.97v62.74h-.01zm197.76 82.6V2.21h22.14v163.4h-22.14zM1230.4 84.6v22.57c0 11.13-.98 20.54-2.93 28.2-1.96 7.68-5.12 13.89-9.49 18.63-4.37 4.74-10.05 8.16-17.05 10.27-7 2.1-15.62 3.16-25.86 3.16h-91.24c-11.15 0-20.44-1.24-27.9-3.73-7.45-2.48-13.43-6.28-17.95-11.4-4.52-5.11-7.72-11.47-9.6-19.06-1.88-7.6-2.82-16.6-2.82-26.97v-44.7c0-10.38.94-19.37 2.82-26.97 1.88-7.6 5.08-13.95 9.6-19.07 4.52-5.11 10.5-8.91 17.95-11.4 7.46-2.48 16.75-3.72 27.9-3.72h83.56c7.38 0 14.68.56 21.9 1.7a55.5 55.5 0 0 1 19.43 6.65 39.85 39.85 0 0 1 14 13.65c3.62 5.8 5.42 13.43 5.42 22.91v5.87h-20.77c0-7.67-.76-13.7-2.26-18.06-1.5-4.36-4.56-7.63-9.15-9.81-4.6-2.18-11.07-3.54-19.42-4.07a550.25 550.25 0 0 0-33.09-.79h-57.36a72.6 72.6 0 0 0-14.91 1.47 30.9 30.9 0 0 0-12.2 5.3c-3.46 2.56-6.2 6.1-8.24 10.61-2.03 4.52-3.05 10.3-3.05 17.38v61.39c0 7.07 1.02 12.86 3.05 17.37 2.03 4.52 4.78 8.05 8.24 10.61a30.9 30.9 0 0 0 12.2 5.3 72.6 72.6 0 0 0 14.9 1.47h86.5c11.15 0 19.88-2.22 26.2-6.66 6.33-4.43 9.49-12.3 9.49-23.58v-16.48h-83.8V84.6h105.93zm234.58 0v22.57c0 11.13-.98 20.54-2.94 28.2-1.96 7.68-5.12 13.89-9.48 18.63-4.37 4.74-10.05 8.16-17.06 10.27-7 2.1-15.62 3.16-25.85 3.16h-91.25c-11.14 0-20.44-1.24-27.89-3.73-7.45-2.48-13.44-6.28-17.95-11.4-4.52-5.11-7.72-11.47-9.6-19.06-1.88-7.6-2.83-16.6-2.83-26.97v-44.7c0-10.38.95-19.37 2.83-26.97 1.88-7.6 5.08-13.95 9.6-19.07 4.51-5.11 10.5-8.91 17.95-11.4 7.45-2.48 16.75-3.72 27.9-3.72h83.56c7.37 0 14.68.56 21.9 1.7a55.5 55.5 0 0 1 19.43 6.65 39.85 39.85 0 0 1 14 13.65c3.61 5.8 5.42 13.43 5.42 22.91v5.87h-20.78c0-7.67-.75-13.7-2.26-18.06-1.5-4.36-4.55-7.63-9.14-9.81-4.6-2.18-11.07-3.54-19.43-4.07a550.25 550.25 0 0 0-33.08-.79h-57.37a72.6 72.6 0 0 0-14.9 1.47 30.9 30.9 0 0 0-12.2 5.3c-3.46 2.56-6.21 6.1-8.24 10.61-2.04 4.52-3.05 10.3-3.05 17.38v61.39c0 7.07 1.01 12.86 3.05 17.37 2.03 4.52 4.78 8.05 8.24 10.61a30.9 30.9 0 0 0 12.2 5.3 72.6 72.6 0 0 0 14.9 1.47h86.5c11.14 0 19.88-2.22 26.2-6.66 6.32-4.43 9.49-12.3 9.49-23.58v-16.48h-83.8V84.6h105.93zm15.73 81.02l97.11-163.4h27.56l97.11 163.4h-25.07l-20.33-34.53H1526.1l-20.32 34.53h-25.07zm165.77-52.58l-54.88-92.76-54.88 92.76h109.76zm74.68 52.58V2.21h130.76c11.75 0 21.23.98 28.46 2.94s12.76 4.85 16.6 8.69c3.84 3.83 6.4 8.65 7.68 14.44 1.28 5.8 1.92 12.53 1.92 20.2V61.8c0 5.71-.76 10.49-2.26 14.33-1.5 3.83-3.62 6.92-6.33 9.25a25.04 25.04 0 0 1-9.6 5.08c-3.68 1.05-7.64 1.8-11.85 2.25v.46c5.57 1.05 10.2 2.52 13.89 4.4 3.69 1.88 6.55 4.17 8.58 6.88a25.3 25.3 0 0 1 4.3 8.91c.82 3.24 1.23 6.74 1.23 10.5v41.75h-20.77v-35.88c0-6.32-.76-11.4-2.26-15.24-1.5-3.83-3.65-6.73-6.44-8.69-2.78-1.95-6.21-3.23-10.27-3.83a92.99 92.99 0 0 0-13.56-.9H1743.3v64.54h-22.13l-.01.01zm22.13-82.6h106.15c12.34 0 21.26-1.8 26.76-5.42 5.5-3.6 8.24-9.7 8.24-18.28v-14.9c0-4.5-.56-8.3-1.69-11.39a14.43 14.43 0 0 0-6.32-7.45c-3.09-1.88-7.23-3.23-12.43-4.06-5.19-.83-11.85-1.24-19.98-1.24h-100.73v62.74zm197.08 82.6V2.21h160.58v18.06h-138.44V72.4h133.02v18.06h-133.02v57.1h139.35v18.05h-161.49v.01zm188.73 0V2.21h32.98l149.73 143.54V2.22h22.14v163.4h-32.98L2151.24 22.07V165.6h-22.14v.02zm-610.58 150.71v-3.54h9.14v2.85c0 3.66 1.05 6.26 3.14 7.82 2.1 1.56 5.66 2.34 10.68 2.34h21.03c3.65 0 6.74-.07 9.25-.22 2.52-.16 4.51-.54 6-1.15a6.05 6.05 0 0 0 3.2-2.74c.65-1.21.97-2.93.97-5.13v-.46c0-1.37-.15-2.6-.46-3.71a5.17 5.17 0 0 0-1.82-2.74 9.8 9.8 0 0 0-4-1.66 34.82 34.82 0 0 0-7.09-.57h-30.27c-6.94 0-11.83-1.2-14.69-3.6-2.85-2.4-4.28-6.37-4.28-11.92v-3.43c0-2.36.4-4.45 1.2-6.28.8-1.83 2.3-3.37 4.51-4.62 2.21-1.26 5.22-2.21 9.03-2.86 3.8-.64 8.76-.97 14.85-.97h15.08c5.56 0 10 .38 13.31 1.14 3.32.77 5.85 1.8 7.6 3.09 1.75 1.3 2.91 2.83 3.49 4.62.57 1.79.85 3.71.85 5.77v3.08h-9.14v-.57c0-2.2-.36-3.94-1.08-5.2a6.3 6.3 0 0 0-3.2-2.74 16.49 16.49 0 0 0-5.26-1.02c-2.1-.12-4.47-.18-7.14-.18h-17.14c-3.5 0-6.38.12-8.62.35-2.25.23-4 .63-5.26 1.2a4.83 4.83 0 0 0-2.57 2.4 10.09 10.09 0 0 0-.68 4.05v2.17c0 1.21.13 2.28.4 3.2.26.9.81 1.69 1.65 2.33a9.07 9.07 0 0 0 3.6 1.49c1.56.34 3.64.51 6.23.51h25.93c3.66 0 7.01.15 10.06.46 3.04.3 5.65 1.04 7.82 2.22 2.17 1.18 3.87 2.92 5.09 5.2 1.22 2.28 1.83 5.4 1.83 9.36v.23c0 4.1-.86 7.29-2.57 9.53a15.7 15.7 0 0 1-6.52 5.03c-2.63 1.1-5.54 1.77-8.74 2-3.2.22-6.28.34-9.25.34h-18.05c-3.66 0-7.16-.1-10.52-.29a27.98 27.98 0 0 1-8.96-1.88 13.3 13.3 0 0 1-6.29-5.2c-1.56-2.4-2.34-5.76-2.34-10.1zm109.77 16.55v-82.66h9.82v46.47h4.8l33.93-22.03h15.31l.23.22-40.21 25.8 47.87 31.97-.23.23h-15.31l-42.16-28.2h-4.23v28.2h-9.82zm105.2 21.7v-8c3.73 0 6.81-.11 9.25-.34 2.44-.23 4.5-.78 6.17-1.65 1.67-.88 3.1-2.15 4.28-3.83 1.18-1.67 2.42-4 3.72-6.96h-2.4l-33.02-59.14h11.08l28.22 51.49 25.36-51.5h10.63l-32.9 65.43a46.8 46.8 0 0 1-4.46 7.25 15.3 15.3 0 0 1-5.43 4.4 25.1 25.1 0 0 1-8.1 2.16c-3.25.38-7.38.6-12.4.69zm157.86-45.44v-11.42c0-3.35-.42-6.07-1.25-8.16a10.33 10.33 0 0 0-3.78-4.86 15.64 15.64 0 0 0-6.34-2.34 55.25 55.25 0 0 0-8.85-.63h-13.25a63.1 63.1 0 0 0-8.97.58 17.12 17.12 0 0 0-6.69 2.28 11.16 11.16 0 0 0-4.22 4.9c-1 2.14-1.49 4.96-1.49 8.46v11.07c0 2.67.32 5.04.97 7.14.65 2.09 1.72 3.84 3.2 5.25 1.49 1.4 3.47 2.5 5.94 3.25 2.48.76 5.54 1.14 9.2 1.14h16c3.96 0 7.21-.34 9.76-1.02 2.56-.69 4.55-1.72 6-3.09 1.45-1.37 2.44-3.1 2.97-5.2.54-2.08.8-4.54.8-7.35zm-64.66 23.74v-82.66h9.82v32.2h.23c1.07-3.04 3.03-5.25 5.88-6.62 2.86-1.37 7.1-2.06 12.74-2.06h14.97c5.94 0 10.87.44 14.8 1.32 3.92.87 7.08 2.32 9.48 4.33 2.4 2.02 4.1 4.63 5.08 7.82 1 3.2 1.49 7.12 1.49 11.76v10.28c0 5.02-.74 9.13-2.23 12.33-1.49 3.2-3.56 5.69-6.23 7.48a25.18 25.18 0 0 1-9.6 3.7c-3.73.7-7.8 1.04-12.22 1.04h-13.7c-5.19 0-9.64-.8-13.38-2.4a13.9 13.9 0 0 1-7.77-7.76h-.22v9.24h-9.14zm170.77 0v-5.82h-.23c-.68 1.3-1.44 2.38-2.28 3.25a8.88 8.88 0 0 1-3.48 2.12c-1.49.53-3.43.9-5.83 1.08-2.4.2-5.47.29-9.2.29h-23.54c-3.73 0-6.8-.4-9.2-1.2-2.4-.8-4.3-1.94-5.7-3.43a12.38 12.38 0 0 1-2.98-5.48 28.97 28.97 0 0 1-.85-7.36v-3.88c0-3.28.57-5.9 1.71-7.88 1.14-1.98 2.84-3.48 5.09-4.51a25.8 25.8 0 0 1 8.34-2c3.3-.3 7.1-.46 11.36-.46h15.77c3.2 0 5.92.1 8.17.29 2.25.19 4.17.55 5.77 1.08 1.6.54 2.93 1.26 4 2.17 1.06.92 2.02 2.06 2.85 3.43h.23V293.6c0-2.59-.42-4.68-1.25-6.28a7.93 7.93 0 0 0-3.95-3.6 22.05 22.05 0 0 0-6.8-1.6c-2.74-.26-5.97-.4-9.7-.4h-14.4a44.3 44.3 0 0 0-7.54.52c-1.9.34-3.4.85-4.46 1.54a5.3 5.3 0 0 0-2.17 2.45 8.7 8.7 0 0 0-.57 3.26v2.05h-9.82v-2.85c0-2.66.43-4.95 1.3-6.85a10.5 10.5 0 0 1 4.24-4.62c1.94-1.18 4.45-2.06 7.54-2.63a63 63 0 0 1 11.25-.86h15.54c4.57 0 8.74.23 12.51.69 3.77.45 6.99 1.4 9.65 2.85 2.67 1.45 4.75 3.48 6.23 6.11 1.49 2.63 2.23 6.1 2.23 10.45v39.04h-9.83v.01zm0-15.64v-2.62c0-1.98-.45-3.56-1.37-4.74a8.7 8.7 0 0 0-4.11-2.74 26.45 26.45 0 0 0-6.91-1.26 145.3 145.3 0 0 0-9.77-.28h-15.08c-3.2 0-5.83.13-7.89.4a14.3 14.3 0 0 0-4.97 1.42 5.66 5.66 0 0 0-2.62 2.8c-.5 1.18-.75 2.68-.75 4.51v1.83c0 1.6.2 2.98.57 4.16a5.48 5.48 0 0 0 2.29 2.92c1.14.76 2.74 1.3 4.8 1.65 2.05.34 4.76.51 8.11.51h13.02c4.42 0 8.21-.1 11.37-.28 3.16-.2 5.72-.61 7.66-1.26 1.94-.64 3.37-1.52 4.28-2.62a6.67 6.67 0 0 0 1.37-4.4zm48.19 15.64v-58.22h9.14v8.44h.23a15.1 15.1 0 0 1 7.77-7.53c1.6-.69 3.25-1.16 4.97-1.43 1.71-.26 3.4-.4 5.08-.4h9.26c4.57 0 8.41.38 11.53 1.14 3.13.77 5.64 1.96 7.55 3.6 1.9 1.64 3.27 3.73 4.1 6.28.85 2.55 1.27 5.61 1.27 9.2v6.96h-9.15v-2.52c0-3.57-.24-6.47-.74-8.67a8.78 8.78 0 0 0-2.91-5.08c-1.45-1.18-3.52-1.96-6.23-2.34a78.77 78.77 0 0 0-10.57-.58h-6.05c-2.6 0-4.86.39-6.8 1.15a13.38 13.38 0 0 0-4.8 3.08 13 13 0 0 0-2.85 4.5 15.2 15.2 0 0 0-.98 5.43v37h-9.82v-.01zm-625.5 0l-11.12-5.76a10.55 10.55 0 0 1-3.5 3.38c-1.4.82-2.97 1.46-4.7 1.93a28.98 28.98 0 0 1-5.52.9c-1.94.14-3.94.21-5.97.21h-28.83c-4.28 0-7.82-.38-10.62-1.15-2.8-.77-5.01-1.95-6.63-3.54a12.76 12.76 0 0 1-3.38-6.1 35.9 35.9 0 0 1-.95-8.8c0-2.74.21-5.13.62-7.16.41-2.03 1.17-3.73 2.27-5.1a9.65 9.65 0 0 1 4.44-3.05 22.2 22.2 0 0 1 7.25-.99v-.16a46.8 46.8 0 0 1-3.33-2.3 7.31 7.31 0 0 1-2.93-5.44 41.389 41.389 0 0 1-.24-5.1c0-2.14.33-3.96.98-5.47.66-1.51 1.58-2.76 2.76-3.75 1.18-.99 2.58-1.7 4.2-2.14 1.62-.44 3.42-.66 5.4-.66h29.08c2.85 0 5.27.32 7.24.95 1.98.63 3.59 1.52 4.82 2.67a9.6 9.6 0 0 1 2.64 4.2c.52 1.65.78 3.49.78 5.52v4.94h-7.58v-4.45c0-2.74-.75-4.64-2.26-5.68a9.55 9.55 0 0 0-5.56-1.56h-26.77c-1.6 0-2.88.15-3.87.45a6.12 6.12 0 0 0-2.35 1.24 3.79 3.79 0 0 0-1.15 1.93 10.9 10.9 0 0 0-.3 2.63c0 1 .02 1.84.05 2.55a6.94 6.94 0 0 0 .33 1.94c.2.58.48 1.07.86 1.48.39.41.94.81 1.65 1.2l45.96 24.28v-13.34h7.58v12.6c0 .65-.04 1.34-.12 2.05-.09.741-.19 1.481-.3 2.22l12.03 6.34-2.96 6.1v-.01zm-18.53-9.3l-42.34-22.14h-2.47c-.55 0-1.36.1-2.43.29a8.9 8.9 0 0 0-6.14 4.44c-.82 1.4-1.23 3.28-1.23 5.64v4.04c0 1.7.15 3.23.45 4.6.3 1.38.95 2.54 1.93 3.5a9.8 9.8 0 0 0 4.16 2.22c1.79.53 4.16.79 7.13.79h27.6c3.9 0 6.98-.25 9.26-.74 2.28-.5 3.64-1.38 4.08-2.64zM11.54 238.06v-12.7h2310.3v12.7H11.54zm0 151.34v-12.7h2310.3v12.7H11.54zm218.63-56.52v-58.22h9.14v8.44h.23a15.1 15.1 0 0 1 7.77-7.53c1.6-.69 3.26-1.16 4.97-1.43 1.71-.26 3.4-.4 5.08-.4h9.26c4.57 0 8.42.38 11.54 1.14 3.12.77 5.64 1.96 7.54 3.6 1.9 1.64 3.27 3.73 4.11 6.28.84 2.55 1.26 5.61 1.26 9.2v6.96h-9.14v-2.52c0-3.57-.25-6.47-.74-8.67a8.78 8.78 0 0 0-2.92-5.08c-1.44-1.18-3.52-1.96-6.22-2.34a78.77 78.77 0 0 0-10.57-.58h-6.06c-2.59 0-4.85.39-6.8 1.15a13.38 13.38 0 0 0-4.8 3.08 13 13 0 0 0-2.85 4.5 15.2 15.2 0 0 0-.97 5.43v37h-9.83v-.01zm154.9-35.39v-3.88c0-1.45-.32-2.9-.97-4.34a9.6 9.6 0 0 0-3.26-3.82c-1.52-1.1-3.62-2-6.28-2.69a40.68 40.68 0 0 0-9.94-1.03h-14.4c-3.88 0-7.08.21-9.6.63-2.5.42-4.5 1.2-6 2.34a9.41 9.41 0 0 0-3.2 4.8 35.51 35.51 0 0 0-1.3 7.99h54.95zm-64.78 12.44v-12.67c0-5.25.84-9.44 2.51-12.56 1.68-3.12 3.87-5.5 6.57-7.13a23.5 23.5 0 0 1 9.14-3.14 77.35 77.35 0 0 1 10.34-.69h15.77c4.42 0 8.47.35 12.17 1.03 3.7.69 6.87 1.96 9.54 3.83 2.66 1.86 4.76 4.43 6.28 7.7 1.52 3.27 2.29 7.5 2.29 12.67v6.51h-64.8v3.66c0 3.34.42 6.08 1.26 8.22.84 2.13 2.2 3.82 4.06 5.08 1.86 1.25 4.3 2.13 7.3 2.62 3.02.5 6.66.74 10.92.74h13.48c3.05 0 5.68-.13 7.89-.4 2.2-.26 4.03-.78 5.48-1.54a7.55 7.55 0 0 0 3.26-3.2c.72-1.36 1.16-3.15 1.31-5.36h9.83v1.14c0 3.35-.67 6.13-2 8.34-1.34 2.2-3.28 3.97-5.83 5.3a30.1 30.1 0 0 1-9.26 2.86 79.36 79.36 0 0 1-12.28.86H347.7c-3.2 0-6.44-.23-9.71-.69a21.89 21.89 0 0 1-8.86-3.2 18.46 18.46 0 0 1-6.4-7.19c-1.63-3.12-2.45-7.38-2.45-12.79h.01zm108.05 6.4v-3.54h9.14v2.85c0 3.66 1.05 6.26 3.14 7.82 2.1 1.56 5.66 2.34 10.69 2.34h21.02c3.66 0 6.74-.07 9.25-.22 2.52-.16 4.52-.54 6-1.15a6.05 6.05 0 0 0 3.2-2.74c.65-1.21.97-2.93.97-5.13v-.46c0-1.37-.15-2.6-.45-3.71a5.17 5.17 0 0 0-1.83-2.74 9.8 9.8 0 0 0-4-1.66 34.82 34.82 0 0 0-7.09-.57h-30.27c-6.93 0-11.83-1.2-14.68-3.6-2.86-2.4-4.29-6.37-4.29-11.92v-3.43c0-2.36.4-4.45 1.2-6.28.8-1.83 2.3-3.37 4.51-4.62 2.21-1.26 5.22-2.21 9.03-2.86 3.8-.64 8.76-.97 14.85-.97h15.08c5.57 0 10 .38 13.32 1.14 3.3.77 5.84 1.8 7.6 3.09 1.74 1.3 2.9 2.83 3.48 4.62.57 1.79.85 3.71.85 5.77v3.08h-9.14v-.57c0-2.2-.36-3.94-1.08-5.2a6.3 6.3 0 0 0-3.2-2.74 16.49 16.49 0 0 0-5.26-1.02c-2.09-.12-4.47-.18-7.14-.18h-17.13c-3.5 0-6.38.12-8.63.35-2.25.23-4 .63-5.26 1.2a4.83 4.83 0 0 0-2.57 2.4 10.09 10.09 0 0 0-.68 4.05v2.17c0 1.21.13 2.28.4 3.2.26.9.82 1.69 1.65 2.33a9.07 9.07 0 0 0 3.6 1.49c1.56.34 3.64.51 6.23.51h25.94c3.65 0 7 .15 10.05.46 3.05.3 5.66 1.04 7.83 2.22 2.17 1.18 3.86 2.92 5.08 5.2 1.22 2.28 1.83 5.4 1.83 9.36v.23c0 4.1-.86 7.29-2.57 9.53a15.7 15.7 0 0 1-6.51 5.03c-2.63 1.1-5.55 1.77-8.75 2-3.2.22-6.28.34-9.25.34h-18.05c-3.66 0-7.16-.1-10.51-.29a27.98 27.98 0 0 1-8.97-1.88 13.3 13.3 0 0 1-6.29-5.2c-1.56-2.4-2.34-5.76-2.34-10.1zm115.03-.92v-32.76h-12.8v-8h12.8v-13.8h9.82v13.8h38.96v8H553.2v29c0 2.74.25 5 .74 6.79.5 1.79 1.32 3.24 2.46 4.34 1.14 1.1 2.65 1.88 4.51 2.34 1.87.46 4.14.68 6.8.68h3.09c3.27 0 5.9-.2 7.88-.62a8.66 8.66 0 0 0 4.57-2.29 8.52 8.52 0 0 0 2.11-4.56 44.4 44.4 0 0 0 .52-7.48v-4.34h8v6.4c0 2.89-.18 5.6-.52 8.16a13.58 13.58 0 0 1-2.74 6.68c-1.49 1.9-3.71 3.38-6.69 4.45-2.97 1.06-7.12 1.6-12.45 1.6h-5.37c-4.57 0-8.34-.52-11.31-1.55-2.97-1.02-5.3-2.4-6.97-4.1a13.9 13.9 0 0 1-3.48-5.88 24.21 24.21 0 0 1-.97-6.86h-.01zm142.9 17.47v-5.82h-.23c-.69 1.3-1.45 2.38-2.29 3.25a8.88 8.88 0 0 1-3.48 2.12c-1.49.53-3.43.9-5.83 1.08-2.4.2-5.46.29-9.2.29h-23.53c-3.73 0-6.8-.4-9.2-1.2-2.4-.8-4.3-1.94-5.71-3.43a12.38 12.38 0 0 1-2.97-5.48 28.97 28.97 0 0 1-.86-7.36v-3.88c0-3.28.57-5.9 1.71-7.88 1.15-1.98 2.84-3.48 5.09-4.51a25.8 25.8 0 0 1 8.34-2c3.31-.3 7.1-.46 11.37-.46h15.76c3.2 0 5.93.1 8.17.29 2.25.19 4.17.55 5.77 1.08 1.6.54 2.93 1.26 4 2.17 1.07.92 2.02 2.06 2.86 3.43h.23V293.6c0-2.59-.42-4.68-1.26-6.28a7.93 7.93 0 0 0-3.94-3.6 22.04 22.04 0 0 0-6.8-1.6c-2.74-.26-5.98-.4-9.71-.4h-14.4a44.3 44.3 0 0 0-7.54.52c-1.9.34-3.39.85-4.45 1.54a5.3 5.3 0 0 0-2.18 2.45 8.7 8.7 0 0 0-.57 3.26v2.05h-9.82v-2.85c0-2.66.44-4.95 1.31-6.85a10.5 10.5 0 0 1 4.23-4.62c1.94-1.18 4.45-2.06 7.54-2.63a63 63 0 0 1 11.25-.86h15.54c4.57 0 8.74.23 12.51.69 3.77.45 7 1.4 9.66 2.85 2.66 1.45 4.74 3.48 6.22 6.11 1.49 2.63 2.23 6.1 2.23 10.45v39.04h-9.82v.01zm0-15.64v-2.62c0-1.98-.46-3.56-1.38-4.74a8.7 8.7 0 0 0-4.1-2.74 26.45 26.45 0 0 0-6.92-1.26 145.3 145.3 0 0 0-9.77-.28h-15.08c-3.2 0-5.83.13-7.88.4a14.3 14.3 0 0 0-4.97 1.42 5.66 5.66 0 0 0-2.63 2.8c-.5 1.18-.74 2.68-.74 4.51v1.83c0 1.6.19 2.98.57 4.16a5.48 5.48 0 0 0 2.28 2.92c1.14.76 2.74 1.3 4.8 1.65 2.06.34 4.76.51 8.11.51h13.03c4.42 0 8.2-.1 11.37-.28 3.16-.2 5.7-.61 7.65-1.26 1.94-.64 3.37-1.52 4.28-2.62a6.67 6.67 0 0 0 1.38-4.4zm110.1 15.64v-10.04h-.22a16.24 16.24 0 0 1-3.49 5.53c-1.4 1.41-3.08 2.51-5.02 3.31-1.95.8-4.17 1.36-6.69 1.66-2.51.3-5.3.46-8.34.46h-14.74c-4.57 0-8.41-.54-11.54-1.6a19.52 19.52 0 0 1-7.48-4.34 15.8 15.8 0 0 1-4-6.28 23.32 23.32 0 0 1-1.2-7.54v-39.38h9.83v36.99c0 2.13.23 4.07.68 5.82a8.4 8.4 0 0 0 2.92 4.45c1.48 1.22 3.63 2.17 6.45 2.86 2.82.68 6.63 1.02 11.43 1.02h2.51c5.71 0 10.4-.3 14.05-.9 3.66-.62 6.53-1.6 8.63-2.98 2.1-1.37 3.54-3.21 4.34-5.53.8-2.33 1.2-5.2 1.2-8.62v-33.11h9.83v58.22h-9.15zm48.65 0v-58.22h9.14v8.44h.23a15.1 15.1 0 0 1 7.77-7.53c1.6-.69 3.25-1.16 4.97-1.43 1.71-.26 3.4-.4 5.08-.4h9.25c4.57 0 8.42.38 11.54 1.14 3.13.77 5.64 1.96 7.54 3.6 1.9 1.64 3.28 3.73 4.12 6.28.84 2.55 1.25 5.61 1.25 9.2v6.96h-9.14v-2.52c0-3.57-.24-6.47-.74-8.67a8.78 8.78 0 0 0-2.91-5.08c-1.45-1.18-3.52-1.96-6.23-2.34a78.77 78.77 0 0 0-10.57-.58h-6.05c-2.6 0-4.86.39-6.8 1.15a13.38 13.38 0 0 0-4.8 3.08 13 13 0 0 0-2.86 4.5 15.2 15.2 0 0 0-.97 5.43v37h-9.82v-.01zm152.95 0v-5.82h-.23c-.68 1.3-1.44 2.38-2.28 3.25a8.88 8.88 0 0 1-3.49 2.12c-1.48.53-3.42.9-5.82 1.08-2.4.2-5.47.29-9.2.29h-23.54c-3.73 0-6.8-.4-9.2-1.2-2.4-.8-4.3-1.94-5.7-3.43a12.38 12.38 0 0 1-2.98-5.48 28.97 28.97 0 0 1-.85-7.36v-3.88c0-3.28.57-5.9 1.71-7.88 1.14-1.98 2.84-3.48 5.09-4.51a25.8 25.8 0 0 1 8.34-2c3.3-.3 7.1-.46 11.36-.46h15.77c3.2 0 5.92.1 8.17.29 2.25.19 4.17.55 5.77 1.08 1.6.54 2.93 1.26 4 2.17 1.06.92 2.02 2.06 2.85 3.43h.23V293.6c0-2.59-.42-4.68-1.25-6.28a7.93 7.93 0 0 0-3.95-3.6 22.04 22.04 0 0 0-6.8-1.6c-2.74-.26-5.97-.4-9.7-.4h-14.4a44.3 44.3 0 0 0-7.54.52c-1.9.34-3.4.85-4.46 1.54a5.3 5.3 0 0 0-2.17 2.45 8.7 8.7 0 0 0-.57 3.26v2.05h-9.83v-2.85c0-2.66.44-4.95 1.32-6.85a10.5 10.5 0 0 1 4.23-4.62c1.94-1.18 4.45-2.06 7.54-2.63a63 63 0 0 1 11.25-.86h15.54c4.57 0 8.74.23 12.51.69 3.77.45 6.99 1.4 9.65 2.85 2.67 1.45 4.75 3.48 6.23 6.11 1.49 2.63 2.23 6.1 2.23 10.45v39.04h-9.83v.01zm0-15.64v-2.62c0-1.98-.45-3.56-1.37-4.74a8.7 8.7 0 0 0-4.11-2.74 26.45 26.45 0 0 0-6.91-1.26 145.3 145.3 0 0 0-9.77-.28h-15.08c-3.2 0-5.83.13-7.89.4a14.3 14.3 0 0 0-4.97 1.42 5.66 5.66 0 0 0-2.62 2.8c-.5 1.18-.75 2.68-.75 4.51v1.83c0 1.6.2 2.98.57 4.16a5.48 5.48 0 0 0 2.29 2.92c1.14.76 2.74 1.3 4.8 1.65 2.05.34 4.76.51 8.11.51h13.02c4.42 0 8.21-.1 11.37-.28 3.16-.2 5.72-.61 7.66-1.26 1.94-.64 3.37-1.52 4.28-2.62a6.67 6.67 0 0 0 1.37-4.4zm47.39 15.64v-58.22h9.14v10.04h.23c.91-2.28 2.07-4.13 3.48-5.53 1.41-1.41 3.09-2.52 5.03-3.31 1.94-.8 4.17-1.36 6.68-1.66 2.52-.3 5.3-.46 8.34-.46H1093c4.57 0 8.42.54 11.54 1.6 3.12 1.07 5.62 2.51 7.48 4.34 1.87 1.83 3.2 3.94 4 6.34.8 2.4 1.2 4.89 1.2 7.47v39.4h-9.82v-37c0-2.13-.23-4.07-.69-5.82a8.4 8.4 0 0 0-2.91-4.45c-1.49-1.22-3.64-2.17-6.46-2.86-2.82-.68-6.62-1.03-11.42-1.03h-2.52c-5.7 0-10.4.3-14.05.92-3.65.6-6.53 1.6-8.62 2.97-2.1 1.37-3.55 3.21-4.35 5.53-.8 2.33-1.2 5.2-1.2 8.62v33.11h-9.82zm172.6-26.26v-7.07a27.69 27.69 0 0 0-.68-7.37 13.39 13.39 0 0 0-2.8-5.6 12.7 12.7 0 0 0-5.43-3.59c-2.28-.84-5.14-1.26-8.57-1.26h-19.98c-2.51 0-4.82.2-6.91.58a15.9 15.9 0 0 0-5.49 2 10.08 10.08 0 0 0-3.65 3.82c-.88 1.6-1.32 3.58-1.32 5.94v10.73c0 3.35.3 6.14.92 8.39.6 2.24 1.58 4.03 2.91 5.36 1.33 1.34 3.07 2.29 5.2 2.86 2.13.57 4.68.86 7.65.86h18.97c7 0 11.96-1.36 14.85-4.06 2.9-2.7 4.34-6.56 4.34-11.59h-.01zm9.83-31.96v58.1c0 4.42-.88 8-2.63 10.74a19.5 19.5 0 0 1-6.62 6.45c-2.67 1.56-5.64 2.6-8.92 3.14-3.27.53-6.43.8-9.48.8h-22.16c-4.5 0-8.23-.55-11.2-1.66a19.29 19.29 0 0 1-7.03-4.22 14.42 14.42 0 0 1-3.6-5.65 18.43 18.43 0 0 1-1.02-5.82v-1.94h9.14v1.6c0 1.9.45 3.48 1.37 4.73a9.41 9.41 0 0 0 3.65 2.97c1.53.72 3.32 1.24 5.37 1.54 2.06.3 4.23.46 6.52.46h9.6c4.87 0 9.02-.1 12.45-.29 3.42-.19 6.22-.8 8.4-1.82a9.84 9.84 0 0 0 4.8-4.74c1.02-2.13 1.53-5.18 1.53-9.14v-8.67h-.22c-.54 1.37-1.22 2.6-2.06 3.7-.84 1.11-2 2.06-3.49 2.86-1.48.8-3.37 1.41-5.65 1.83a48.75 48.75 0 0 1-8.57.63h-20.22c-8.23 0-14.36-2-18.4-6-4.03-4-6.05-9.76-6.05-17.3v-9.7c0-5.25.85-9.44 2.57-12.56 1.71-3.12 3.86-5.5 6.45-7.13a21.7 21.7 0 0 1 8.52-3.14c3.08-.46 6-.69 8.74-.69h20.9c1.83 0 3.66.16 5.49.46 1.83.3 3.54.86 5.14 1.66 1.6.8 3.03 1.94 4.28 3.42 1.26 1.48 2.27 3.4 3.03 5.77h.23v-10.4h9.14v.01z" fill="#323232" fill-rule="nonzero"/></svg>