<svg width="1714" height="1716" viewBox="0 0 1714 1716" xmlns="http://www.w3.org/2000/svg"><path d="M1484.911 269.946C1581.35 370.207 1714 564.019 1714 855c0 433-339 861-875 861 60.037-17.333 102.704-45.667 128-85 37.944-59 70-84 60.51-726H1171v-86h-143.49l-.51-491c18-138.424 137.005-190.717 245.332-181 42.703 4.484 80.345 17.761 112.925 39.832A145.42 145.42 0 0 0 1352 183c-80.081 0-145 64.919-145 145s64.919 145 145 145 145-64.919 145-145c0-20.643-4.314-40.278-12.089-58.054zM225.828 1439.239C130.368 1338.97 0 1145.95 0 856 0 423 333 0 869 0c-73.333 17.333-123.667 56-151 116-41 90-55.42 100.275-46.51 703H528v86h143.49l-.49 483c-18 138.424-127.967 190.186-236.332 182-35.451-2.678-62.95-9.26-82.496-19.749 4.875.495 9.822.749 14.828.749 80.081 0 145-64.919 145-145s-64.919-145-145-145-145 64.919-145 145a145.42 145.42 0 0 0 3.828 33.24z" fill="#323232" fill-rule="evenodd"/></svg>