<svg width="1198" height="323" viewBox="0 0 1198 323" xmlns="http://www.w3.org/2000/svg" xmlns:xlink="http://www.w3.org/1999/xlink"><defs><path id="a" d="M.18.84h1197.342v321.98H.18z"/></defs><g fill="none" fill-rule="evenodd"><path d="M841.512 163.337c11.178-3.696 20.052.714 23.358 13.182 9.267 34.92-10.305 74.265-45.642 86.442-37.068 12.771-91.056 4.518-109.587-51.219-20.694-62.244-15.051-122.205 17.877-179.238 21.915-37.953 74.427-38.973 99.426-20.265 21.561 16.134 28.185 39.639 25.179 65.784-1.467 12.759-5.22 24.87-19.758 28.689-4.377 1.149-9.441 1.308-13.848.351-6.087-1.326-8.613-4.674-8.352-12.453.624-18.711-.546-37.545-2.073-56.241-.705-8.61-5.622-15.963-14.859-18.126-9.414-2.202-15.963 3.543-21.39 10.05-12.366 14.829-18.726 32.556-22.65 51.108-9.423 44.532-8.823 88.767 7.392 131.724 3.678 9.744 10.443 19.035 17.832 26.511 12.681 12.834 30.957 11.889 43.917-.618 12.981-12.528 18.702-28.629 21.231-45.903 1.389-9.507 1.308-19.227 1.947-29.778m66.96-98.742c-13.56-.18-28.515-10.266-32.484-21.909-2.802-8.217.324-14.907 8.367-17.91 13.884-5.184 36.729 5.349 41.664 19.206 4.35 12.219-2.961 20.811-17.547 20.613M267.801 43.373c.015-.135.03-.27.048-.402.444-3.438 1.758-7.107 3.519-10.104 3.813-6.489 9.801-10.137 17.463-7.935 7.77 2.232 10.581 8.811 10.317 16.173-.174 4.833-1.521 9.87-3.453 14.34-2.64 6.108-7.413 11.1-14.592 10.185-7.362-.939-10.95-6.9-12.792-13.671-.729-2.679-.825-5.817-.51-8.586" fill="#1A1919"/><mask id="b" fill="#fff"><use xlink:href="#a"/></mask><path d="M256.602 41.348c-.504 5.511-1.572 11.316-5.067 15.789-2.814 3.603-8.586 7.287-12.63 6.873-4.071-.42-9.456-5.178-10.959-9.255-2.043-5.544-2.079-12.468-.924-18.402 1.632-8.412 10.29-14.232 16.731-12.975 6.213 1.209 10.629 5.838 12.675 11.688.642 1.842.378 3.894.213 5.832l-.039.45" fill="#1A1919" mask="url(#b)"/><path d="M279.84 142.85c-6.687 19.005-12.9 38.181-20.001 57.027-1.737 4.614-4.227 8.922-7.041 12.96-1.275 1.83-2.577 3.669-3.849 5.475-1.326 1.884-3.504 3.516-5.334 4.881-.792.591-1.617 1.155-2.541 1.503-.921.348-1.959.468-2.898.159-1.293-.423-2.202-1.569-2.946-2.709-5.715-8.754-5.187-20.013-6.318-30.03.96-21.024 4.02-41.52 12.462-60.813 2.607-5.958 6.441-11.676 10.839-16.476 5.316-5.802 12.927-5.634 18.501-.159 7.833 7.692 13.275 16.392 9.126 28.182zM94.026 303.101c-3.474.99-7.959 1.227-11.097-.171-3.309-1.476-7.077-4.98-7.812-8.238-.618-2.739 1.98-7.782 4.629-9.408 11.412-7.014 23.37-13.146 36.216-20.199.426 19.506-8.256 34.107-21.936 38.016zM433.659 92.303c-4.368-.849-6.678-.03-7.254 5.004-1.446 12.657-2.655 25.41-5.271 37.848a1787.2 1787.2 0 0 1-4.953 22.761 2562.87 2562.87 0 0 1-5.208 22.71 4520.413 4520.413 0 0 1-5.367 22.671c-.45 1.89-.903 3.777-1.353 5.664-.444 1.842-.768 3.765-1.341 5.571-.492 1.545-2.427 8.082-3.243 9.654a90.056 90.056 0 0 1-1.218 2.247c-.231.417-.477.849-.864 1.131-.699.504-1.671.042-2.328-.354-.789-.48-1.356-1.281-1.788-2.079-.93-1.716-1.47-3.615-1.803-5.532-.633-3.651-.942-7.389-1.401-11.07-.48-3.861-.942-7.725-1.392-11.592a1503.312 1503.312 0 0 1-2.508-23.217c-1.824-18.207-2.685-36.537-5.211-54.642-2.643-18.933-30.021-31.23-45.96-21.513.972 4.053 2.304 8.019 2.847 12.093 3.987 29.94 7.02 60.036 12.021 89.802 2.583 15.39-5.331 24.153-15.258 32.256-7.461 6.09-14.682 3.06-16.593-6.345-1.209-5.94-2.082-12.15-1.752-18.165 1.437-26.313 3.384-52.596 5.115-78.894 1.005-15.291-5.178-24.903-19.752-30.84-9.918-4.044-13.449-2.049-15.117 8.508-.222 1.404-.561 2.787-.963 4.758-28.161-30.279-65.007-26.592-83.895 8.118-12.258 22.521-15.726 47.007-13.197 72.474.303 3.066-.393 7.632-2.424 9.285-8.523 6.924-17.733 13.002-28.815 20.907.537-9.828 1.173-16.998 1.275-24.174.381-26.379.78-52.758.582-79.134-.021-2.88-3.357-7.584-5.988-8.277-11.259-2.976-29.697 12.015-30.372 23.715-.318 5.529-.666 11.106-1.662 16.539-3.807 20.769-10.572 40.248-26.511 55.158-11.667 10.917-25.095 10.131-34.251-2.937-4.815-6.87-8.7-15.057-10.572-23.205-9.141-39.822-7.032-79.494 6.036-118.062 3.957-11.67 11.415-22.647 19.224-32.373 6.759-8.418 17.358-9.579 27.459-5.022 9.315 4.203 14.097 12.576 13.341 22.167-.828 10.548-3.477 21.144-6.828 31.221-1.623 4.869-1.107 6.882 2.814 9.312 10.992 6.81 27.468 3.441 35.679-7.833 9.552-13.113 10.302-27.693 3.573-41.763-10.74-22.446-29.865-34.026-54.303-35.337C62.145-.349 37.614 16.814 21.228 46.241.105 84.17-4.545 124.751 4.14 166.973c4.602 22.38 13.134 42.921 30.726 58.542 17.109 15.192 38.193 16.659 57.354 4.005 11.634-7.686 19.878-18.345 26.157-30.654.975-1.911 2.178-3.708 3.276-5.559.672 8.928-.018 17.229-.279 25.542-.735 23.28-.825 22.932-22.281 32.832-16.041 7.401-32.268 14.787-47.184 24.135-14.004 8.778-13.896 22.716-1.77 33.366 29.016 25.479 81.177 14.202 95.682-21.351 4.428-10.857 5.667-23.004 8.589-34.506.615-2.421 1.602-5.496 3.447-6.741 12.69-8.565 25.656-16.725 38.358-24.903 2.214 3.957 4.515 9.066 7.722 13.524 3.207 4.458 6.912 8.754 11.115 12.258 12.12 10.095 25.911 9.699 36.222-2.127 6.633-7.611 11.892-16.638 16.605-25.638 4.863-9.291 8.319-19.317 12.39-29.022 1.068 8.337.408 16.452 1.236 24.408 1.05 10.086 1.911 20.373 10.419 28.056 15.954 14.415 36.96 15.393 53.649 1.908 4.314-3.483 8.436-7.2 12.45-10.644 7.854 10.917 16.716 16.914 31.806 20.856 15.537 4.056 24.588-.18 29.916-15.234 14.577-41.184 22.194-83.949 27.693-127.122 1.389-10.92-4.518-18.801-13.779-20.601zm679.11 197.13c-1.629 3.804-4.863 7.38-8.253 9.873-5.7 4.188-15.384 3.807-17.394-.315-3.462-7.107 2.112-10.902 6.756-14.064 6.735-4.59 14.061-8.31 22.995-13.476-1.605 7.491-2.013 13.095-4.104 17.982zm77.382-90.867c-10.761 10.2-21.243 20.139-32.619 30.924.744-30.921 1.857-59.472 1.977-88.029.093-22.335-12.114-37.962-30.264-49.407-4.764-3.006-8.649-3.567-10.578 4.218-5.253 21.183-10.497 42.462-17.571 63.075-2.295 6.714-4.893 13.32-7.662 19.851-2.94 6.93-6.078 13.773-9.291 20.58a1859.118 1859.118 0 0 1-4.863 10.182c-.213.444-2.682 3.999-3.207 4.824-1.128 1.776-2.88 3.096-4.803 3.945a5.569 5.569 0 0 1-5.058-.282c-.942-.555-1.713-1.356-2.421-2.187a14.364 14.364 0 0 1-1.287-1.722c-2.553-4.095-2.451-9.468-2.523-14.115-.126-7.734.459-15.456.825-23.175.855-17.967 3.228-35.976 2.526-53.868-.66-16.782-14.016-28.821-30.474-31.44-5.445-.87-7.983.237-8.163 6.648-.594 20.802-2.331 41.58-2.742 62.385-.342 17.172.258 34.383 1.047 51.549.519 11.286-18.81 27.048-29.187 22.815-2.799-1.143-5.46-3.882-6.981-6.567-1.857-3.285-3.03-7.215-3.498-10.989-4.62-37.293.744-74.055 5.454-111.081 6.141-.768 11.721-.999 17.055-2.265 4.989-1.185 10.095-2.871 14.391-5.553 1.824-1.137 2.301-5.406 2.139-8.178-.048-.813-4.374-1.893-6.765-1.962-8.409-.24-16.827-.093-25.677-.093 0-11.16.999-20.727-.234-29.997-1.836-13.806-6.819-26.562-21.105-32.424-8.922-3.663-14.055-.645-15.279 8.748-1.035 7.956-1.455 16.017-1.677 24.045-.276 9.912-.066 19.836-.066 29.757-6.465.801-11.895 1.623-17.358 2.109-5.103.453-7.233 3.585-5.808 7.854.882 2.649 3.834 5.76 6.435 6.441 4.962 1.296 10.341 1.005 15.726 1.386-.825 28.845-2.34 56.595-2.088 84.333.114 12.648-3.723 22.662-11.64 31.701-4.56 5.208-9.399 11.301-17.295 9.012-8.565-2.484-7.92-10.923-7.818-17.43.285-18.573 1.74-37.122 2.376-55.692.504-14.649 1.821-29.451.351-43.941-1.845-18.171-18.723-30.666-33.942-27.144-.576 9.6-1.104 19.272-1.752 28.932-1.689 25.194-4.158 50.367-4.839 75.588-.324 12.003 1.266 24.504 4.518 36.069 7.323 26.055 44.664 39.684 66.294 12.939 2.679-3.315 5.343-6.639 8.544-10.62 7.662 16.209 19.707 24.798 36.858 25.197 16.857.396 30.474-6.537 40.944-20.145 3.021 3.165 5.28 5.979 7.974 8.286 16.431 14.076 37.611 18.993 51.993-6.573 7.155-12.717 13.269-26.145 18.573-39.75 5.142-13.197 8.646-27.033 12.867-40.59-.327 28.407-2.478 56.604-3.771 84.84-.327 7.167-3.219 10.152-9.087 13.482-13.665 7.752-27.228 15.951-39.672 25.479-8.82 6.753-8.727 13.971-3.069 23.685 5.778 9.924 15.132 14.367 25.884 16.095 20.616 3.318 45.273-.633 52.404-29.514 2.448-9.921 5.796-19.689 7.338-29.742.921-6.015 3.669-8.751 8.43-11.784 10.44-6.645 21.174-13.299 30.096-21.738 9.69-9.165 7.797-24.312-.885-28.977zm-705.093-91.824c-.399-15.504-.558-31.029-.201-46.53.12-5.151-.183-12.912 6.939-12.696 2.727.084 6.705 8.004 7.521 12.795 2.358 13.872-4.101 48.957-11.841 68.43-.993-8.673-2.247-15.324-2.418-21.999zm100.182 3.39c3.147-4.83 7.617-11.34 13.653-8.139 4.767 2.529 9.36 9.153 10.194 14.553 1.767 11.439-3.831 21.372-13.131 27.915a55.547 55.547 0 0 1-5.046 3.123c-3.078 1.695-6.279 3.15-9.486 4.587-3.153 1.413-6.291 3.165-9.549 4.266-.228.075-.459.153-.699.165.12-1.269.135-2.484.354-3.723.228-1.293.387-2.604.597-3.9 1.083-6.792 2.43-13.56 4.488-20.127 2.061-6.579 4.86-12.933 8.625-18.72zm75.474 74.571c-.693.456-1.062.561-1.134.768-.534 1.551-1.05 3.111-1.491 4.692-3.756 13.467-10.944 24.777-21.678 33.699-21.501 17.859-47.904 12.183-58.464-13.725-4.878-11.961-4.836-25.509-8.007-39.354 6.048-.57 8.247-.729 11.778-1.122 15.783-1.752 30.177-6.891 42.327-17.457 23.244-20.217 18.147-51.108-10.329-62.643-28.581-11.583-57.195-1.11-71.655 27.033-14.019 27.285-16.614 56.46-8.505 85.638 3.546 12.759-1.446 20.052-8.991 27.477-8.757 8.619-17.019 6.81-22.305-4.401-1.17-2.478-2.178-5.148-2.622-7.833-4.125-24.963-7.599-49.836 2.994-74.334 3.492-8.07 5.739-16.743 7.92-25.302 5.826-22.848 11.706-45.813 7.38-69.675-3.135-17.28-8.979-33.393-25.353-42.846-16.416-9.474-31.047-3.633-34.524 14.877-2.904 15.45-4.95 31.383-4.641 47.046.771 38.805 2.361 77.631 5.172 116.334 1.17 16.107 5.013 32.331 9.942 47.769 5.775 18.072 25.476 27.339 44.253 23.817 15.372-2.88 23.841-14.157 32.709-25.254.627.534 1.359.978 1.857 1.608 22.476 28.278 69.825 31.11 98.622 8.571 13.329-10.431 23.004-23.292 23.82-41.01.312-6.768-1.953-12.369-9.075-14.373z" fill="#1A1919" mask="url(#b)"/></g></svg>